<?xml version="1.0" encoding="UTF-8"?>
<svg xmlns="http://www.w3.org/2000/svg" xmlns:xlink="http://www.w3.org/1999/xlink" width="25px" height="25px" viewBox="0 0 25 25" version="1.1">
<g id="surface1">
<path style=" stroke:none;fill-rule:nonzero;fill:rgb(96.862745%,33.333334%,20.392157%);fill-opacity:1;" d="M 12.5 1.101562 C 15.8125 1.101562 18.308594 2.277344 19.058594 7.109375 C 19.058594 7.109375 22.242188 9.003906 18.644531 9.003906 C 18.644531 9.003906 20.414062 13.199219 18.292969 16.125 C 16.171875 19.050781 18.472656 24.191406 16.160156 24.558594 C 13.910156 24.917969 12.5 25 12.5 25 C 12.5 25 11.089844 24.917969 8.839844 24.558594 C 6.527344 24.191406 8.828125 19.050781 6.707031 16.125 C 4.585938 13.199219 6.355469 9.003906 6.355469 9.003906 C 2.757812 9.003906 5.941406 7.109375 5.941406 7.109375 C 6.691406 2.277344 9.1875 1.101562 12.5 1.101562 Z M 12.5 1.101562 "/>
<path style=" stroke:none;fill-rule:nonzero;fill:rgb(74.117649%,22.352941%,11.764706%);fill-opacity:1;" d="M 9.824219 24.558594 C 7.511719 24.191406 9.816406 19.050781 7.695312 16.125 C 5.902344 13.652344 6.886719 10.273438 7.238281 9.285156 C 7.285156 9.148438 7.1875 9.003906 7.042969 8.996094 C 3.929688 8.890625 6.929688 7.109375 6.929688 7.109375 C 7.640625 2.519531 9.929688 1.230469 12.992188 1.109375 C 12.832031 1.105469 12.667969 1.101562 12.5 1.101562 C 9.1875 1.101562 6.691406 2.277344 5.941406 7.109375 C 5.941406 7.109375 2.757812 9.003906 6.355469 9.003906 C 6.355469 9.003906 4.585938 13.199219 6.707031 16.125 C 8.828125 19.050781 6.527344 24.191406 8.839844 24.558594 C 11.089844 24.917969 12.5 25 12.5 25 C 12.5 25 12.671875 24.988281 12.992188 24.960938 C 12.398438 24.90625 11.289062 24.792969 9.824219 24.558594 Z M 9.824219 24.558594 "/>
<path style=" stroke:none;fill-rule:nonzero;fill:rgb(21.176471%,16.078432%,15.686275%);fill-opacity:1;" d="M 7.609375 9.132812 L 11.410156 10.566406 C 11.570312 10.625 11.601562 10.839844 11.460938 10.941406 C 10.570312 11.585938 8.007812 13.066406 7.320312 9.375 C 7.289062 9.210938 7.453125 9.074219 7.609375 9.132812 Z M 7.609375 9.132812 "/>
<path style=" stroke:none;fill-rule:nonzero;fill:rgb(21.176471%,16.078432%,15.686275%);fill-opacity:1;" d="M 17.390625 9.132812 L 13.589844 10.566406 C 13.429688 10.625 13.398438 10.839844 13.539062 10.941406 C 14.429688 11.585938 16.992188 13.066406 17.679688 9.375 C 17.710938 9.210938 17.546875 9.074219 17.390625 9.132812 Z M 17.390625 9.132812 "/>
<path style=" stroke:none;fill-rule:nonzero;fill:rgb(74.117649%,22.352941%,11.764706%);fill-opacity:1;" d="M 13.972656 17.308594 C 13.339844 18.359375 11.660156 18.359375 11.027344 17.308594 C 10.484375 16.410156 9.523438 15.84375 9.886719 15.132812 C 9.914062 15.082031 9.984375 15.082031 10.015625 15.132812 C 9.992188 15.089844 9.976562 15.046875 9.96875 15.003906 C 10.023438 14.925781 10.09375 14.847656 10.183594 14.769531 C 11.167969 13.871094 11.191406 13.46875 11.191406 13.46875 L 13.808594 13.46875 C 13.808594 13.46875 13.832031 13.871094 14.816406 14.769531 C 14.90625 14.847656 14.976562 14.925781 15.03125 15.003906 C 15.023438 15.046875 15.007812 15.089844 14.984375 15.132812 C 15.015625 15.082031 15.085938 15.082031 15.113281 15.132812 C 15.476562 15.84375 14.515625 16.410156 13.972656 17.308594 Z M 13.972656 17.308594 "/>
<path style=" stroke:none;fill-rule:nonzero;fill:rgb(96.862745%,33.333334%,20.392157%);fill-opacity:1;" d="M 15.03125 15.003906 C 14.972656 15.359375 14.300781 15.628906 13.886719 16.234375 C 13.289062 17.109375 11.710938 17.109375 11.113281 16.234375 C 10.699219 15.628906 10.027344 15.359375 9.96875 15.003906 C 9.941406 14.847656 10.03125 14.671875 10.316406 14.441406 C 11.246094 13.691406 11.265625 13.023438 11.265625 13.023438 L 13.734375 13.023438 C 13.734375 13.023438 13.753906 13.691406 14.683594 14.441406 C 14.96875 14.671875 15.058594 14.847656 15.03125 15.003906 Z M 15.03125 15.003906 "/>
<path style=" stroke:none;fill-rule:nonzero;fill:rgb(96.862745%,92.941177%,89.019608%);fill-opacity:1;" d="M 8.289062 5.800781 C 8.289062 5.800781 8.289062 5.800781 8.289062 5.804688 C 8.226562 6.21875 8.015625 6.613281 7.640625 6.90625 C 6.851562 7.511719 5.941406 7.109375 5.941406 7.109375 C 2.636719 5.132812 2.390625 1.734375 2.46875 0.203125 C 2.472656 0.117188 2.523438 0.0546875 2.585938 0.0234375 C 2.683594 -0.0234375 2.8125 0 2.875 0.117188 C 4.082031 2.453125 5.804688 3.425781 7.066406 3.832031 C 7.957031 4.121094 8.40625 4.992188 8.289062 5.800781 Z M 8.289062 5.800781 "/>
<path style=" stroke:none;fill-rule:nonzero;fill:rgb(85.882354%,82.352942%,79.215688%);fill-opacity:1;" d="M 8.289062 5.800781 C 8.289062 5.800781 8.289062 5.800781 8.289062 5.804688 C 8.226562 6.21875 8.015625 6.613281 7.640625 6.90625 C 6.851562 7.511719 5.941406 7.109375 5.941406 7.109375 C 2.636719 5.132812 2.390625 1.734375 2.46875 0.203125 C 2.472656 0.117188 2.523438 0.0546875 2.585938 0.0234375 C 2.746094 1.660156 3.589844 4.28125 6.261719 6.132812 C 6.261719 6.132812 7.175781 6.738281 7.960938 6.128906 C 8.089844 6.03125 8.199219 5.917969 8.289062 5.800781 Z M 8.289062 5.800781 "/>
<path style=" stroke:none;fill-rule:nonzero;fill:rgb(96.862745%,92.941177%,89.019608%);fill-opacity:1;" d="M 19.058594 7.109375 C 19.058594 7.109375 19.019531 7.128906 18.945312 7.152344 C 18.945312 7.152344 18.945312 7.152344 18.941406 7.152344 C 18.671875 7.238281 17.976562 7.378906 17.359375 6.90625 C 16.242188 6.042969 16.589844 4.265625 17.933594 3.832031 C 19.195312 3.425781 20.917969 2.453125 22.125 0.117188 C 22.15625 0.0585938 22.207031 0.0234375 22.257812 0.0078125 C 22.378906 -0.0273438 22.523438 0.0507812 22.53125 0.203125 C 22.609375 1.734375 22.363281 5.132812 19.058594 7.109375 Z M 19.058594 7.109375 "/>
<path style=" stroke:none;fill-rule:nonzero;fill:rgb(85.882354%,82.352942%,79.215688%);fill-opacity:1;" d="M 22.257812 0.0078125 C 21.355469 2.628906 20.488281 3.527344 19 4.113281 C 17.6875 4.628906 17.378906 6.046875 18.492188 6.90625 C 18.640625 7.019531 18.792969 7.097656 18.945312 7.152344 C 18.945312 7.152344 18.945312 7.152344 18.941406 7.152344 C 18.671875 7.234375 17.976562 7.378906 17.359375 6.90625 C 16.242188 6.042969 16.589844 4.265625 17.933594 3.832031 C 19.195312 3.425781 20.917969 2.453125 22.125 0.117188 C 22.15625 0.0585938 22.207031 0.0234375 22.257812 0.0078125 Z M 22.257812 0.0078125 "/>
<path style=" stroke:none;fill-rule:nonzero;fill:rgb(96.862745%,92.941177%,89.019608%);fill-opacity:1;" d="M 9.960938 20.148438 C 9.960938 20.148438 9.777344 20.292969 9.488281 20.40625 C 9.480469 20.410156 9.472656 20.414062 9.464844 20.417969 C 9.007812 20.589844 8.304688 20.679688 7.65625 20.027344 C 7.65625 20.027344 7.195312 19.042969 8.375 16.746094 C 8.394531 16.707031 8.4375 16.6875 8.476562 16.6875 C 8.519531 16.691406 8.558594 16.714844 8.574219 16.761719 C 8.796875 17.472656 9.457031 19.492188 9.960938 20.148438 Z M 9.960938 20.148438 "/>
<path style=" stroke:none;fill-rule:nonzero;fill:rgb(85.882354%,82.352942%,79.215688%);fill-opacity:1;" d="M 9.488281 20.40625 C 9.480469 20.410156 9.472656 20.414062 9.464844 20.417969 C 9.007812 20.589844 8.304688 20.679688 7.65625 20.027344 C 7.65625 20.027344 7.195312 19.042969 8.375 16.746094 C 8.394531 16.707031 8.4375 16.6875 8.476562 16.6875 C 8.175781 19.488281 8.933594 20.003906 8.933594 20.003906 C 9.125 20.199219 9.3125 20.328125 9.488281 20.40625 Z M 9.488281 20.40625 "/>
<path style=" stroke:none;fill-rule:nonzero;fill:rgb(96.862745%,92.941177%,89.019608%);fill-opacity:1;" d="M 17.34375 20.027344 C 16.90625 20.464844 16.445312 20.570312 16.050781 20.535156 C 15.46875 20.488281 15.039062 20.148438 15.039062 20.148438 C 15.542969 19.492188 16.203125 17.472656 16.425781 16.761719 C 16.441406 16.710938 16.488281 16.6875 16.53125 16.6875 C 16.570312 16.691406 16.605469 16.710938 16.625 16.746094 C 17.804688 19.042969 17.34375 20.027344 17.34375 20.027344 Z M 17.34375 20.027344 "/>
<path style=" stroke:none;fill-rule:nonzero;fill:rgb(85.882354%,82.352942%,79.215688%);fill-opacity:1;" d="M 16.082031 20.53125 C 16.082031 20.53125 16.089844 20.535156 16.101562 20.539062 C 16.085938 20.539062 16.066406 20.539062 16.050781 20.535156 C 15.46875 20.488281 15.039062 20.148438 15.039062 20.148438 C 15.542969 19.492188 16.203125 17.472656 16.425781 16.761719 C 16.441406 16.710938 16.488281 16.6875 16.53125 16.6875 C 16.628906 17.300781 16.886719 19.375 16.082031 20.53125 Z M 16.082031 20.53125 "/>
<path style=" stroke:none;fill-rule:nonzero;fill:rgb(90.196079%,27.058825%,14.117648%);fill-opacity:1;" d="M 17.804688 21.328125 C 16.386719 21.695312 12.5 21.984375 12.5 21.984375 C 12.5 21.984375 8.613281 21.695312 7.195312 21.328125 C 5.777344 20.957031 6.378906 19.324219 7.195312 19.523438 C 7.195312 19.523438 10.6875 20.207031 12.5 20.207031 C 14.3125 20.207031 17.804688 19.523438 17.804688 19.523438 C 18.621094 19.324219 19.222656 20.957031 17.804688 21.328125 Z M 17.804688 21.328125 "/>
<path style=" stroke:none;fill-rule:nonzero;fill:rgb(65.098041%,19.607843%,10.196079%);fill-opacity:1;" d="M 7.550781 19.589844 C 7.328125 19.546875 7.195312 19.523438 7.195312 19.523438 C 6.378906 19.324219 5.777344 20.957031 7.195312 21.328125 C 7.304688 21.355469 7.421875 21.382812 7.554688 21.40625 C 7.195312 20.851562 7.273438 20.042969 7.550781 19.589844 Z M 7.550781 19.589844 "/>
</g>
</svg>
