<?xml version="1.0" encoding="UTF-8"?>
<svg xmlns="http://www.w3.org/2000/svg" xmlns:xlink="http://www.w3.org/1999/xlink" width="25px" height="25px" viewBox="0 0 25 25" version="1.1">
<g id="surface1">
<path style=" stroke:none;fill-rule:nonzero;fill:rgb(24.313726%,44.705883%,11.372549%);fill-opacity:1;" d="M 8.632812 20.71875 C 9.070312 16.058594 5.566406 15.480469 4.179688 16.492188 C 3.417969 17.046875 3.238281 18.105469 3.847656 17.550781 C 4.917969 16.566406 5.292969 17.289062 4.484375 17.808594 C 3.671875 18.332031 3.527344 19.300781 4.425781 18.632812 C 5.320312 17.96875 5.566406 18.402344 4.875 19.257812 C 4.453125 19.773438 4.902344 20.253906 5.683594 19.214844 C 6.335938 18.34375 7.90625 18.316406 7.53125 21.289062 C 7.378906 22.507812 8.542969 21.710938 8.632812 20.71875 Z M 14.148438 6.117188 C 13.746094 3.6875 13.367188 2.472656 10.9375 2.070312 C 8.507812 1.664062 6.480469 3.285156 6.480469 3.285156 C 6.480469 3.285156 6.886719 0.851562 8.101562 0.0429688 C 8.578125 -0.273438 8.910156 1.257812 9.316406 1.257812 C 9.722656 1.257812 10.128906 0.0429688 11.34375 0.0429688 C 11.746094 0.0429688 11.746094 1.257812 12.152344 1.257812 C 12.558594 1.257812 13.710938 0.859375 13.773438 1.257812 C 13.859375 1.820312 13.65625 2.460938 13.976562 2.71875 C 14.292969 2.980469 15.054688 2.617188 15.296875 3.058594 C 15.539062 3.5 14.871094 4.136719 14.929688 4.425781 C 14.988281 4.714844 15.429688 4.832031 15.296875 5.382812 C 15.160156 5.933594 14.84375 5.960938 14.816406 6.367188 C 14.785156 6.773438 15.429688 7.117188 15.296875 7.535156 C 15.164062 7.957031 14.84375 8.015625 14.699219 8.550781 C 14.554688 9.085938 15.074219 9 14.929688 9.550781 C 14.785156 10.097656 14.265625 10.238281 14.089844 10.777344 C 13.917969 11.3125 14.554688 11.429688 14.234375 11.949219 C 13.917969 12.472656 13.339844 12.558594 13.308594 12.875 C 13.28125 13.195312 13.457031 13.445312 13.339844 13.957031 C 13.222656 14.464844 12.558594 14.207031 12.5 14.613281 C 12.441406 15.015625 12.644531 15.21875 12.644531 15.710938 C 12.644531 16.203125 12.152344 16.289062 12.210938 16.78125 C 12.269531 17.273438 12.730469 16.898438 13.023438 17.476562 C 13.3125 18.054688 12.847656 18.574219 13.167969 18.921875 C 13.484375 19.269531 13.917969 18.460938 14.351562 18.75 C 14.785156 19.039062 14.824219 19.617188 15.296875 19.703125 C 15.769531 19.789062 15.914062 18.808594 16.261719 18.835938 C 16.609375 18.867188 17.390625 19.328125 17.796875 19.125 C 18.199219 18.921875 18.171875 18.113281 18.492188 17.765625 C 18.808594 17.417969 19.214844 17.738281 19.503906 17.359375 C 19.792969 16.984375 19.402344 16.542969 19.460938 15.996094 C 19.515625 15.445312 20.054688 15.132812 20.023438 14.699219 C 19.996094 14.265625 19.558594 14.265625 19.386719 13.800781 C 19.214844 13.339844 19.703125 12.933594 19.53125 12.5 C 19.359375 12.066406 18.605469 11.921875 18.632812 11.488281 C 18.664062 11.054688 18.953125 10.5625 18.808594 10.070312 C 18.664062 9.578125 18.054688 9.257812 18.085938 8.882812 C 18.113281 8.507812 18.429688 8.015625 18.488281 7.742188 C 18.546875 7.464844 17.96875 7.175781 18.027344 6.714844 C 18.085938 6.25 18.460938 6.28125 18.605469 5.863281 C 18.75 5.445312 18.085938 5.238281 18.433594 4.703125 C 18.777344 4.167969 18.953125 4.515625 19.242188 4.226562 C 19.53125 3.933594 19.242188 3.296875 19.53125 3.152344 C 19.820312 3.007812 20.398438 3.125 20.6875 2.921875 C 20.976562 2.722656 20.976562 2.429688 21.296875 2.316406 C 21.613281 2.199219 22.019531 2.691406 22.28125 2.691406 C 22.539062 2.691406 23.003906 2.199219 23.351562 2.316406 C 23.699219 2.429688 24.449219 3.242188 23.988281 3.488281 C 23.523438 3.734375 19.992188 3.90625 19.964844 5.527344 C 19.9375 7.148438 21.90625 14.496094 21.324219 16.347656 C 20.746094 18.199219 18.347656 22.136719 15.597656 21.382812 C 12.847656 20.632812 9.578125 18.953125 10.359375 16.378906 C 11.140625 13.800781 13.65625 8.535156 14.148438 6.117188 Z M 14.148438 6.117188 "/>
<path style=" stroke:none;fill-rule:nonzero;fill:rgb(46.666667%,69.803923%,33.333334%);fill-opacity:1;" d="M 14.582031 5.484375 C 14.582031 8.246094 12.929688 11.140625 10.53125 10.738281 C 6.835938 10.121094 6.640625 8.941406 6.078125 9.664062 C 4.050781 12.265625 2.851562 9.328125 2.390625 8.839844 C 2.273438 8.71875 0 8.046875 0 6.765625 C 0 5.933594 1.214844 5.085938 2.027344 5.910156 C 3.222656 5.882812 7.695312 1.636719 10.53125 1.636719 C 13.367188 1.636719 14.582031 3.773438 14.582031 5.484375 Z M 14.582031 5.484375 "/>
<path style=" stroke:none;fill-rule:nonzero;fill:rgb(16.078432%,18.431373%,20%);fill-opacity:1;" d="M 10.128906 4.902344 C 10.136719 5.199219 9.984375 5.476562 9.726562 5.625 C 9.472656 5.777344 9.15625 5.777344 8.902344 5.625 C 8.648438 5.476562 8.496094 5.199219 8.503906 4.902344 C 8.519531 4.464844 8.878906 4.117188 9.316406 4.117188 C 9.753906 4.117188 10.113281 4.464844 10.128906 4.902344 Z M 10.128906 4.902344 "/>
<path style=" stroke:none;fill-rule:nonzero;fill:rgb(24.313726%,44.705883%,11.372549%);fill-opacity:1;" d="M 2.027344 7.132812 C 2.027344 7.46875 1.753906 7.335938 1.417969 7.335938 C 1.082031 7.335938 0.808594 7.46875 0.808594 7.132812 C 0.808594 6.796875 1.082031 6.523438 1.417969 6.523438 C 1.753906 6.523438 2.027344 6.796875 2.027344 7.132812 Z M 2.027344 7.132812 "/>
<path style=" stroke:none;fill-rule:nonzero;fill:rgb(100%,100%,100%);fill-opacity:1;" d="M 7.695312 7.738281 C 7.695312 8.1875 7.425781 8.144531 7.089844 8.144531 C 6.753906 8.144531 6.480469 8.1875 6.480469 7.738281 C 6.480469 7.292969 6.753906 6.117188 7.089844 6.117188 C 7.425781 6.117188 7.695312 7.292969 7.695312 7.738281 Z M 6.078125 8.144531 C 6.078125 8.589844 5.804688 8.546875 5.46875 8.546875 C 5.132812 8.550781 4.859375 8.589844 4.859375 8.144531 C 4.859375 7.695312 5.132812 6.523438 5.46875 6.523438 C 5.804688 6.523438 6.078125 7.695312 6.078125 8.144531 Z M 6.078125 8.144531 "/>
<path style=" stroke:none;fill-rule:nonzero;fill:rgb(24.313726%,44.705883%,11.372549%);fill-opacity:1;" d="M 7.640625 7.746094 C 5.492188 8.050781 3.324219 8.59375 2.390625 8.839844 C 2.507812 8.964844 2.671875 9.242188 2.882812 9.550781 C 3.90625 9.285156 5.835938 8.820312 7.753906 8.546875 C 7.964844 8.503906 8.105469 8.304688 8.074219 8.089844 C 8.042969 7.878906 7.855469 7.726562 7.640625 7.746094 Z M 7.640625 7.746094 "/>
<path style=" stroke:none;fill-rule:nonzero;fill:rgb(46.666667%,69.803923%,33.333334%);fill-opacity:1;" d="M 14.546875 6.207031 C 14.546875 9.246094 13.355469 11.902344 12.5 13.964844 C 11.574219 16.195312 11.804688 20.214844 15.277344 20.214844 C 18.75 20.214844 19.800781 17.996094 20.140625 16.742188 C 21.082031 13.253906 18.75 11.183594 18.75 7.714844 C 18.75 1.464844 24.304688 2.851562 24.304688 3.546875 C 24.304688 4.242188 19.492188 4.5 22.222656 9.796875 C 24.953125 15.09375 25 25 15.277344 25 C 5.554688 25 5.554688 18.824219 6.945312 16.046875 C 7.929688 14.078125 9.722656 11.109375 7.292969 9.765625 C 5.707031 8.886719 14.546875 6.207031 14.546875 6.207031 Z M 14.546875 6.207031 "/>
<path style=" stroke:none;fill-rule:nonzero;fill:rgb(24.313726%,44.705883%,11.372549%);fill-opacity:1;" d="M 7.871094 5.398438 C 7.589844 5.398438 7.335938 5.226562 7.230469 4.96875 C 7.121094 4.707031 7.179688 4.410156 7.378906 4.210938 C 7.4375 4.152344 8.824219 2.792969 11.113281 2.792969 C 11.496094 2.792969 11.808594 3.101562 11.808594 3.488281 C 11.808594 3.871094 11.496094 4.179688 11.113281 4.179688 C 9.421875 4.179688 8.371094 5.183594 8.363281 5.191406 C 8.234375 5.324219 8.054688 5.398438 7.871094 5.398438 Z M 7.871094 5.398438 "/>
<path style=" stroke:none;fill-rule:nonzero;fill:rgb(36.078432%,56.862748%,23.137255%);fill-opacity:1;" d="M 7.4375 17.59375 C 7.871094 12.933594 3.675781 12.355469 2.285156 13.367188 C 1.523438 13.921875 1.347656 14.980469 1.953125 14.425781 C 3.023438 13.441406 3.398438 14.164062 2.589844 14.683594 C 1.777344 15.207031 1.632812 16.175781 2.53125 15.507812 C 3.429688 14.84375 3.675781 15.277344 2.980469 16.132812 C 2.558594 16.648438 3.007812 17.128906 3.789062 16.089844 C 4.441406 15.21875 6.707031 15.191406 6.335938 18.164062 C 6.179688 19.382812 7.34375 18.585938 7.4375 17.59375 Z M 7.4375 17.59375 "/>
</g>
</svg>
