<?xml version="1.0" encoding="UTF-8"?>
<svg xmlns="http://www.w3.org/2000/svg" xmlns:xlink="http://www.w3.org/1999/xlink" width="25px" height="25px" viewBox="0 0 25 25" version="1.1">
<g id="surface1">
<path style=" stroke:none;fill-rule:nonzero;fill:rgb(0%,0%,0%);fill-opacity:1;" d="M 11.117188 1.21875 L 8.289062 4.050781 L 8.953125 7.375 L 16.046875 7.375 L 16.710938 4.050781 L 15.109375 2.445312 L 13.792969 3.125 L 14.589844 1.925781 L 13.882812 1.21875 Z M 9.523438 4.320312 L 11.71875 5.421875 L 11.523438 6.25 L 9.523438 6.25 Z M 15.476562 4.320312 L 15.476562 6.25 L 13.476562 6.25 L 13.28125 5.421875 L 14.84375 4.636719 Z M 7.519531 5.328125 L 6.445312 5.863281 L 6.960938 6.699219 L 5.785156 6.191406 L 3.5625 7.304688 L 3.5625 8.085938 L 8.046875 7.445312 Z M 17.480469 5.328125 L 16.953125 7.445312 L 21.4375 8.085938 L 21.4375 7.304688 Z M 10.039062 8.261719 L 6.949219 8.492188 L 6.625 8.539062 L 6.175781 11.582031 L 8.628906 12.808594 L 10.800781 12.085938 L 11.074219 12.914062 L 8.558594 13.753906 L 6.390625 12.671875 L 7.386719 16.796875 L 12.0625 17.460938 L 12.0625 9.609375 Z M 14.960938 8.261719 L 12.9375 9.609375 L 12.9375 17.460938 L 17.613281 16.796875 L 18.609375 12.671875 L 17.445312 13.25 L 16.488281 15.136719 L 15.570312 13.46875 L 13.925781 12.914062 L 14.199219 12.085938 L 16.371094 12.808594 L 18.824219 11.582031 L 18.375 8.539062 L 18.050781 8.492188 Z M 5.703125 8.671875 L 2.707031 9.097656 L 1.242188 11.054688 L 1.417969 12.300781 L 2.660156 12.808594 L 1.617188 13.671875 L 1.929688 15.882812 L 5.03125 15.269531 L 5.03125 12.464844 Z M 19.296875 8.671875 L 19.96875 12.460938 L 19.96875 15.261719 L 22.507812 15.769531 L 23.179688 15.101562 L 23.757812 11.054688 L 22.289062 9.097656 L 20.921875 8.902344 L 20.71875 9.773438 L 20.234375 8.804688 Z M 5.082031 16.152344 L 2.089844 16.75 L 3.457031 22.898438 L 5.773438 22.324219 Z M 19.917969 16.152344 L 19.226562 22.324219 L 20.332031 22.597656 L 20.71875 21.339844 L 21.585938 22.710938 L 22.910156 16.75 Z M 7.417969 17.6875 L 6.742188 23.78125 L 10.664062 23.78125 L 12.5 20.113281 L 14.335938 23.78125 L 15.839844 23.78125 L 16.40625 22.65625 L 16.96875 23.78125 L 18.257812 23.78125 L 17.582031 17.6875 L 12.5 18.414062 L 10.453125 18.121094 L 10.15625 19.800781 L 9.410156 17.96875 Z M 7.417969 17.6875 "/>
</g>
</svg>
