<?xml version="1.0" encoding="UTF-8"?>
<svg xmlns="http://www.w3.org/2000/svg" xmlns:xlink="http://www.w3.org/1999/xlink" width="25px" height="25px" viewBox="0 0 25 25" version="1.1">
<g id="surface1">
<path style=" stroke:none;fill-rule:nonzero;fill:rgb(56.078434%,72.156864%,29.019609%);fill-opacity:1;" d="M 9.636719 20.347656 L 21.695312 20.347656 C 22.835938 20.347656 23.761719 21.273438 23.761719 22.417969 C 23.761719 22.988281 23.53125 23.503906 23.15625 23.878906 C 22.78125 24.25 22.265625 24.484375 21.695312 24.484375 L 3.304688 24.484375 C 2.164062 24.484375 1.238281 23.558594 1.238281 22.417969 C 1.238281 21.84375 1.46875 21.328125 1.84375 20.953125 C 2.21875 20.582031 2.734375 20.347656 3.304688 20.347656 Z M 9.636719 20.347656 "/>
<path style=" stroke:none;fill-rule:nonzero;fill:rgb(56.078434%,72.156864%,29.019609%);fill-opacity:1;" d="M 10.960938 16.214844 L 20.351562 16.214844 C 21.492188 16.214844 22.417969 17.140625 22.417969 18.28125 C 22.417969 18.851562 22.1875 19.371094 21.8125 19.742188 C 21.4375 20.117188 20.921875 20.347656 20.351562 20.347656 L 4.648438 20.347656 C 3.507812 20.347656 2.582031 19.421875 2.582031 18.28125 C 2.582031 17.710938 2.8125 17.195312 3.1875 16.820312 C 3.5625 16.445312 4.078125 16.214844 4.648438 16.214844 Z M 10.960938 16.214844 "/>
<path style=" stroke:none;fill-rule:nonzero;fill:rgb(56.078434%,72.156864%,29.019609%);fill-opacity:1;" d="M 9.636719 12.082031 L 19.023438 12.082031 C 20.167969 12.082031 21.089844 13.007812 21.089844 14.148438 C 21.089844 14.71875 20.859375 15.234375 20.484375 15.609375 C 20.113281 15.984375 19.597656 16.214844 19.023438 16.214844 L 5.976562 16.214844 C 4.832031 16.214844 3.910156 15.289062 3.910156 14.148438 C 3.910156 13.578125 4.140625 13.058594 4.515625 12.6875 C 4.886719 12.3125 5.402344 12.082031 5.976562 12.082031 Z M 9.636719 12.082031 "/>
<path style=" stroke:none;fill-rule:nonzero;fill:rgb(56.078434%,72.156864%,29.019609%);fill-opacity:1;" d="M 18.949219 1.207031 L 18.949219 4.652344 L 12.683594 4.652344 L 12.683594 12.082031 L 8.546875 12.082031 L 8.546875 4.648438 C 8.546875 2.367188 10.398438 0.515625 12.679688 0.515625 L 18.257812 0.515625 C 18.640625 0.515625 18.949219 0.824219 18.949219 1.207031 Z M 18.949219 1.207031 "/>
<path style=" stroke:none;fill-rule:nonzero;fill:rgb(0%,0%,0%);fill-opacity:1;" d="M 10.621094 1.582031 C 10.707031 1.582031 10.796875 1.5625 10.878906 1.515625 C 10.914062 1.492188 10.949219 1.472656 10.984375 1.457031 C 11.234375 1.320312 11.332031 1.007812 11.195312 0.757812 C 11.0625 0.503906 10.75 0.410156 10.496094 0.542969 C 10.453125 0.566406 10.40625 0.59375 10.363281 0.617188 C 10.113281 0.761719 10.03125 1.078125 10.171875 1.324219 C 10.269531 1.492188 10.441406 1.582031 10.621094 1.582031 Z M 10.621094 1.582031 "/>
<path style=" stroke:none;fill-rule:nonzero;fill:rgb(0%,0%,0%);fill-opacity:1;" d="M 0.722656 22.417969 C 0.722656 23.839844 1.878906 25 3.304688 25 L 21.695312 25 C 22.386719 25 23.035156 24.730469 23.523438 24.242188 C 24.011719 23.753906 24.277344 23.105469 24.277344 22.417969 C 24.277344 21.21875 23.460938 20.207031 22.351562 19.917969 C 22.730469 19.457031 22.933594 18.886719 22.933594 18.28125 C 22.933594 17.089844 22.121094 16.082031 21.023438 15.785156 C 21.402344 15.328125 21.609375 14.753906 21.609375 14.148438 C 21.609375 12.722656 20.449219 11.5625 19.023438 11.5625 L 13.199219 11.5625 L 13.199219 5.167969 L 18.921875 5.167969 C 18.933594 5.167969 18.941406 5.167969 18.949219 5.167969 L 20.953125 5.167969 C 21.238281 5.167969 21.46875 4.9375 21.46875 4.652344 C 21.46875 4.367188 21.238281 4.136719 20.953125 4.136719 L 19.464844 4.136719 L 19.464844 1.207031 C 19.464844 0.542969 18.921875 0 18.257812 0 L 12.679688 0 C 12.394531 0 12.164062 0.230469 12.164062 0.515625 C 12.164062 0.800781 12.394531 1.03125 12.679688 1.03125 L 18.257812 1.03125 C 18.351562 1.03125 18.429688 1.113281 18.429688 1.207031 L 18.429688 4.132812 L 12.683594 4.132812 C 12.398438 4.132812 12.167969 4.367188 12.167969 4.652344 L 12.167969 11.5625 L 9.066406 11.5625 L 9.066406 10.34375 L 10.085938 10.34375 C 10.371094 10.34375 10.601562 10.113281 10.601562 9.828125 C 10.601562 9.542969 10.371094 9.3125 10.085938 9.3125 L 9.066406 9.3125 L 9.066406 7.875 L 10.085938 7.875 C 10.371094 7.875 10.601562 7.644531 10.601562 7.359375 C 10.601562 7.074219 10.371094 6.84375 10.085938 6.84375 L 9.066406 6.84375 L 9.066406 5.40625 L 10.085938 5.40625 C 10.371094 5.40625 10.601562 5.175781 10.601562 4.890625 C 10.601562 4.605469 10.371094 4.375 10.085938 4.375 L 9.074219 4.375 C 9.125 3.71875 9.347656 3.09375 9.734375 2.554688 C 9.898438 2.324219 9.84375 2 9.613281 1.835938 C 9.378906 1.667969 9.058594 1.722656 8.890625 1.957031 C 8.328125 2.746094 8.03125 3.675781 8.03125 4.648438 L 8.03125 11.5625 L 5.976562 11.5625 C 5.285156 11.5625 4.636719 11.832031 4.148438 12.320312 C 3.660156 12.808594 3.390625 13.457031 3.390625 14.148438 C 3.390625 14.769531 3.613281 15.339844 3.980469 15.785156 C 3.546875 15.902344 3.148438 16.128906 2.820312 16.453125 C 2.332031 16.941406 2.066406 17.59375 2.066406 18.28125 C 2.066406 18.902344 2.285156 19.472656 2.648438 19.917969 C 2.210938 20.03125 1.808594 20.261719 1.476562 20.589844 C 0.988281 21.078125 0.722656 21.726562 0.722656 22.417969 Z M 4.878906 13.050781 C 5.171875 12.757812 5.5625 12.597656 5.976562 12.597656 L 6.253906 12.597656 L 6.253906 13.484375 C 6.253906 13.769531 6.488281 14.003906 6.773438 14.003906 C 7.058594 14.003906 7.289062 13.769531 7.289062 13.484375 L 7.289062 12.597656 L 9.121094 12.597656 L 9.121094 13.484375 C 9.121094 13.769531 9.351562 14.003906 9.636719 14.003906 C 9.921875 14.003906 10.152344 13.769531 10.152344 13.484375 L 10.152344 12.597656 L 11.984375 12.597656 L 11.984375 13.484375 C 11.984375 13.769531 12.214844 14.003906 12.5 14.003906 C 12.785156 14.003906 13.015625 13.769531 13.015625 13.484375 L 13.015625 12.597656 L 14.847656 12.597656 L 14.847656 13.484375 C 14.847656 13.769531 15.078125 14.003906 15.363281 14.003906 C 15.648438 14.003906 15.878906 13.769531 15.878906 13.484375 L 15.878906 12.597656 L 17.710938 12.597656 L 17.710938 13.484375 C 17.710938 13.769531 17.941406 14.003906 18.226562 14.003906 C 18.511719 14.003906 18.746094 13.769531 18.746094 13.484375 L 18.746094 12.597656 L 19.023438 12.597656 C 19.878906 12.597656 20.574219 13.292969 20.574219 14.148438 C 20.574219 14.5625 20.414062 14.953125 20.121094 15.242188 C 19.828125 15.535156 19.4375 15.699219 19.023438 15.699219 L 5.976562 15.699219 C 5.121094 15.699219 4.425781 15.003906 4.425781 14.148438 C 4.425781 13.734375 4.585938 13.34375 4.878906 13.050781 Z M 3.550781 17.1875 C 3.84375 16.894531 4.234375 16.730469 4.648438 16.730469 L 4.71875 16.730469 L 4.71875 17.621094 C 4.71875 17.90625 4.949219 18.136719 5.234375 18.136719 C 5.519531 18.136719 5.75 17.90625 5.75 17.621094 L 5.75 16.730469 L 7.582031 16.730469 L 7.582031 17.621094 C 7.582031 17.90625 7.8125 18.136719 8.097656 18.136719 C 8.382812 18.136719 8.613281 17.90625 8.613281 17.621094 L 8.613281 16.730469 L 10.445312 16.730469 L 10.445312 17.621094 C 10.445312 17.90625 10.675781 18.136719 10.960938 18.136719 C 11.246094 18.136719 11.480469 17.90625 11.480469 17.621094 L 11.480469 16.730469 L 13.308594 16.730469 L 13.308594 17.621094 C 13.308594 17.90625 13.542969 18.136719 13.828125 18.136719 C 14.113281 18.136719 14.34375 17.90625 14.34375 17.621094 L 14.34375 16.730469 L 16.171875 16.730469 L 16.171875 17.621094 C 16.171875 17.90625 16.40625 18.136719 16.691406 18.136719 C 16.976562 18.136719 17.207031 17.90625 17.207031 17.621094 L 17.207031 16.730469 L 19.039062 16.730469 L 19.039062 17.621094 C 19.039062 17.90625 19.269531 18.136719 19.554688 18.136719 C 19.839844 18.136719 20.070312 17.90625 20.070312 17.621094 L 20.070312 16.730469 L 20.351562 16.730469 C 21.207031 16.730469 21.902344 17.425781 21.902344 18.28125 C 21.902344 18.695312 21.738281 19.085938 21.445312 19.378906 C 21.15625 19.671875 20.765625 19.832031 20.351562 19.832031 L 4.648438 19.832031 C 3.792969 19.832031 3.097656 19.136719 3.097656 18.28125 C 3.097656 17.867188 3.257812 17.476562 3.550781 17.1875 Z M 2.207031 21.320312 C 2.5 21.027344 2.890625 20.867188 3.304688 20.867188 L 3.390625 20.867188 L 3.390625 21.753906 C 3.390625 22.039062 3.621094 22.269531 3.910156 22.269531 C 4.195312 22.269531 4.425781 22.039062 4.425781 21.753906 L 4.425781 20.867188 L 6.253906 20.867188 L 6.253906 21.753906 C 6.253906 22.039062 6.488281 22.269531 6.773438 22.269531 C 7.058594 22.269531 7.289062 22.039062 7.289062 21.753906 L 7.289062 20.867188 L 9.121094 20.867188 L 9.121094 21.753906 C 9.121094 22.039062 9.351562 22.269531 9.636719 22.269531 C 9.921875 22.269531 10.152344 22.039062 10.152344 21.753906 L 10.152344 20.867188 L 11.984375 20.867188 L 11.984375 21.753906 C 11.984375 22.039062 12.214844 22.269531 12.5 22.269531 C 12.785156 22.269531 13.015625 22.039062 13.015625 21.753906 L 13.015625 20.867188 L 14.847656 20.867188 L 14.847656 21.753906 C 14.847656 22.039062 15.078125 22.269531 15.363281 22.269531 C 15.648438 22.269531 15.878906 22.039062 15.878906 21.753906 L 15.878906 20.867188 L 17.710938 20.867188 L 17.710938 21.753906 C 17.710938 22.039062 17.941406 22.269531 18.226562 22.269531 C 18.511719 22.269531 18.746094 22.039062 18.746094 21.753906 L 18.746094 20.867188 L 20.574219 20.867188 L 20.574219 21.753906 C 20.574219 22.039062 20.804688 22.269531 21.089844 22.269531 C 21.375 22.269531 21.609375 22.039062 21.609375 21.753906 L 21.609375 20.867188 L 21.695312 20.867188 C 22.550781 20.867188 23.246094 21.5625 23.246094 22.417969 C 23.246094 22.832031 23.085938 23.21875 22.792969 23.511719 C 22.5 23.804688 22.109375 23.96875 21.695312 23.96875 L 3.304688 23.96875 C 2.449219 23.96875 1.753906 23.269531 1.753906 22.417969 C 1.753906 22.003906 1.914062 21.613281 2.207031 21.320312 Z M 2.207031 21.320312 "/>
<path style=" stroke:none;fill-rule:nonzero;fill:rgb(0%,0%,0%);fill-opacity:1;" d="M 15.304688 2.882812 C 15.589844 2.882812 15.820312 2.652344 15.820312 2.367188 C 15.820312 2.082031 15.589844 1.847656 15.304688 1.847656 L 14.777344 1.847656 C 14.492188 1.847656 14.257812 2.082031 14.257812 2.367188 C 14.257812 2.652344 14.492188 2.882812 14.777344 2.882812 Z M 15.304688 2.882812 "/>
</g>
</svg>
