<?xml version="1.0" encoding="UTF-8"?>
<svg xmlns="http://www.w3.org/2000/svg" xmlns:xlink="http://www.w3.org/1999/xlink" width="25px" height="25px" viewBox="0 0 25 25" version="1.1">
<g id="surface1">
<path style=" stroke:none;fill-rule:nonzero;fill:rgb(0%,0%,0%);fill-opacity:1;" d="M 12.550781 18.015625 C 12.550781 18.015625 12.667969 18.714844 13.796875 19.539062 C 13.796875 19.539062 14.058594 22.023438 15.175781 22.046875 C 15.175781 22.046875 15.46875 22.035156 15.433594 21.777344 C 15.402344 21.558594 15.335938 21.234375 15.554688 21.136719 C 15.851562 21.007812 16.378906 21.125 16.390625 21.628906 C 16.402344 22.132812 16.390625 22.835938 15.382812 23.019531 C 15.382812 23.019531 14.488281 23.140625 14.03125 22.503906 C 13.578125 21.863281 12.722656 19.835938 12.550781 19.515625 C 12.378906 19.835938 11.527344 21.863281 11.070312 22.503906 C 10.617188 23.140625 9.71875 23.019531 9.71875 23.019531 C 8.710938 22.835938 8.699219 22.132812 8.710938 21.628906 C 8.722656 21.125 9.25 21.007812 9.546875 21.136719 C 9.769531 21.234375 9.703125 21.558594 9.671875 21.777344 C 9.632812 22.035156 9.929688 22.046875 9.929688 22.046875 C 11.046875 22.023438 11.304688 19.539062 11.304688 19.539062 C 12.4375 18.714844 12.550781 18.015625 12.550781 18.015625 Z M 14.316406 4.257812 L 14.296875 3.535156 C 13.398438 2.527344 12.550781 1.972656 12.550781 1.972656 C 12.550781 1.972656 8.726562 4.464844 8.726562 8.488281 C 8.726562 11.492188 10.085938 12.628906 10.085938 12.628906 C 10.085938 12.628906 10.371094 13.195312 9.664062 13.589844 C 9.664062 13.589844 9.773438 14.46875 10.230469 15.007812 C 10.230469 15.007812 10.003906 15.375 9.464844 15.320312 C 8.925781 15.261719 7.394531 14.894531 7.535156 13.164062 C 7.679688 11.4375 8.160156 10.445312 7.988281 9.085938 C 7.820312 7.726562 7.054688 6.335938 5.835938 6.394531 C 4.617188 6.449219 3.824219 7.375 3.796875 8.179688 C 3.769531 9.027344 4.390625 9.679688 5.042969 9.679688 C 5.695312 9.679688 5.863281 9.339844 5.835938 9.140625 C 5.808594 8.941406 5.75 8.773438 5.355469 8.746094 C 4.957031 8.714844 4.789062 8.574219 4.789062 8.261719 C 4.789062 7.953125 4.984375 7.554688 5.695312 7.582031 C 6.402344 7.609375 6.855469 8.914062 6.769531 9.539062 C 6.6875 10.160156 6.0625 12.398438 6.175781 13.195312 C 6.289062 13.988281 6.488281 15.800781 8.925781 16.453125 C 8.925781 16.453125 10.199219 16.765625 10.683594 16.226562 C 10.683594 16.226562 10.484375 16.792969 10.796875 17.273438 C 10.796875 17.273438 10.972656 18.292969 9.71875 18.746094 C 8.785156 19.085938 7.195312 19.199219 7.027344 18.292969 C 7.027344 18.292969 6.945312 17.398438 7.535156 17.5 C 8.019531 17.585938 8.132812 17.984375 7.960938 18.378906 C 7.960938 18.378906 8.472656 18.890625 9.011719 18.40625 C 9.011719 18.40625 9.328125 16.613281 7.453125 16.539062 C 6.035156 16.480469 5.949219 17.953125 5.949219 18.210938 C 5.949219 18.464844 5.921875 19.824219 8.359375 20.023438 C 10.796875 20.222656 11.925781 18.40625 12.550781 17.273438 C 13.171875 18.40625 14.304688 20.222656 16.742188 20.023438 C 19.175781 19.824219 19.148438 18.464844 19.148438 18.210938 C 19.148438 17.953125 19.0625 16.480469 17.648438 16.539062 C 15.769531 16.613281 16.089844 18.40625 16.089844 18.40625 C 16.628906 18.890625 17.136719 18.378906 17.136719 18.378906 C 16.96875 17.984375 17.082031 17.585938 17.5625 17.5 C 18.15625 17.394531 18.074219 18.292969 18.074219 18.292969 C 17.902344 19.203125 16.316406 19.085938 15.378906 18.746094 C 14.125 18.292969 14.304688 17.273438 14.304688 17.273438 C 14.617188 16.792969 14.417969 16.226562 14.417969 16.226562 C 14.898438 16.765625 16.175781 16.453125 16.175781 16.453125 C 18.609375 15.800781 18.808594 13.988281 18.921875 13.195312 C 19.035156 12.402344 18.414062 10.160156 18.328125 9.539062 C 18.242188 8.914062 18.695312 7.613281 19.40625 7.582031 C 20.113281 7.554688 20.3125 7.953125 20.3125 8.261719 C 20.3125 8.574219 20.140625 8.714844 19.746094 8.746094 C 19.347656 8.773438 19.289062 8.945312 19.261719 9.140625 C 19.234375 9.339844 19.402344 9.679688 20.054688 9.679688 C 20.707031 9.679688 21.332031 9.027344 21.304688 8.179688 C 21.277344 7.378906 20.480469 6.449219 19.261719 6.394531 C 18.042969 6.335938 17.277344 7.726562 17.109375 9.085938 C 16.9375 10.445312 17.421875 11.4375 17.5625 13.164062 C 17.703125 14.894531 16.171875 15.261719 15.636719 15.320312 C 15.097656 15.375 14.871094 15.007812 14.871094 15.007812 C 15.324219 14.46875 15.4375 13.589844 15.4375 13.589844 C 14.726562 13.195312 15.011719 12.628906 15.011719 12.628906 C 15.011719 12.628906 16.371094 11.492188 16.371094 8.488281 C 16.371094 6.789062 15.691406 5.363281 14.902344 4.28125 Z M 11.90625 14.425781 L 11.539062 15.015625 C 11.539062 15.015625 10.582031 14.453125 10.628906 13.984375 C 10.679688 13.515625 10.828125 13.542969 10.898438 13.542969 C 10.972656 13.542969 11.90625 14.425781 11.90625 14.425781 Z M 14.289062 13.542969 C 14.363281 13.542969 14.511719 13.515625 14.5625 13.984375 C 14.609375 14.453125 13.652344 15.015625 13.652344 15.015625 L 13.28125 14.425781 C 13.28125 14.425781 14.214844 13.542969 14.289062 13.542969 Z M 3.832031 17.792969 C 3.757812 16.933594 5.074219 15.925781 5.234375 15.777344 C 5.394531 15.632812 5.335938 15.472656 5.257812 15.335938 C 5.171875 15.1875 4.914062 15.140625 4.667969 15.1875 C 4.386719 15.246094 2.703125 16.148438 2.835938 17.96875 C 2.972656 19.785156 4.53125 20.804688 5.886719 20.78125 C 7.238281 20.757812 7.519531 20.339844 7.519531 20.339844 C 7.125 20.253906 6.375 19.761719 6.375 19.761719 C 4.753906 19.835938 3.90625 18.65625 3.832031 17.792969 Z M 21.167969 17.792969 C 21.242188 16.933594 19.925781 15.925781 19.765625 15.777344 C 19.605469 15.632812 19.664062 15.472656 19.742188 15.335938 C 19.828125 15.1875 20.085938 15.140625 20.332031 15.1875 C 20.613281 15.246094 22.296875 16.148438 22.164062 17.96875 C 22.027344 19.785156 20.46875 20.804688 19.113281 20.78125 C 17.761719 20.757812 17.339844 20.425781 17.339844 20.425781 C 17.734375 20.339844 18.617188 19.882812 18.617188 19.882812 C 20.242188 19.957031 21.09375 18.65625 21.167969 17.792969 Z M 21.167969 17.792969 "/>
</g>
</svg>
