<?xml version="1.0" encoding="UTF-8"?>
<svg xmlns="http://www.w3.org/2000/svg" xmlns:xlink="http://www.w3.org/1999/xlink" width="25px" height="25px" viewBox="0 0 25 25" version="1.1">
<g id="surface1">
<path style=" stroke:none;fill-rule:nonzero;fill:rgb(93.333334%,13.333334%,14.117648%);fill-opacity:1;" d="M 4.320312 15.664062 C 4.027344 15.332031 3.871094 14.800781 3.824219 14.191406 L 3.867188 13.78125 L 4.148438 14.054688 C 4.488281 14.386719 4.546875 14.445312 4.554688 14.9375 C 4.558594 15.164062 4.574219 15.457031 4.601562 15.554688 C 4.628906 15.652344 4.644531 15.882812 4.636719 15.894531 C 4.625 15.90625 4.40625 15.757812 4.320312 15.660156 Z M 3.90625 18.449219 C 3.726562 18.34375 3.242188 18.023438 3.105469 17.886719 C 2.847656 17.640625 2.46875 17.058594 2.425781 16.886719 C 2.402344 16.796875 2.429688 16.746094 2.640625 16.734375 C 2.921875 16.71875 2.949219 16.824219 2.742188 16.605469 C 2.527344 16.382812 2.023438 15.441406 2.097656 15.441406 C 2.109375 15.441406 2.371094 15.488281 2.519531 15.550781 C 2.777344 15.664062 2.742188 15.671875 2.742188 15.621094 C 2.742188 15.605469 2.691406 15.523438 2.59375 15.304688 C 2.488281 15.085938 2.40625 14.855469 2.34375 14.621094 C 2.277344 14.359375 2.195312 13.414062 2.226562 13.386719 C 2.25 13.359375 2.929688 14.054688 3.007812 14.203125 C 3.0625 14.300781 3.097656 14.5625 3.117188 14.753906 C 3.140625 14.929688 3.265625 15.269531 3.335938 15.5 C 3.503906 16.042969 3.394531 16.203125 3.207031 16.078125 C 3.035156 15.96875 3.070312 15.894531 3.070312 16.0625 C 3.070312 16.210938 3.183594 16.351562 3.488281 16.792969 C 3.585938 16.953125 3.65625 17.125 3.699219 17.308594 C 3.699219 17.320312 3.664062 17.320312 3.625 17.308594 C 3.410156 17.238281 3.566406 17.464844 3.96875 18.042969 C 4.085938 18.226562 4.191406 18.421875 4.285156 18.621094 C 4.285156 18.664062 4.21875 18.636719 3.898438 18.445312 Z M 5.523438 17.890625 C 5.21875 17.726562 4.792969 17.128906 4.632812 16.816406 C 4.5625 16.679688 4.515625 16.558594 4.527344 16.546875 C 4.539062 16.535156 4.621094 16.558594 4.710938 16.601562 C 4.800781 16.640625 4.910156 16.675781 4.960938 16.675781 C 5.125 16.675781 5.382812 16.773438 5.542969 17.054688 C 5.632812 17.214844 5.808594 17.480469 5.898438 17.605469 C 5.984375 17.730469 6.035156 17.996094 6.035156 18.007812 C 6.035156 18.0625 5.867188 18.015625 5.632812 17.914062 L 5.53125 17.890625 Z M 5.523438 17.890625 "/>
<path style=" stroke:none;fill-rule:nonzero;fill:rgb(77.254903%,6.27451%,7.058824%);fill-opacity:1;" d="M 4.535156 19.488281 C 3.492188 19.339844 2.328125 18.464844 1.589844 17.355469 C 1.378906 17.039062 1.03125 16.25 0.953125 16 C 0.886719 15.800781 0.867188 15.71875 1.121094 15.765625 C 1.230469 15.789062 1.324219 15.800781 1.335938 15.792969 C 1.34375 15.785156 1.230469 15.53125 1.085938 15.226562 C 0.839844 14.710938 0.695312 14.105469 0.730469 14.070312 C 0.738281 14.0625 0.859375 14.140625 1 14.242188 C 1.238281 14.417969 1.386719 14.570312 1.429688 14.53125 C 1.4375 14.519531 1.402344 14.386719 1.347656 14.238281 C 1.144531 13.675781 1.128906 13.578125 1.109375 13 C 1.09375 12.449219 1.289062 11.84375 1.359375 11.84375 C 1.375 11.84375 1.457031 11.957031 1.539062 12.097656 C 1.734375 12.425781 1.949219 12.761719 2.011719 12.761719 C 2.070312 12.761719 2.179688 12.457031 2.304688 12.070312 C 2.410156 11.738281 2.804688 11.109375 3.023438 10.773438 L 3.210938 10.5625 L 3.167969 10.828125 C 3.160156 11.003906 3.160156 11.355469 3.152344 11.394531 C 3.144531 11.429688 3.152344 11.652344 3.175781 11.847656 C 3.214844 12.289062 3.304688 12.390625 3.667969 12.761719 C 4.167969 13.265625 4.699219 13.515625 5.140625 13.46875 C 5.445312 13.433594 5.636719 13.320312 6.296875 13.054688 C 7.460938 12.585938 7.941406 12.457031 8.660156 12.425781 C 9.070312 12.40625 9.246094 12.449219 9.714844 12.488281 C 10.164062 12.53125 10.675781 12.628906 10.367188 12.789062 C 10.34375 12.804688 10.214844 13.015625 10.050781 13.230469 C 9.894531 13.429688 9.757812 13.636719 9.632812 13.855469 C 9.503906 14.113281 9.25 14.25 9.230469 14.042969 C 9.199219 13.742188 9.101562 13.941406 8.878906 14.527344 C 8.679688 15.039062 8.648438 15.464844 8.644531 16 C 8.644531 16.277344 8.566406 16.441406 8.5625 16.441406 C 8.558594 16.441406 8.472656 16.503906 8.375 16.460938 C 8.277344 16.421875 8.171875 16.394531 8.144531 16.40625 C 8.058594 16.4375 8.1875 16.527344 8.429688 17.039062 C 8.550781 17.300781 8.664062 17.613281 8.664062 17.652344 C 8.664062 17.6875 8.628906 17.726562 8.585938 17.742188 C 8.464844 17.769531 8.574219 17.941406 8.855469 18.441406 C 8.992188 18.683594 9.09375 18.886719 9.085938 18.898438 C 9.03125 18.949219 6.828125 19.355469 6.214844 19.433594 C 5.628906 19.503906 4.796875 19.53125 4.53125 19.496094 Z M 4.652344 18.785156 C 4.683594 18.753906 4.578125 18.605469 4.25 18.210938 C 3.882812 17.765625 3.769531 17.574219 3.769531 17.53125 C 3.769531 17.507812 3.925781 17.496094 4.003906 17.488281 C 4.125 17.480469 4.101562 17.519531 4.113281 17.433594 C 4.121094 17.355469 4.03125 17.363281 3.859375 17.191406 C 3.632812 16.964844 3.300781 16.324219 3.335938 16.289062 C 3.449219 16.269531 3.5625 16.273438 3.667969 16.304688 C 3.984375 16.410156 3.898438 16.488281 3.898438 16.335938 C 3.898438 16.238281 3.875 16.292969 3.792969 16.234375 C 3.554688 16.0625 3.269531 15.214844 3.230469 14.660156 L 3.226562 14.152344 L 3.542969 14.367188 C 3.699219 14.527344 3.757812 14.691406 3.835938 14.898438 C 3.898438 15.066406 3.972656 15.226562 4.0625 15.382812 C 4.277344 15.71875 4.71875 16.082031 4.90625 16.082031 C 5.042969 16.082031 5.019531 16.066406 4.890625 15.925781 C 4.730469 15.746094 4.636719 15.042969 4.695312 14.746094 L 4.769531 14.515625 L 5.015625 14.6875 C 5.136719 14.789062 5.214844 14.964844 5.277344 14.996094 C 5.5 15.105469 5.609375 15.085938 5.390625 14.972656 C 5.207031 14.875 5.03125 14.730469 4.882812 14.386719 C 4.683594 13.925781 4.78125 13.949219 4.714844 14.144531 C 4.636719 14.367188 4.390625 14.242188 4.140625 13.808594 C 4.074219 13.695312 4.03125 13.585938 3.992188 13.550781 C 3.925781 13.492188 3.914062 13.492188 3.871094 13.546875 C 3.84375 13.578125 3.835938 13.648438 3.789062 13.875 C 3.742188 14.105469 3.660156 14.414062 3.652344 14.425781 C 3.644531 14.433594 3.460938 14.277344 3.386719 14.160156 C 3.3125 14.039062 3.269531 13.949219 3.214844 13.902344 C 3.128906 13.820312 3.121094 13.855469 3.011719 13.902344 C 2.902344 13.949219 2.890625 13.945312 2.8125 13.855469 C 2.769531 13.804688 2.601562 13.570312 2.519531 13.417969 C 2.238281 12.90625 2.265625 12.882812 2.191406 13.390625 C 2.136719 13.761719 2.171875 14.460938 2.285156 14.914062 C 2.324219 15.074219 2.421875 15.363281 2.421875 15.382812 C 2.421875 15.402344 2.296875 15.328125 2.210938 15.261719 C 2.125 15.199219 2.03125 15.128906 1.992188 15.128906 C 1.929688 15.128906 1.921875 15.148438 1.941406 15.289062 C 1.953125 15.378906 2.082031 15.539062 2.195312 15.785156 C 2.457031 16.363281 2.515625 16.480469 2.421875 16.507812 C 2.160156 16.589844 2.460938 17.320312 3.015625 17.863281 C 3.246094 18.089844 3.628906 18.328125 3.878906 18.457031 C 4.199219 18.621094 4.597656 18.839844 4.667969 18.769531 Z M 6.40625 18.125 C 6.511719 18.113281 6.578125 18.085938 6.578125 18.054688 C 6.578125 18.027344 6.511719 18.027344 6.375 17.917969 C 6.25 17.820312 6.136719 17.714844 6.023438 17.605469 C 5.910156 17.488281 5.464844 16.730469 5.484375 16.707031 C 5.492188 16.699219 5.570312 16.71875 5.660156 16.753906 C 6.027344 16.902344 6.460938 17.058594 6.460938 16.910156 C 6.460938 16.839844 6.4375 16.882812 6.160156 16.835938 C 5.9375 16.796875 5.847656 16.777344 5.5625 16.523438 C 5.386719 16.371094 5.3125 16.367188 5.285156 16.515625 C 5.238281 16.746094 5 16.6875 4.574219 16.414062 C 4.257812 16.214844 4.324219 16.160156 4.351562 16.410156 C 4.398438 16.785156 4.734375 17.328125 5.148438 17.707031 C 5.402344 17.933594 5.59375 18.003906 5.925781 18.046875 C 6.277344 18.089844 6.210938 18.152344 6.402344 18.125 Z M 6.40625 18.125 "/>
<path style=" stroke:none;fill-rule:nonzero;fill:rgb(93.333334%,13.333334%,14.117648%);fill-opacity:1;" d="M 4.644531 13.363281 C 4.191406 13.214844 3.601562 12.753906 3.425781 12.394531 C 3.335938 12.203125 3.308594 12.09375 3.367188 11.933594 C 3.5 11.601562 3.667969 11.289062 3.863281 10.992188 C 4.164062 10.605469 4.484375 10.234375 4.828125 9.882812 C 4.960938 9.761719 5.140625 9.84375 5.117188 9.933594 C 5.023438 10.28125 4.910156 10.617188 4.96875 10.910156 C 5.074219 11.4375 5.335938 11.890625 5.6875 12.144531 C 5.949219 12.324219 6.246094 12.367188 6.804688 12.390625 L 7.519531 12.464844 L 6.59375 12.890625 C 6.277344 13.027344 5.957031 13.160156 5.632812 13.28125 C 5.316406 13.390625 4.855469 13.433594 4.648438 13.363281 Z M 4.644531 13.363281 "/>
<path style=" stroke:none;fill-rule:nonzero;fill:rgb(94.901961%,40.392157%,13.333334%);fill-opacity:1;" d="M 4.121094 9.191406 C 3.96875 9.027344 3.820312 8.601562 3.765625 8.378906 L 3.707031 8.125 C 3.722656 7.972656 4.265625 8.378906 4.335938 8.730469 C 4.363281 8.882812 4.425781 9.03125 4.414062 9.160156 L 4.328125 9.378906 L 4.117188 9.191406 Z M 5.601562 11.171875 C 5.527344 11.085938 5.488281 10.820312 5.558594 10.660156 C 5.621094 10.503906 6.070312 10.0625 6.105469 10.101562 C 6.144531 10.136719 6.003906 11.085938 5.949219 11.148438 C 5.898438 11.21875 5.675781 11.25 5.605469 11.171875 Z M 10.488281 18.816406 C 10.355469 18.699219 10.242188 18.566406 10.144531 18.417969 C 9.992188 18.152344 9.867188 17.511719 9.839844 17.238281 L 9.816406 17.019531 L 9.90625 17.0625 C 10.066406 17.148438 10.460938 17.445312 10.539062 17.574219 C 10.582031 17.640625 10.636719 17.820312 10.65625 17.964844 C 10.675781 18.109375 10.6875 18.394531 10.734375 18.5625 L 10.859375 18.992188 C 10.855469 18.996094 10.605469 18.914062 10.488281 18.808594 Z M 13.480469 17.199219 C 12.859375 16.574219 12.730469 16.476562 12.6875 16.046875 C 12.667969 15.855469 12.652344 15.484375 12.628906 15.34375 C 12.585938 15.097656 12.589844 15.070312 12.679688 14.855469 C 12.945312 14.230469 12.789062 13.257812 12.464844 12.835938 C 12.410156 12.765625 12.382812 12.707031 12.398438 12.707031 C 12.488281 12.707031 13.105469 13.0625 13.355469 13.324219 C 13.835938 13.835938 14.207031 14.425781 14.359375 15.019531 C 14.472656 15.4375 14.507812 16.390625 14.410156 16.757812 C 14.335938 17.027344 14.015625 17.652344 13.96875 17.652344 C 13.949219 17.652344 13.730469 17.449219 13.480469 17.195312 Z M 13.480469 17.199219 "/>
<path style=" stroke:none;fill-rule:nonzero;fill:rgb(82.745099%,39.215687%,14.901961%);fill-opacity:1;" d="M 9.011719 7.128906 C 8.699219 7.046875 8.40625 6.824219 8.023438 6.289062 C 7.925781 6.144531 7.84375 5.988281 7.777344 5.824219 C 7.785156 5.816406 8.191406 6.113281 8.429688 6.320312 C 8.664062 6.523438 9.011719 6.789062 9.148438 6.882812 C 9.261719 6.960938 9.367188 7.054688 9.464844 7.15625 C 9.464844 7.179688 9.1875 7.171875 9.011719 7.125 Z M 9.011719 7.128906 "/>
<path style=" stroke:none;fill-rule:nonzero;fill:rgb(100%,80.000001%,0%);fill-opacity:1;" d="M 9.046875 7.640625 C 8.683594 7.546875 7.835938 6.925781 8.273438 6.972656 C 8.671875 7.015625 9.046875 7.183594 9.4375 7.214844 C 9.691406 7.234375 9.964844 7.296875 9.988281 7.320312 C 10.015625 7.34375 10.011719 7.5 9.929688 7.582031 C 9.769531 7.742188 9.394531 7.761719 9.042969 7.640625 Z M 9.597656 7.03125 C 9.21875 6.84375 8.875 6.601562 8.570312 6.3125 C 8.085938 5.871094 7.554688 5.65625 7.195312 5.605469 C 7.074219 5.589844 6.964844 5.566406 6.953125 5.554688 C 6.898438 5.496094 7.164062 5.277344 7.578125 5.277344 C 8.101562 5.277344 8.191406 5.355469 8.742188 5.75 C 9.199219 6.078125 9.480469 6.25 9.769531 6.355469 C 10.09375 6.472656 10.246094 6.648438 10.246094 6.929688 C 10.246094 7.066406 10.125 7.183594 10.101562 7.191406 C 10.078125 7.203125 9.808594 7.140625 9.597656 7.03125 Z M 9.597656 7.03125 "/>
<path style=" stroke:none;fill-rule:nonzero;fill:rgb(79.607844%,12.941177%,15.294118%);fill-opacity:1;" d="M 19.660156 19.425781 C 19.355469 19.394531 19.054688 19.34375 18.753906 19.277344 C 18.007812 19.101562 17.25 18.96875 16.488281 18.882812 L 15.664062 18.769531 C 15.644531 18.75 15.675781 18.675781 15.75 18.570312 C 15.910156 18.347656 16.046875 18.039062 16.078125 17.839844 C 16.101562 17.695312 16.097656 17.675781 16.023438 17.65625 C 15.980469 17.644531 15.945312 17.625 15.945312 17.613281 C 15.945312 17.597656 16.0625 17.425781 16.175781 17.171875 C 16.378906 16.726562 16.460938 16.421875 16.390625 16.378906 C 16.371094 16.367188 16.289062 16.378906 16.210938 16.40625 C 16.128906 16.4375 16.074219 16.316406 16.066406 16.308594 C 16.054688 16.300781 16.046875 16.027344 16.03125 15.683594 C 16.007812 15.195312 15.996094 15.050781 15.933594 14.875 C 15.835938 14.597656 15.625 14.097656 15.511719 13.988281 C 15.4375 13.921875 15.421875 13.917969 15.375 13.964844 C 15.34375 13.996094 15.289062 14.136719 15.253906 14.277344 C 15.152344 14.679688 14.605469 15.601562 14.5625 15.480469 C 14.375 14.945312 14.183594 14.453125 14.09375 14.273438 C 13.742188 13.574219 13.359375 13.070312 12.601562 12.710938 C 12.328125 12.578125 12.199219 12.484375 12.152344 12.5625 C 12.109375 12.632812 12.171875 12.742188 12.300781 12.820312 C 12.546875 12.972656 12.847656 13.671875 12.847656 13.984375 C 12.851562 14.171875 12.710938 14.636719 12.621094 14.800781 L 12.566406 14.910156 L 12.34375 14.679688 C 12.21875 14.550781 12.105469 14.449219 12.089844 14.449219 C 12.027344 14.449219 12.011719 14.527344 12.003906 14.941406 C 11.992188 15.371094 11.800781 15.59375 11.699219 15.5625 C 11.628906 15.539062 11.460938 15.199219 11.390625 14.941406 C 11.3125 14.664062 11.300781 14.429688 11.550781 13.796875 C 11.714844 13.371094 11.746094 13.472656 11.511719 13.589844 C 11.203125 13.746094 10.523438 14.640625 10.464844 14.910156 C 10.398438 15.136719 10.300781 15.355469 10.171875 15.550781 C 10.113281 15.585938 9.707031 15.171875 9.609375 14.976562 C 9.476562 14.71875 9.425781 14.40625 9.507812 14.167969 C 9.660156 13.734375 10.132812 13.144531 11.058594 12.183594 C 12.179688 11.019531 12.425781 10.660156 12.375 9.984375 C 12.351562 9.671875 12.269531 9.503906 12.046875 9.265625 C 11.824219 9.03125 11.589844 8.886719 11.089844 8.679688 C 10.589844 8.472656 10.1875 8.230469 9.941406 8.011719 L 9.746094 7.796875 L 9.910156 7.585938 C 10.238281 7.152344 10.324219 6.875 10.199219 6.507812 C 10.164062 6.410156 10.148438 6.304688 10.160156 6.273438 C 10.195312 6.183594 10.617188 6.042969 10.894531 6.019531 C 11.207031 5.992188 11.648438 6.046875 11.925781 6.152344 C 12.847656 6.496094 13.851562 7.671875 14.207031 8.84375 C 14.300781 9.148438 14.363281 9.347656 14.363281 9.910156 C 14.363281 10.390625 14.324219 10.621094 14.242188 11.152344 C 14.085938 12.207031 14.03125 12.222656 14.367188 12.558594 C 14.691406 12.882812 14.632812 12.863281 15.675781 12.683594 C 16.066406 12.613281 16.414062 12.636719 16.847656 12.652344 C 17.609375 12.683594 17.605469 12.695312 19.269531 13.285156 C 19.722656 13.445312 19.769531 13.453125 20.054688 13.453125 C 20.226562 13.460938 20.398438 13.425781 20.554688 13.359375 C 21.628906 12.949219 22.132812 12.132812 21.949219 11.101562 C 21.921875 10.929688 21.851562 10.554688 21.859375 10.546875 C 21.925781 10.480469 22.652344 11.734375 22.875 12.371094 C 23.023438 12.796875 22.941406 12.824219 23.054688 12.785156 C 23.144531 12.757812 23.328125 12.488281 23.511719 12.148438 C 23.605469 11.976562 23.757812 11.785156 23.769531 11.820312 C 23.820312 11.960938 23.953125 12.585938 23.953125 12.933594 C 23.953125 13.464844 23.902344 13.921875 23.757812 14.300781 C 23.6875 14.480469 23.621094 14.53125 23.621094 14.550781 C 23.621094 14.621094 23.71875 14.523438 23.949219 14.398438 C 24.050781 14.339844 24.164062 14.296875 24.277344 14.269531 C 24.359375 14.269531 24.308594 14.601562 24.039062 15.207031 C 23.886719 15.558594 23.757812 15.769531 23.757812 15.785156 C 23.757812 15.804688 23.855469 15.742188 23.976562 15.730469 C 24.101562 15.71875 24.273438 15.691406 24.242188 15.753906 C 24.238281 15.761719 24.144531 16.066406 24.082031 16.222656 C 23.515625 17.652344 22.527344 18.6875 21.363281 19.195312 C 20.824219 19.429688 20.285156 19.484375 19.675781 19.429688 Z M 20.582031 18.773438 C 21.09375 18.585938 21.570312 18.292969 21.855469 17.984375 C 22.191406 17.613281 22.523438 17.082031 22.554688 16.777344 C 22.574219 16.625 22.507812 16.714844 22.4375 16.695312 C 22.394531 16.6875 22.355469 16.664062 22.355469 16.652344 C 22.355469 16.640625 22.460938 16.398438 22.585938 16.113281 C 22.832031 15.554688 22.960938 15.3125 22.855469 15.3125 C 22.824219 15.3125 22.714844 15.359375 22.617188 15.421875 C 22.519531 15.480469 22.417969 15.515625 22.410156 15.511719 C 22.40625 15.507812 22.429688 15.417969 22.460938 15.316406 C 22.59375 14.875 22.691406 14.476562 22.6875 14.152344 C 22.6875 13.589844 22.699219 13.125 22.582031 13.195312 C 22.558594 13.210938 22.421875 13.398438 22.273438 13.613281 C 22.128906 13.828125 21.953125 14.011719 21.921875 14.011719 C 21.890625 14.011719 21.835938 13.996094 21.800781 13.976562 C 21.699219 13.921875 21.628906 13.96875 21.449219 14.265625 C 21.320312 14.484375 21.191406 14.679688 21.175781 14.601562 L 21.070312 14.035156 C 20.964844 13.480469 20.984375 13.445312 20.8125 13.785156 C 20.691406 14.027344 20.390625 14.359375 20.351562 14.375 C 20.265625 14.414062 20.238281 14.339844 20.191406 14.277344 C 20.070312 14.105469 20.089844 14.195312 20.035156 14.414062 C 19.980469 14.691406 19.800781 14.929688 19.546875 15.054688 C 19.398438 15.132812 19.359375 15.105469 19.4375 15.1875 C 19.53125 15.277344 19.519531 15.144531 19.757812 14.921875 C 19.867188 14.820312 19.984375 14.734375 20.113281 14.664062 C 20.175781 14.664062 20.253906 14.902344 20.21875 15.179688 C 20.171875 15.558594 20.089844 15.855469 19.949219 16.0625 C 19.816406 16.269531 19.792969 16.160156 19.960938 16.160156 C 20.140625 16.160156 20.164062 16.140625 20.4375 15.871094 C 20.726562 15.589844 20.84375 15.410156 20.9375 15.164062 C 20.972656 15.070312 21.09375 14.835938 21.148438 14.746094 C 21.25 14.589844 21.730469 14.121094 21.730469 14.15625 C 21.683594 14.597656 21.613281 15.03125 21.515625 15.464844 C 21.417969 15.757812 21.332031 15.855469 21.097656 16.21875 C 20.996094 16.371094 20.933594 16.476562 20.933594 16.503906 C 20.933594 16.578125 20.988281 16.457031 21.210938 16.367188 C 21.320312 16.324219 21.542969 16.328125 21.570312 16.335938 C 21.632812 16.351562 21.273438 17.007812 20.984375 17.324219 C 20.683594 17.660156 20.652344 17.570312 20.9375 17.550781 C 21.160156 17.535156 21.175781 17.6875 20.621094 18.335938 C 20.226562 18.800781 20.152344 18.828125 20.183594 18.878906 C 20.222656 18.945312 20.253906 18.898438 20.570312 18.78125 Z M 18.929688 18.210938 C 19.398438 18.136719 19.6875 17.871094 20.023438 17.425781 C 20.289062 17.070312 20.34375 16.984375 20.457031 16.683594 C 20.628906 16.222656 20.695312 16.289062 20.3125 16.523438 C 20.097656 16.644531 19.867188 16.726562 19.628906 16.769531 C 19.601562 16.769531 19.566406 16.707031 19.542969 16.625 C 19.488281 16.425781 19.535156 16.449219 19.285156 16.664062 C 19.070312 16.851562 18.757812 16.96875 18.625 16.96875 C 18.523438 16.96875 18.359375 16.976562 18.359375 17.019531 C 18.359375 17.039062 18.414062 17.078125 18.484375 17.105469 C 18.632812 17.167969 18.726562 17.058594 19.011719 16.949219 C 19.105469 16.917969 19.207031 16.914062 19.300781 16.941406 C 19.378906 17.019531 18.875 17.726562 18.414062 18.089844 C 18.246094 18.226562 18.191406 18.128906 18.253906 18.179688 C 18.335938 18.238281 18.59375 18.269531 18.925781 18.214844 Z M 12.0625 7.285156 C 12.144531 7.195312 12.152344 7.210938 12.152344 7.136719 C 12.152344 7.015625 12.1875 7.066406 12.046875 7.128906 C 11.957031 7.171875 11.886719 7.109375 11.648438 6.863281 C 11.425781 6.628906 11.429688 6.601562 11.238281 6.558594 C 10.976562 6.5 10.847656 6.507812 10.742188 6.652344 C 10.679688 6.738281 10.703125 6.714844 10.734375 6.832031 C 10.773438 6.996094 10.824219 7.015625 11.15625 7.066406 C 11.40625 7.109375 11.574219 7.167969 11.738281 7.304688 C 11.882812 7.425781 11.832031 7.46875 11.976562 7.3125 L 12.019531 7.324219 Z M 12.0625 7.285156 "/>
<path style=" stroke:none;fill-rule:nonzero;fill:rgb(92.941177%,13.333334%,14.117648%);fill-opacity:1;" d="M 10.800781 19.628906 C 10.199219 19.539062 9.644531 19.265625 9.203125 18.851562 C 8.976562 18.636719 8.570312 18.015625 8.570312 17.9375 C 8.570312 17.925781 8.683594 17.914062 8.816406 17.914062 C 8.949219 17.914062 9.058594 17.90625 9.058594 17.894531 C 9.058594 17.878906 8.957031 17.734375 8.839844 17.566406 C 8.503906 17.097656 8.285156 16.585938 8.359375 16.585938 C 8.363281 16.585938 8.464844 16.617188 8.578125 16.660156 C 8.78125 16.730469 8.980469 16.757812 8.980469 16.714844 C 8.980469 16.703125 8.878906 16.644531 8.792969 16.441406 C 8.65625 16.136719 8.632812 16.03125 8.621094 15.773438 C 8.605469 15.492188 8.738281 15.28125 8.902344 14.734375 L 9.078125 14.136719 L 9.234375 14.445312 C 9.425781 14.835938 9.671875 15.210938 9.902344 15.472656 C 10.160156 15.769531 10.265625 16.085938 10.285156 16.644531 L 10.191406 17.113281 L 10.109375 17.019531 C 9.816406 16.679688 9.804688 16.671875 9.734375 16.804688 C 9.667969 16.925781 9.742188 17.4375 9.839844 17.820312 C 9.984375 18.382812 10.195312 18.644531 10.625 18.9375 C 10.929688 19.148438 11.203125 19.320312 11.203125 19.195312 C 11.203125 19.175781 11.128906 19.058594 11.039062 18.945312 C 10.75 18.570312 10.699219 18.15625 10.699219 17.722656 L 10.699219 17.464844 L 11.089844 17.835938 C 11.351562 18.085938 11.40625 18.179688 11.511719 18.113281 C 11.605469 18.054688 11.550781 18.003906 11.445312 17.988281 C 11.304688 17.96875 10.941406 17.609375 10.863281 17.394531 C 10.835938 17.320312 10.804688 17.25 10.765625 17.179688 C 10.722656 17.128906 10.652344 17.222656 10.597656 17.320312 C 10.492188 17.515625 10.40625 17.289062 10.355469 16.679688 C 10.265625 15.613281 10.472656 14.730469 11.015625 14.085938 L 11.285156 13.835938 L 11.238281 14.460938 C 11.234375 14.898438 11.234375 14.90625 11.378906 15.191406 C 11.542969 15.53125 11.820312 15.714844 12.53125 16.359375 C 12.820312 16.621094 13.238281 17.042969 13.523438 17.3125 L 14.007812 17.761719 C 14.050781 17.761719 14.164062 17.449219 14.257812 17.207031 C 14.386719 16.882812 14.476562 16.539062 14.519531 16.191406 C 14.597656 15.609375 14.644531 15.503906 14.898438 15.179688 C 15.042969 14.976562 15.171875 14.761719 15.277344 14.539062 L 15.488281 14.132812 L 15.640625 14.417969 C 16.070312 15.359375 16.152344 15.601562 15.84375 16.355469 C 15.761719 16.550781 15.699219 16.722656 15.699219 16.738281 C 15.699219 16.785156 15.882812 16.742188 16.097656 16.667969 C 16.21875 16.625 16.324219 16.601562 16.332031 16.609375 C 16.363281 16.636719 16.128906 17.082031 15.902344 17.378906 C 15.65625 17.703125 15.59375 17.8125 15.621094 17.863281 C 15.636719 17.882812 15.746094 17.898438 15.871094 17.898438 L 16.09375 17.898438 L 15.851562 18.316406 C 15.335938 19.070312 14.613281 19.460938 13.957031 19.574219 C 13.367188 19.675781 11.359375 19.699219 10.796875 19.625 Z M 12.183594 16.015625 C 12.058594 15.886719 11.890625 15.691406 11.890625 15.652344 C 11.890625 15.613281 11.980469 15.363281 12.027344 15.261719 C 12.078125 15.164062 12.128906 15.0625 12.128906 15.007812 C 12.128906 14.6875 12.242188 14.828125 12.433594 15.128906 C 12.699219 15.542969 12.710938 16.242188 12.523438 16.257812 C 12.5 16.261719 12.308594 16.148438 12.183594 16.019531 Z M 20.203125 15.800781 C 20.273438 15.609375 20.289062 15.367188 20.289062 15.109375 C 20.292969 14.765625 20.320312 14.480469 20.601562 14.179688 L 21.011719 13.867188 L 21.011719 14.15625 C 21.015625 14.507812 20.953125 15.140625 20.828125 15.382812 C 20.730469 15.570312 20.082031 16.179688 20.132812 16.042969 L 20.199219 15.804688 Z M 18.664062 18.109375 C 18.6875 18.082031 18.816406 17.863281 18.890625 17.773438 C 18.964844 17.683594 19.132812 17.480469 19.207031 17.351562 C 19.429688 16.980469 19.667969 16.808594 20.109375 16.722656 C 20.257812 16.691406 20.324219 16.886719 20.132812 17.210938 C 19.9375 17.539062 19.648438 17.804688 19.304688 17.972656 C 18.988281 18.121094 18.613281 18.183594 18.664062 18.109375 Z M 20.671875 18.664062 C 20.671875 18.515625 20.71875 18.367188 20.800781 18.242188 C 21.34375 17.492188 21.378906 17.539062 21.195312 17.46875 C 21.148438 17.449219 21.144531 17.3125 21.144531 17.292969 C 21.183594 17.179688 21.246094 17.074219 21.320312 16.980469 C 21.511719 16.757812 21.710938 16.367188 21.710938 16.226562 C 21.710938 16.121094 21.660156 16.117188 21.46875 16.199219 C 21.390625 16.226562 21.320312 16.246094 21.308594 16.234375 C 21.300781 16.226562 21.40625 15.921875 21.480469 15.710938 C 21.554688 15.503906 21.636719 15.109375 21.683594 14.878906 C 21.746094 14.507812 21.902344 14.15625 22.140625 13.859375 C 22.480469 13.398438 22.753906 13.261719 22.640625 13.976562 C 22.535156 14.601562 22.46875 15.21875 22.230469 15.550781 C 22.003906 15.855469 22.023438 15.824219 22.417969 15.644531 C 22.527344 15.59375 22.691406 15.632812 22.699219 15.644531 C 22.726562 15.667969 22.539062 16.175781 22.246094 16.617188 C 22.105469 16.828125 22.011719 16.859375 22.011719 16.882812 C 22.011719 16.914062 22.054688 16.859375 22.214844 16.84375 C 22.363281 16.828125 22.4375 16.914062 22.4375 16.941406 C 22.4375 17.023438 22.070312 17.667969 21.910156 17.859375 C 21.707031 18.109375 21.347656 18.359375 21.050781 18.539062 C 20.820312 18.675781 20.667969 18.726562 20.667969 18.664062 Z M 19.46875 13.316406 C 19.296875 13.269531 18.976562 13.191406 18.769531 13.109375 C 18.3125 12.925781 17.902344 12.765625 17.535156 12.675781 C 17.105469 12.574219 15.832031 12.605469 15.300781 12.71875 C 15.09375 12.753906 14.882812 12.769531 14.675781 12.769531 C 14.652344 12.742188 15.328125 12.371094 15.71875 12.273438 C 16.40625 12.097656 16.820312 12.089844 17.664062 12.183594 C 18.625 12.292969 18.765625 12.289062 19.1875 12.085938 C 19.9375 11.722656 20.246094 11.0625 20.132812 10.367188 C 20.109375 10.230469 20.019531 9.800781 20.007812 9.753906 C 19.980469 9.660156 20.222656 9.875 20.371094 9.992188 C 20.800781 10.332031 21.628906 11.371094 21.753906 11.703125 C 21.855469 11.957031 21.828125 12.242188 21.679688 12.472656 C 21.410156 12.875 20.894531 13.273438 20.5 13.398438 C 20.195312 13.492188 20.019531 13.4375 19.628906 13.332031 Z M 3.761719 9.851562 C 3.707031 9.785156 3.566406 8.976562 3.601562 8.941406 C 3.648438 8.894531 3.96875 9.066406 4.09375 9.257812 C 4.203125 9.4375 4.230469 9.8125 4.152344 9.894531 C 4.09375 9.953125 3.808594 9.910156 3.761719 9.855469 Z M 3.761719 9.851562 "/>
<path style=" stroke:none;fill-rule:nonzero;fill:rgb(100%,60.000002%,20%);fill-opacity:1;" d="M 19.121094 10.929688 C 19.050781 10.855469 18.917969 10.28125 18.917969 10.085938 C 18.917969 9.949219 19.199219 10.023438 19.375 10.175781 C 19.542969 10.320312 19.699219 10.816406 19.699219 10.980469 C 19.699219 11.191406 19.4375 11.078125 19.226562 11.113281 Z M 20.507812 9.378906 C 20.421875 9.3125 20.421875 9.195312 20.421875 9.027344 C 20.421875 8.78125 20.539062 8.523438 20.792969 8.238281 C 21.09375 7.90625 21.28125 7.949219 21.140625 8.710938 C 21.039062 9.230469 20.949219 9.511719 20.796875 9.511719 C 20.738281 9.511719 20.558594 9.417969 20.507812 9.375 Z M 20.507812 9.378906 "/>
<path style=" stroke:none;fill-rule:nonzero;fill:rgb(93.333334%,13.333334%,14.117648%);fill-opacity:1;" d="M 10.300781 12.546875 C 10.019531 12.476562 9.621094 12.40625 9.011719 12.339844 C 8.839844 12.316406 8.671875 12.277344 8.511719 12.222656 C 8.597656 12.171875 8.695312 12.140625 8.792969 12.125 C 9.476562 12.054688 10.46875 12.148438 10.644531 12.300781 C 10.703125 12.351562 10.679688 12.503906 10.644531 12.527344 C 10.609375 12.554688 10.402344 12.574219 10.300781 12.546875 Z M 8.144531 12.382812 C 8.085938 12.375 8.054688 12.324219 8.078125 12.300781 C 8.097656 12.28125 8.171875 12.242188 8.21875 12.253906 C 8.273438 12.257812 8.371094 12.324219 8.371094 12.34375 C 8.371094 12.347656 8.320312 12.386719 8.296875 12.390625 C 8.265625 12.390625 8.171875 12.386719 8.140625 12.382812 Z M 8.144531 12.382812 "/>
<path style=" stroke:none;fill-rule:nonzero;fill:rgb(0%,0%,0%);fill-opacity:1;" d="M 10.308594 19.625 C 10.054688 19.542969 9.8125 19.425781 9.589844 19.28125 C 9.203125 19.007812 9.046875 19.011719 7.308594 19.367188 C 5.652344 19.710938 5.042969 19.734375 4.269531 19.507812 C 2.855469 19.085938 1.863281 18.230469 1.183594 16.847656 C 0.957031 16.390625 0.746094 15.867188 0.710938 15.679688 C 0.652344 15.367188 0.660156 15.351562 0.847656 15.453125 C 1.042969 15.558594 1.039062 15.539062 0.8125 14.910156 C 0.683594 14.550781 0.574219 14.140625 0.574219 13.992188 L 0.574219 13.730469 L 1.191406 14.320312 L 1.109375 14.019531 C 0.925781 13.351562 1.109375 11.464844 1.355469 11.46875 C 1.398438 11.46875 1.515625 11.703125 1.628906 11.988281 C 1.738281 12.273438 1.878906 12.519531 1.9375 12.539062 C 1.996094 12.558594 2.101562 12.382812 2.171875 12.144531 C 2.363281 11.503906 2.753906 10.832031 3.1875 10.40625 C 3.609375 9.996094 3.664062 10.039062 3.429688 10.601562 C 3.347656 10.800781 3.277344 11.152344 3.28125 11.390625 L 3.28125 11.816406 L 3.585938 11.265625 C 3.996094 10.511719 5.371094 9.128906 5.539062 9.300781 C 5.566406 9.328125 5.488281 9.488281 5.367188 9.65625 C 5.058594 10.070312 4.988281 10.914062 5.222656 11.378906 C 5.703125 12.324219 6.125 12.457031 7.769531 12.175781 C 9.160156 11.933594 9.898438 11.914062 10.449219 12.109375 L 10.847656 12.25 L 11.398438 11.683594 C 12.066406 11.003906 12.273438 10.613281 12.273438 10.058594 C 12.273438 9.699219 12.214844 9.585938 11.894531 9.277344 C 11.628906 9.046875 11.324219 8.867188 10.996094 8.742188 C 10.652344 8.613281 10.324219 8.4375 10.027344 8.21875 C 9.777344 8.027344 9.503906 7.871094 9.421875 7.871094 C 9.113281 7.871094 8.515625 7.550781 8.148438 7.195312 C 7.726562 6.78125 7.632812 6.488281 7.984375 6.675781 L 8.195312 6.789062 L 8.011719 6.464844 C 7.882812 6.238281 7.644531 6.058594 7.25 5.882812 C 6.933594 5.742188 6.675781 5.589844 6.675781 5.550781 C 6.675781 5.410156 7.265625 5.171875 7.59375 5.171875 C 7.980469 5.175781 8.660156 5.464844 8.867188 5.714844 C 8.945312 5.808594 9.1875 5.976562 9.398438 6.085938 C 9.785156 6.28125 9.785156 6.28125 10.210938 6.078125 C 11.15625 5.621094 12.199219 5.921875 13.21875 6.949219 C 13.882812 7.621094 14.246094 8.316406 14.402344 9.21875 C 14.496094 9.769531 14.484375 10.058594 14.34375 10.902344 C 14.136719 12.117188 14.136719 12.183594 14.296875 12.40625 C 14.417969 12.570312 14.457031 12.566406 15.015625 12.378906 C 15.996094 12.039062 16.695312 11.96875 17.773438 12.09375 L 18.746094 12.207031 L 19.214844 11.933594 C 20.046875 11.445312 20.265625 10.761719 19.867188 9.886719 C 19.628906 9.351562 19.628906 9.34375 19.863281 9.46875 C 20.230469 9.667969 21.199219 10.621094 21.53125 11.117188 C 21.921875 11.691406 21.976562 11.539062 21.683594 10.699219 C 21.550781 10.304688 21.535156 10.171875 21.628906 10.171875 C 21.898438 10.171875 22.753906 11.507812 22.929688 12.199219 C 22.964844 12.347656 23.035156 12.5 23.078125 12.523438 C 23.171875 12.582031 23.363281 12.285156 23.523438 11.847656 C 23.578125 11.699219 23.667969 11.566406 23.722656 11.558594 C 24.003906 11.519531 24.195312 13.445312 23.96875 14.039062 L 23.859375 14.320312 L 24.164062 14.027344 C 24.335938 13.867188 24.496094 13.761719 24.53125 13.796875 C 24.605469 13.867188 24.3125 14.902344 24.109375 15.296875 C 23.960938 15.585938 24.039062 15.660156 24.265625 15.445312 C 24.507812 15.21875 24.3125 16.019531 23.933594 16.800781 C 23.34375 18.023438 22.289062 19.023438 21.167969 19.429688 C 20.523438 19.660156 19.574219 19.628906 18.398438 19.339844 C 17.832031 19.199219 16.945312 19.054688 16.433594 19.019531 C 15.515625 18.949219 15.484375 18.953125 15.136719 19.21875 C 14.546875 19.671875 14.007812 19.773438 12.28125 19.769531 C 11.300781 19.765625 10.570312 19.714844 10.308594 19.632812 Z M 14.347656 19.429688 C 14.90625 19.230469 15.382812 18.859375 15.710938 18.363281 L 15.972656 17.96875 L 15.722656 17.96875 C 15.410156 17.96875 15.410156 17.917969 15.726562 17.542969 C 15.882812 17.355469 16.019531 17.152344 16.136719 16.941406 C 16.285156 16.65625 16.28125 16.644531 16.109375 16.714844 C 15.753906 16.859375 15.546875 16.898438 15.589844 16.808594 C 16.046875 15.863281 16.066406 15.484375 15.703125 14.667969 L 15.503906 14.21875 L 15.332031 14.617188 C 15.222656 14.863281 15.074219 15.09375 14.894531 15.296875 C 14.679688 15.519531 14.617188 15.703125 14.566406 16.25 C 14.53125 16.652344 14.410156 17.121094 14.269531 17.402344 C 14.140625 17.660156 14.023438 17.871094 14.007812 17.871094 C 13.992188 17.871094 13.71875 17.609375 13.402344 17.296875 C 13.011719 16.914062 12.609375 16.542969 12.195312 16.1875 C 11.414062 15.523438 11.132812 15.007812 11.203125 14.378906 L 11.253906 13.921875 L 10.960938 14.269531 C 10.574219 14.734375 10.371094 15.445312 10.378906 16.316406 C 10.390625 17.101562 10.492188 17.53125 10.605469 17.238281 C 10.683594 17.035156 10.875 17.015625 10.875 17.214844 C 10.875 17.414062 11.363281 17.972656 11.539062 17.972656 C 11.621094 17.972656 11.660156 18.015625 11.625 18.070312 C 11.523438 18.238281 11.375 18.1875 11.066406 17.882812 L 10.773438 17.589844 L 10.773438 17.925781 C 10.773438 18.351562 10.929688 18.761719 11.199219 19.046875 C 11.394531 19.257812 11.394531 19.273438 11.226562 19.273438 C 10.851562 19.273438 10.199219 18.785156 9.992188 18.351562 C 9.761719 17.871094 9.613281 16.976562 9.722656 16.703125 C 9.78125 16.542969 9.808594 16.550781 9.980469 16.773438 L 10.171875 17.023438 L 10.175781 16.429688 C 10.175781 15.898438 10.144531 15.800781 9.867188 15.515625 C 9.65625 15.277344 9.472656 15.007812 9.332031 14.722656 L 9.101562 14.246094 L 8.941406 14.734375 C 8.613281 15.761719 8.621094 15.910156 9.058594 16.8125 C 9.101562 16.902344 8.894531 16.867188 8.539062 16.71875 C 8.359375 16.648438 8.359375 16.65625 8.53125 16.984375 C 8.65625 17.214844 8.796875 17.4375 8.953125 17.648438 L 9.199219 17.976562 L 8.648438 17.976562 L 8.824219 18.25 C 9.253906 18.957031 9.96875 19.433594 10.785156 19.5625 C 11.523438 19.691406 13.871094 19.609375 14.351562 19.441406 Z M 7.640625 19.117188 L 8.953125 18.835938 L 8.664062 18.320312 C 8.328125 17.730469 8.316406 17.667969 8.515625 17.667969 C 8.625 17.667969 8.585938 17.527344 8.363281 17.109375 C 8.089844 16.578125 8 16.269531 8.128906 16.269531 C 8.15625 16.269531 8.277344 16.316406 8.390625 16.378906 C 8.585938 16.480469 8.59375 16.46875 8.53125 16.144531 C 8.453125 15.714844 8.601562 14.914062 8.878906 14.265625 C 9.089844 13.777344 9.269531 13.617188 9.269531 13.914062 C 9.269531 14.132812 9.445312 14.097656 9.519531 13.867188 C 9.554688 13.757812 9.761719 13.445312 9.972656 13.175781 L 10.363281 12.679688 L 9.644531 12.5625 C 8.640625 12.390625 7.75 12.535156 6.511719 13.066406 C 5.339844 13.566406 4.941406 13.640625 4.449219 13.4375 C 3.929688 13.21875 3.300781 12.609375 3.160156 12.195312 C 3.09375 11.984375 3.066406 11.585938 3.101562 11.226562 L 3.15625 10.617188 L 2.824219 11.136719 C 2.617188 11.484375 2.449219 11.851562 2.320312 12.238281 C 2.222656 12.554688 2.105469 12.855469 2.0625 12.902344 C 2.015625 12.953125 1.832031 12.757812 1.652344 12.464844 L 1.320312 11.929688 L 1.257812 12.21875 C 1.121094 12.851562 1.171875 13.710938 1.371094 14.152344 C 1.484375 14.394531 1.550781 14.617188 1.523438 14.644531 C 1.496094 14.671875 1.3125 14.570312 1.117188 14.421875 L 0.761719 14.148438 L 0.832031 14.433594 C 0.871094 14.585938 1.03125 14.980469 1.195312 15.300781 L 1.488281 15.890625 L 1.230469 15.839844 C 0.886719 15.777344 0.898438 15.890625 1.332031 16.753906 C 1.96875 18.03125 3.164062 19.066406 4.332031 19.359375 C 4.941406 19.507812 6.203125 19.414062 7.636719 19.113281 Z M 4.144531 18.71875 C 3.566406 18.503906 2.953125 18.019531 2.601562 17.492188 C 2.214844 16.921875 2.082031 16.46875 2.292969 16.46875 C 2.402344 16.46875 2.371094 16.332031 2.152344 15.902344 C 1.757812 15.117188 1.777344 14.867188 2.203125 15.242188 C 2.398438 15.410156 2.402344 15.410156 2.332031 15.21875 C 2.058594 14.476562 2.019531 12.96875 2.273438 12.96875 C 2.324219 12.96875 2.441406 13.113281 2.53125 13.292969 C 2.785156 13.796875 2.878906 13.886719 3.023438 13.765625 C 3.117188 13.683594 3.210938 13.753906 3.382812 14.035156 L 3.621094 14.417969 L 3.710938 13.890625 C 3.757812 13.605469 3.835938 13.367188 3.882812 13.367188 C 3.929688 13.367188 4.058594 13.546875 4.171875 13.769531 C 4.382812 14.1875 4.628906 14.289062 4.699219 13.992188 C 4.726562 13.859375 4.769531 13.890625 4.859375 14.117188 C 5.070312 14.667969 5.191406 14.847656 5.398438 14.941406 C 5.542969 15.003906 5.570312 15.054688 5.488281 15.109375 C 5.417969 15.152344 5.246094 15.0625 5.070312 14.882812 L 4.769531 14.582031 L 4.714844 14.8125 C 4.648438 15.074219 4.824219 15.828125 4.972656 15.921875 C 5.027344 15.953125 5.070312 16.039062 5.070312 16.113281 C 5.070312 16.5625 3.9375 15.605469 3.816406 15.050781 C 3.777344 14.867188 3.636719 14.609375 3.507812 14.476562 L 3.269531 14.238281 L 3.269531 14.683594 C 3.269531 15.132812 3.695312 16.167969 3.878906 16.167969 C 3.929688 16.167969 3.96875 16.234375 3.96875 16.316406 C 3.96875 16.492188 3.960938 16.496094 3.628906 16.367188 C 3.488281 16.3125 3.371094 16.304688 3.371094 16.347656 C 3.371094 16.476562 3.980469 17.265625 4.082031 17.265625 C 4.132812 17.265625 4.171875 17.339844 4.171875 17.425781 C 4.171875 17.539062 4.109375 17.570312 3.972656 17.535156 C 3.714844 17.46875 3.8125 17.65625 4.363281 18.28125 C 4.589844 18.535156 4.773438 18.769531 4.773438 18.804688 C 4.773438 18.894531 4.5625 18.863281 4.144531 18.710938 Z M 3.878906 18 C 3.449219 17.398438 3.363281 17.128906 3.632812 17.234375 C 3.726562 17.269531 3.644531 17.101562 3.441406 16.832031 C 3.074219 16.347656 2.910156 15.992188 3.015625 15.890625 C 3.050781 15.855469 3.132812 15.882812 3.195312 15.945312 C 3.429688 16.179688 3.453125 16.054688 3.265625 15.5625 C 3.160156 15.285156 3.074219 14.894531 3.070312 14.6875 C 3.066406 14.394531 2.980469 14.21875 2.660156 13.863281 L 2.253906 13.414062 L 2.308594 14.097656 C 2.347656 14.5625 2.449219 14.929688 2.621094 15.238281 C 2.761719 15.488281 2.855469 15.714844 2.832031 15.734375 C 2.808594 15.757812 2.652344 15.707031 2.484375 15.617188 C 2.3125 15.53125 2.171875 15.496094 2.171875 15.539062 C 2.171875 15.660156 2.734375 16.527344 2.863281 16.605469 C 3.066406 16.730469 2.976562 16.886719 2.722656 16.835938 C 2.398438 16.773438 2.40625 16.839844 2.796875 17.421875 C 3.027344 17.75 3.324219 18.027344 3.667969 18.234375 C 3.96875 18.414062 4.226562 18.558594 4.246094 18.558594 C 4.265625 18.558594 4.097656 18.304688 3.878906 17.992188 Z M 4.554688 15.5 C 4.496094 15.273438 4.480469 15.042969 4.503906 14.808594 C 4.546875 14.542969 4.5 14.4375 4.214844 14.160156 L 3.871094 13.828125 L 3.871094 14.171875 C 3.871094 14.691406 4.050781 15.226562 4.335938 15.5625 C 4.476562 15.730469 4.605469 15.867188 4.621094 15.867188 C 4.644531 15.867188 4.609375 15.699219 4.554688 15.496094 Z M 5.515625 18.027344 C 5.101562 17.847656 4.515625 17.144531 4.335938 16.605469 C 4.167969 16.117188 4.246094 16.054688 4.644531 16.367188 C 4.945312 16.601562 5.273438 16.628906 5.273438 16.417969 C 5.273438 16.199219 5.40625 16.230469 5.671875 16.515625 C 5.8125 16.667969 6.019531 16.765625 6.183594 16.765625 C 6.335938 16.765625 6.484375 16.808594 6.515625 16.855469 C 6.621094 17.027344 6.261719 17.0625 5.910156 16.917969 L 5.5625 16.769531 L 5.796875 17.195312 C 5.921875 17.425781 6.171875 17.707031 6.347656 17.816406 C 6.523438 17.925781 6.667969 18.050781 6.671875 18.09375 C 6.675781 18.21875 5.84375 18.171875 5.515625 18.027344 Z M 5.847656 17.679688 C 5.699219 17.5 5.574219 17.296875 5.476562 17.082031 C 5.394531 16.882812 5.277344 16.769531 5.152344 16.769531 C 5.046875 16.769531 4.863281 16.71875 4.75 16.65625 C 4.566406 16.558594 4.550781 16.566406 4.613281 16.730469 C 4.757812 17.117188 5.128906 17.5625 5.46875 17.761719 C 5.980469 18.058594 6.136719 18.023438 5.847656 17.683594 Z M 21.222656 19.191406 C 22.425781 18.722656 23.421875 17.660156 23.96875 16.273438 L 24.167969 15.765625 L 23.921875 15.828125 C 23.785156 15.859375 23.671875 15.867188 23.671875 15.835938 C 23.671875 15.808594 23.808594 15.5 23.972656 15.152344 C 24.367188 14.3125 24.359375 14.195312 23.9375 14.457031 C 23.753906 14.570312 23.578125 14.640625 23.546875 14.609375 C 23.519531 14.582031 23.582031 14.394531 23.683594 14.191406 C 23.878906 13.8125 23.9375 12.824219 23.808594 12.179688 L 23.75 11.863281 L 23.554688 12.253906 C 23.449219 12.46875 23.28125 12.71875 23.179688 12.808594 C 23.003906 12.96875 22.988281 12.949219 22.820312 12.445312 C 22.632812 11.863281 22.277344 11.128906 22.039062 10.8125 C 21.898438 10.628906 21.894531 10.648438 21.984375 11.054688 C 22.199219 12.015625 21.707031 12.921875 20.726562 13.375 C 20.148438 13.640625 19.734375 13.605469 18.777344 13.203125 C 17.550781 12.695312 16.585938 12.570312 15.542969 12.789062 C 14.761719 12.949219 14.714844 12.949219 14.476562 12.773438 C 13.992188 12.421875 13.941406 12.160156 14.128906 11.035156 C 14.359375 9.683594 14.292969 9.027344 13.835938 8.101562 C 13.441406 7.304688 12.71875 6.5625 12.027344 6.246094 C 11.320312 5.921875 10.070312 6.050781 10.230469 6.433594 C 10.417969 6.875 10.394531 7.066406 10.125 7.425781 L 9.839844 7.800781 L 10.148438 8.074219 C 10.316406 8.226562 10.730469 8.453125 11.0625 8.574219 C 11.914062 8.882812 12.371094 9.304688 12.441406 9.84375 C 12.539062 10.574219 12.257812 11.097656 11.21875 12.132812 C 10.269531 13.078125 9.734375 13.761719 9.558594 14.265625 C 9.445312 14.589844 9.59375 14.980469 9.960938 15.308594 C 10.164062 15.496094 10.167969 15.492188 10.269531 15.230469 C 10.324219 15.078125 10.371094 14.925781 10.371094 14.882812 C 10.371094 14.542969 11.570312 13.238281 11.734375 13.402344 C 11.769531 13.433594 11.699219 13.65625 11.585938 13.898438 C 11.46875 14.136719 11.375 14.433594 11.375 14.558594 C 11.375 14.851562 11.636719 15.472656 11.761719 15.472656 C 11.902344 15.472656 11.992188 15.125 11.960938 14.722656 C 11.921875 14.269531 12.007812 14.207031 12.253906 14.515625 C 12.363281 14.65625 12.476562 14.769531 12.503906 14.769531 C 12.589844 14.769531 12.773438 14.160156 12.773438 13.886719 C 12.773438 13.589844 12.34375 12.816406 12.128906 12.734375 C 11.929688 12.65625 11.933594 12.46875 12.132812 12.46875 C 12.398438 12.46875 13.109375 12.875 13.511719 13.253906 C 13.929688 13.648438 14.210938 14.136719 14.476562 14.914062 L 14.644531 15.410156 L 14.914062 14.949219 C 15.066406 14.691406 15.214844 14.320312 15.246094 14.121094 C 15.277344 13.921875 15.355469 13.777344 15.414062 13.796875 C 15.476562 13.816406 15.660156 14.101562 15.828125 14.425781 C 16.074219 14.914062 16.128906 15.140625 16.128906 15.730469 C 16.128906 16.375 16.144531 16.429688 16.296875 16.335938 C 16.617188 16.132812 16.617188 16.378906 16.296875 17.03125 C 16.117188 17.390625 16.015625 17.65625 16.066406 17.625 C 16.378906 17.433594 16.183594 18.15625 15.808594 18.582031 C 15.679688 18.730469 15.738281 18.753906 16.445312 18.816406 C 17.1875 18.882812 17.867188 19.007812 19.226562 19.320312 C 19.890625 19.480469 20.585938 19.433594 21.226562 19.191406 Z M 20.070312 18.910156 C 20.070312 18.878906 20.296875 18.601562 20.570312 18.289062 C 21.117188 17.675781 21.171875 17.5625 20.871094 17.640625 C 20.632812 17.703125 20.609375 17.546875 20.828125 17.363281 C 20.917969 17.289062 21.125 17.03125 21.292969 16.789062 C 21.617188 16.316406 21.613281 16.3125 20.996094 16.546875 C 20.808594 16.613281 20.84375 16.496094 21.109375 16.140625 C 21.367188 15.789062 21.519531 15.355469 21.613281 14.6875 L 21.675781 14.257812 L 21.390625 14.589844 C 21.230469 14.769531 21.070312 15.054688 21.027344 15.21875 C 20.949219 15.550781 20.308594 16.210938 19.984375 16.296875 C 19.738281 16.359375 19.710938 16.203125 19.925781 15.964844 C 20.097656 15.777344 20.253906 14.765625 20.113281 14.769531 C 20.0625 14.769531 19.917969 14.882812 19.789062 15.019531 C 19.539062 15.285156 19.421875 15.324219 19.328125 15.175781 C 19.296875 15.125 19.363281 15.050781 19.472656 15.015625 C 19.683594 14.949219 19.972656 14.488281 19.972656 14.222656 C 19.972656 14.019531 20.140625 14.023438 20.253906 14.226562 C 20.332031 14.367188 20.371094 14.347656 20.542969 14.101562 C 20.644531 13.957031 20.734375 13.804688 20.804688 13.644531 C 20.921875 13.320312 21.058594 13.464844 21.144531 13.992188 L 21.226562 14.519531 L 21.460938 14.136719 C 21.644531 13.839844 21.722656 13.785156 21.832031 13.875 C 21.941406 13.964844 22.027344 13.894531 22.246094 13.53125 C 22.402344 13.28125 22.554688 13.070312 22.585938 13.070312 C 22.671875 13.066406 22.777344 13.613281 22.777344 14.066406 C 22.761719 14.359375 22.710938 14.648438 22.628906 14.929688 L 22.476562 15.445312 C 22.476562 15.460938 22.589844 15.398438 22.726562 15.308594 C 22.960938 15.15625 22.976562 15.15625 22.976562 15.320312 C 22.976562 15.414062 22.84375 15.757812 22.679688 16.078125 C 22.480469 16.472656 22.433594 16.640625 22.53125 16.605469 C 22.921875 16.453125 22.34375 17.703125 21.800781 18.179688 C 21.253906 18.65625 20.074219 19.15625 20.074219 18.910156 Z M 21.171875 18.382812 C 21.601562 18.125 21.980469 17.734375 22.179688 17.347656 C 22.421875 16.878906 22.421875 16.886719 22.105469 16.949219 C 21.945312 16.976562 21.867188 16.957031 21.902344 16.898438 C 22.039062 16.6875 22.175781 16.480469 22.316406 16.273438 C 22.746094 15.632812 22.757812 15.527344 22.378906 15.746094 C 22.027344 15.945312 21.867188 15.847656 22.109375 15.578125 C 22.347656 15.316406 22.570312 14.535156 22.566406 13.976562 L 22.566406 13.519531 L 22.222656 13.917969 C 21.984375 14.195312 21.863281 14.453125 21.820312 14.769531 C 21.769531 15.082031 21.6875 15.394531 21.574219 15.691406 C 21.375 16.203125 21.378906 16.222656 21.675781 16.066406 C 21.8125 15.992188 21.871094 15.992188 21.871094 16.070312 C 21.871094 16.242188 21.5 16.917969 21.328125 17.0625 C 21.128906 17.230469 21.128906 17.34375 21.328125 17.386719 C 21.453125 17.410156 21.390625 17.554688 21.03125 18.039062 C 20.582031 18.644531 20.613281 18.71875 21.167969 18.382812 Z M 20.855469 15.078125 C 20.925781 14.832031 20.964844 14.578125 20.972656 14.320312 L 20.972656 13.949219 L 20.652344 14.285156 C 20.390625 14.5625 20.339844 14.691406 20.359375 15.023438 C 20.371094 15.246094 20.332031 15.558594 20.269531 15.726562 L 20.15625 16.019531 L 20.449219 15.742188 C 20.628906 15.554688 20.769531 15.328125 20.855469 15.078125 Z M 18.175781 18.195312 C 18.175781 18.152344 18.320312 18.027344 18.496094 17.917969 C 18.789062 17.734375 19.269531 17.140625 19.269531 16.960938 C 19.269531 16.917969 19.136719 16.949219 18.972656 17.03125 C 18.804688 17.113281 18.582031 17.152344 18.464844 17.113281 C 18.207031 17.035156 18.28125 16.941406 18.632812 16.90625 C 18.777344 16.890625 19.019531 16.761719 19.164062 16.621094 C 19.484375 16.316406 19.542969 16.308594 19.585938 16.5625 C 19.613281 16.738281 19.640625 16.742188 19.917969 16.613281 C 20.082031 16.535156 20.238281 16.449219 20.386719 16.347656 C 20.667969 16.144531 20.695312 16.320312 20.472656 16.835938 C 20.214844 17.414062 19.738281 17.941406 19.296875 18.128906 C 18.957031 18.277344 18.164062 18.320312 18.171875 18.191406 Z M 19.5625 17.773438 C 19.707031 17.671875 19.929688 17.398438 20.058594 17.167969 C 20.320312 16.710938 20.347656 16.730469 19.695312 16.917969 C 19.570312 16.953125 19.394531 17.125 19.308594 17.300781 C 19.203125 17.5 19.078125 17.683594 18.933594 17.855469 L 18.722656 18.097656 L 19.015625 18.023438 C 19.210938 17.96875 19.394531 17.882812 19.566406 17.769531 Z M 11.652344 7.3125 C 11.5625 7.222656 11.359375 7.140625 11.199219 7.128906 C 10.8125 7.097656 10.671875 7.003906 10.671875 6.773438 C 10.671875 6.335938 11.460938 6.40625 11.734375 6.871094 C 11.855469 7.074219 11.945312 7.136719 12.023438 7.070312 C 12.214844 6.910156 12.28125 7.09375 12.105469 7.289062 C 11.902344 7.511719 11.855469 7.515625 11.652344 7.3125 Z M 11.046875 6.714844 C 10.949219 6.617188 10.757812 6.773438 10.828125 6.886719 C 10.871094 6.957031 10.929688 6.953125 11 6.882812 C 11.058594 6.824219 11.078125 6.746094 11.046875 6.714844 Z M 10.714844 18.597656 C 10.636719 18.378906 10.589844 18.152344 10.574219 17.921875 C 10.570312 17.703125 10.476562 17.546875 10.222656 17.34375 C 9.914062 17.097656 9.871094 17.085938 9.871094 17.25 C 9.871094 17.730469 10.1875 18.46875 10.496094 18.714844 C 10.605469 18.804688 10.71875 18.890625 10.832031 18.972656 C 10.839844 18.972656 10.785156 18.804688 10.714844 18.597656 Z M 14.195312 17.097656 C 14.492188 16.441406 14.480469 15.429688 14.171875 14.628906 C 13.925781 13.996094 13.234375 13.160156 12.742188 12.90625 L 12.453125 12.757812 L 12.6875 13.074219 C 12.96875 13.453125 13 14.34375 12.75 14.820312 C 12.652344 15.011719 12.625 15.195312 12.675781 15.320312 C 12.71875 15.433594 12.757812 15.71875 12.761719 15.953125 C 12.769531 16.347656 12.824219 16.445312 13.34375 16.964844 L 13.949219 17.554688 C 13.96875 17.566406 14.078125 17.359375 14.195312 17.097656 Z M 12.511719 15.484375 C 12.359375 14.972656 12.171875 14.722656 12.171875 15.03125 C 12.171875 15.144531 12.105469 15.320312 12.027344 15.429688 C 11.898438 15.601562 11.914062 15.652344 12.199219 15.949219 C 12.476562 16.238281 12.523438 16.257812 12.578125 16.101562 C 12.613281 16.003906 12.585938 15.722656 12.511719 15.480469 Z M 6.421875 12.886719 L 7.320312 12.476562 L 6.738281 12.472656 C 5.925781 12.46875 5.523438 12.253906 5.167969 11.628906 C 4.855469 11.085938 4.785156 10.519531 4.972656 10 C 5.050781 9.769531 4.972656 9.824219 4.539062 10.289062 C 4.035156 10.832031 3.574219 11.558594 3.429688 12.035156 C 3.34375 12.320312 3.867188 12.929688 4.421875 13.1875 C 4.953125 13.4375 5.332031 13.378906 6.421875 12.882812 Z M 20.992188 13.007812 C 21.214844 12.847656 21.492188 12.558594 21.601562 12.359375 C 21.78125 12.050781 21.792969 11.960938 21.6875 11.703125 C 21.539062 11.347656 20.84375 10.492188 20.40625 10.128906 L 20.089844 9.867188 L 20.195312 10.207031 C 20.425781 10.957031 19.949219 11.8125 19.085938 12.195312 C 18.683594 12.371094 18.578125 12.378906 17.679688 12.265625 C 16.828125 12.15625 16.613281 12.160156 15.964844 12.308594 C 15.554688 12.402344 15.085938 12.546875 14.921875 12.625 C 14.664062 12.753906 14.65625 12.765625 14.871094 12.714844 C 16.441406 12.359375 17.4375 12.4375 18.800781 13.019531 C 19.816406 13.453125 20.367188 13.453125 20.992188 13.011719 Z M 10.597656 12.355469 C 10.457031 12.214844 9.585938 12.113281 9.023438 12.171875 L 8.523438 12.222656 L 9.230469 12.300781 C 9.621094 12.34375 10.070312 12.414062 10.230469 12.460938 C 10.554688 12.550781 10.738281 12.496094 10.597656 12.355469 Z M 8.289062 12.300781 C 8.21875 12.269531 8.132812 12.273438 8.101562 12.308594 C 8.066406 12.34375 8.125 12.363281 8.230469 12.359375 C 8.347656 12.359375 8.371094 12.335938 8.289062 12.300781 Z M 9.851562 7.550781 C 10.066406 7.335938 9.980469 7.269531 9.484375 7.269531 C 9.21875 7.269531 8.8125 7.203125 8.585938 7.121094 C 8.359375 7.042969 8.171875 6.996094 8.171875 7.023438 C 8.171875 7.046875 8.359375 7.203125 8.589844 7.367188 C 9.027344 7.6875 9.628906 7.773438 9.851562 7.546875 Z M 9.222656 7 C 9.058594 6.914062 8.6875 6.621094 8.402344 6.355469 C 8.117188 6.089844 7.859375 5.867188 7.832031 5.867188 C 7.804688 5.867188 7.964844 6.113281 8.191406 6.417969 C 8.460938 6.777344 8.710938 7 8.914062 7.058594 C 9.40625 7.199219 9.550781 7.171875 9.226562 7 Z M 10.171875 6.976562 C 10.171875 6.617188 10.054688 6.472656 9.683594 6.371094 C 9.476562 6.316406 9.050781 6.070312 8.730469 5.820312 C 8.207031 5.414062 8.097656 5.371094 7.609375 5.371094 C 7.316406 5.371094 7.074219 5.414062 7.074219 5.46875 C 7.074219 5.523438 7.199219 5.570312 7.359375 5.570312 C 7.667969 5.570312 8.222656 5.90625 8.710938 6.390625 C 8.980469 6.660156 9.878906 7.167969 10.097656 7.167969 C 10.136719 7.167969 10.171875 7.082031 10.171875 6.976562 Z M 5.421875 11.0625 C 5.316406 10.730469 5.554688 10.316406 5.996094 10.070312 C 6.375 9.855469 6.398438 9.851562 6.324219 10.027344 C 6.257812 10.222656 6.210938 10.417969 6.179688 10.621094 C 6.089844 11.152344 6.007812 11.269531 5.722656 11.269531 C 5.570312 11.269531 5.464844 11.191406 5.421875 11.058594 Z M 5.917969 11.042969 C 5.9375 10.976562 5.980469 10.742188 6.011719 10.53125 L 6.066406 10.144531 L 5.820312 10.375 C 5.503906 10.671875 5.484375 11.171875 5.789062 11.171875 C 5.839844 11.171875 5.894531 11.113281 5.914062 11.046875 Z M 19.09375 11.144531 C 19.035156 11.074219 18.960938 10.851562 18.921875 10.644531 C 18.871094 10.417969 18.78125 10.203125 18.648438 10.015625 C 18.371094 9.664062 18.476562 9.617188 19.003906 9.851562 C 19.503906 10.070312 19.796875 10.4375 19.796875 10.832031 C 19.796875 11.222656 19.328125 11.429688 19.09375 11.144531 Z M 19.609375 10.910156 C 19.679688 10.730469 19.515625 10.378906 19.28125 10.199219 C 19.03125 10.007812 18.964844 10.046875 19.027344 10.34375 L 19.128906 10.84375 C 19.183594 11.105469 19.515625 11.152344 19.609375 10.910156 Z M 3.730469 9.910156 C 3.636719 9.808594 3.578125 9.675781 3.570312 9.535156 C 3.570312 9.417969 3.480469 9.167969 3.367188 8.980469 L 3.160156 8.644531 L 3.417969 8.710938 C 3.632812 8.761719 3.675781 8.738281 3.675781 8.5625 C 3.667969 8.421875 3.632812 8.28125 3.566406 8.15625 C 3.34375 7.738281 3.554688 7.75 4.003906 8.183594 C 4.507812 8.664062 4.566406 8.890625 4.375 9.5625 C 4.234375 10.058594 4.003906 10.179688 3.730469 9.910156 Z M 4.175781 9.621094 C 4.175781 9.378906 3.867188 8.96875 3.683594 8.96875 C 3.632812 8.96875 3.632812 9.125 3.679688 9.34375 C 3.726562 9.550781 3.769531 9.753906 3.769531 9.792969 C 3.769531 9.835938 3.859375 9.871094 3.972656 9.871094 C 4.117188 9.871094 4.171875 9.804688 4.171875 9.621094 Z M 4.375 9.019531 C 4.375 8.886719 4.238281 8.625 4.074219 8.445312 L 3.777344 8.121094 L 3.839844 8.46875 C 3.890625 8.757812 4.210938 9.269531 4.339844 9.269531 C 4.359375 9.269531 4.371094 9.160156 4.371094 9.023438 Z M 20.460938 9.460938 C 20.039062 9.039062 20.390625 8.273438 21.195312 7.859375 C 21.605469 7.648438 21.660156 7.703125 21.40625 8.066406 C 21.300781 8.214844 21.242188 8.484375 21.25 8.792969 C 21.257812 9.15625 21.210938 9.335938 21.066406 9.480469 C 20.816406 9.726562 20.71875 9.722656 20.460938 9.460938 Z M 21.078125 8.769531 C 21.109375 8.414062 21.128906 8.109375 21.117188 8.09375 C 21.105469 8.078125 20.957031 8.203125 20.785156 8.378906 C 20.308594 8.851562 20.363281 9.507812 20.871094 9.441406 C 20.980469 9.429688 21.039062 9.246094 21.078125 8.773438 Z M 21.078125 8.769531 "/>
</g>
</svg>
