<?xml version="1.0" encoding="UTF-8"?>
<svg xmlns="http://www.w3.org/2000/svg" xmlns:xlink="http://www.w3.org/1999/xlink" width="25px" height="25px" viewBox="0 0 25 25" version="1.1">
<g id="surface1">
<path style=" stroke:none;fill-rule:nonzero;fill:rgb(25.490198%,60.000002%,41.960785%);fill-opacity:1;" d="M 17.320312 12.351562 L 19.691406 13.570312 C 21.308594 14.402344 23.273438 13.492188 23.6875 11.722656 L 25 6.085938 L 18.132812 8.859375 Z M 17.320312 12.351562 "/>
<path style=" stroke:none;fill-rule:nonzero;fill:rgb(25.490198%,60.000002%,41.960785%);fill-opacity:1;" d="M 7.679688 12.351562 L 5.308594 13.570312 C 3.691406 14.402344 1.726562 13.492188 1.3125 11.722656 L 0 6.085938 L 6.867188 8.859375 Z M 7.679688 12.351562 "/>
<path style=" stroke:none;fill-rule:nonzero;fill:rgb(33.725491%,74.901962%,55.29412%);fill-opacity:1;" d="M 21.625 10.957031 L 21.625 14.042969 C 21.625 15.585938 21.242188 17.039062 20.570312 18.3125 C 19.035156 21.199219 16 23.171875 12.5 23.171875 C 9 23.171875 5.964844 21.199219 4.429688 18.3125 C 3.757812 17.039062 3.375 15.585938 3.375 14.042969 L 3.375 10.957031 C 3.375 10.699219 3.386719 10.449219 3.40625 10.199219 C 3.78125 5.617188 7.539062 1.996094 12.175781 1.835938 C 12.285156 1.832031 12.390625 1.828125 12.5 1.828125 C 12.609375 1.828125 12.714844 1.832031 12.824219 1.835938 C 15.214844 1.917969 17.371094 2.921875 18.953125 4.503906 C 20.4375 5.988281 21.414062 7.980469 21.59375 10.199219 C 21.613281 10.449219 21.625 10.699219 21.625 10.957031 Z M 21.625 10.957031 "/>
<path style=" stroke:none;fill-rule:nonzero;fill:rgb(100%,100%,100%);fill-opacity:1;" d="M 8.007812 15.457031 C 6.992188 15.457031 6.167969 14.628906 6.167969 13.617188 C 6.167969 12.601562 6.992188 11.777344 8.007812 11.777344 C 9.019531 11.777344 9.84375 12.601562 9.84375 13.617188 C 9.84375 14.628906 9.019531 15.457031 8.007812 15.457031 Z M 8.007812 15.457031 "/>
<path style=" stroke:none;fill-rule:nonzero;fill:rgb(100%,100%,100%);fill-opacity:1;" d="M 16.992188 15.457031 C 15.980469 15.457031 15.15625 14.628906 15.15625 13.617188 C 15.15625 12.601562 15.980469 11.777344 16.992188 11.777344 C 18.007812 11.777344 18.832031 12.601562 18.832031 13.617188 C 18.832031 14.628906 18.007812 15.457031 16.992188 15.457031 Z M 16.992188 15.457031 "/>
<path style=" stroke:none;fill-rule:nonzero;fill:rgb(56.862748%,39.215687%,22.745098%);fill-opacity:1;" d="M 8.636719 13.617188 C 8.289062 13.617188 8.007812 13.335938 8.007812 12.988281 C 8.007812 12.769531 8.117188 12.578125 8.285156 12.464844 C 8.195312 12.445312 8.101562 12.433594 8.007812 12.433594 C 7.351562 12.433594 6.820312 12.960938 6.820312 13.617188 C 6.820312 14.269531 7.351562 14.800781 8.007812 14.800781 C 8.660156 14.800781 9.191406 14.269531 9.191406 13.617188 C 9.191406 13.519531 9.179688 13.429688 9.15625 13.339844 C 9.042969 13.507812 8.851562 13.617188 8.636719 13.617188 Z M 8.636719 13.617188 "/>
<path style=" stroke:none;fill-rule:nonzero;fill:rgb(56.862748%,39.215687%,22.745098%);fill-opacity:1;" d="M 17.621094 13.617188 C 17.273438 13.617188 16.992188 13.335938 16.992188 12.988281 C 16.992188 12.769531 17.101562 12.578125 17.269531 12.464844 C 17.183594 12.445312 17.089844 12.433594 16.992188 12.433594 C 16.339844 12.433594 15.808594 12.960938 15.808594 13.617188 C 15.808594 14.269531 16.339844 14.800781 16.992188 14.800781 C 17.648438 14.800781 18.179688 14.269531 18.179688 13.617188 C 18.179688 13.519531 18.164062 13.429688 18.144531 13.339844 C 18.03125 13.507812 17.839844 13.617188 17.621094 13.617188 Z M 17.621094 13.617188 "/>
<path style=" stroke:none;fill-rule:nonzero;fill:rgb(25.490198%,60.000002%,41.960785%);fill-opacity:1;" d="M 11.253906 15.085938 L 12.5 13.960938 L 13.746094 15.085938 Z M 11.253906 15.085938 "/>
<path style=" stroke:none;fill-rule:nonzero;fill:rgb(25.490198%,60.000002%,41.960785%);fill-opacity:1;" d="M 10.777344 11.042969 L 6.414062 9.582031 C 5.820312 9.382812 5.179688 9.703125 4.980469 10.296875 L 4.847656 10.695312 C 4.648438 11.289062 4.96875 11.933594 5.5625 12.132812 L 9.925781 13.589844 C 10.519531 13.789062 11.160156 13.46875 11.359375 12.875 L 11.492188 12.476562 C 11.691406 11.882812 11.371094 11.242188 10.777344 11.042969 Z M 10.777344 11.042969 "/>
<path style=" stroke:none;fill-rule:nonzero;fill:rgb(25.490198%,60.000002%,41.960785%);fill-opacity:1;" d="M 14.222656 11.042969 L 18.585938 9.582031 C 19.179688 9.382812 19.820312 9.703125 20.019531 10.296875 L 20.152344 10.695312 C 20.351562 11.289062 20.03125 11.933594 19.4375 12.132812 L 15.074219 13.589844 C 14.480469 13.789062 13.839844 13.46875 13.640625 12.875 L 13.507812 12.476562 C 13.308594 11.882812 13.628906 11.242188 14.222656 11.042969 Z M 14.222656 11.042969 "/>
<path style=" stroke:none;fill-rule:nonzero;fill:rgb(30.19608%,30.19608%,30.19608%);fill-opacity:1;" d="M 15.335938 15.585938 L 15.335938 16.429688 C 15.335938 17.167969 15.054688 17.839844 14.59375 18.34375 C 14.230469 18.746094 13.75 19.039062 13.210938 19.179688 C 12.984375 19.238281 12.746094 19.269531 12.5 19.269531 C 12.253906 19.269531 12.015625 19.238281 11.789062 19.179688 C 11.25 19.039062 10.769531 18.746094 10.40625 18.34375 C 9.945312 17.839844 9.664062 17.167969 9.664062 16.429688 L 9.664062 15.585938 C 9.917969 15.671875 10.175781 15.75 10.4375 15.8125 C 10.746094 15.886719 11.054688 15.945312 11.367188 15.984375 C 11.742188 16.035156 12.121094 16.058594 12.5 16.058594 C 12.878906 16.058594 13.257812 16.035156 13.632812 15.984375 C 13.945312 15.945312 14.253906 15.886719 14.5625 15.8125 C 14.824219 15.75 15.082031 15.671875 15.335938 15.585938 Z M 15.335938 15.585938 "/>
<path style=" stroke:none;fill-rule:nonzero;fill:rgb(90.196079%,90.196079%,90.196079%);fill-opacity:1;" d="M 11.367188 15.984375 L 11.167969 16.664062 L 11.070312 17.007812 C 11 17.246094 10.652344 17.222656 10.613281 16.976562 L 10.550781 16.546875 L 10.523438 16.367188 L 10.4375 15.8125 C 10.746094 15.886719 11.054688 15.945312 11.367188 15.984375 Z M 11.367188 15.984375 "/>
<path style=" stroke:none;fill-rule:nonzero;fill:rgb(90.196079%,90.196079%,90.196079%);fill-opacity:1;" d="M 14.5625 15.8125 L 14.476562 16.367188 L 14.449219 16.546875 L 14.386719 16.976562 C 14.347656 17.222656 14 17.246094 13.929688 17.007812 L 13.832031 16.664062 L 13.632812 15.984375 C 13.945312 15.945312 14.253906 15.886719 14.5625 15.8125 Z M 14.5625 15.8125 "/>
<path style=" stroke:none;fill-rule:nonzero;fill:rgb(25.490198%,60.000002%,41.960785%);fill-opacity:1;" d="M 6.511719 8.136719 C 6.511719 8.136719 6.558594 8.148438 6.648438 8.167969 C 6.734375 8.191406 6.867188 8.21875 7.03125 8.261719 C 7.113281 8.28125 7.203125 8.308594 7.304688 8.332031 C 7.402344 8.351562 7.507812 8.375 7.625 8.402344 C 7.738281 8.425781 7.855469 8.457031 7.984375 8.484375 C 8.109375 8.511719 8.246094 8.535156 8.386719 8.5625 C 8.527344 8.589844 8.671875 8.621094 8.820312 8.648438 C 8.972656 8.671875 9.128906 8.699219 9.289062 8.722656 C 9.371094 8.738281 9.449219 8.75 9.535156 8.765625 C 9.617188 8.773438 9.699219 8.785156 9.785156 8.792969 C 9.953125 8.8125 10.125 8.839844 10.300781 8.859375 C 10.476562 8.875 10.652344 8.890625 10.835938 8.910156 C 11.015625 8.929688 11.199219 8.933594 11.382812 8.945312 C 11.75 8.972656 12.125 8.972656 12.5 8.980469 C 12.875 8.972656 13.25 8.972656 13.617188 8.945312 C 13.800781 8.933594 13.984375 8.929688 14.164062 8.90625 C 14.347656 8.890625 14.523438 8.871094 14.699219 8.859375 C 14.875 8.839844 15.046875 8.8125 15.214844 8.792969 C 15.300781 8.78125 15.382812 8.773438 15.464844 8.761719 C 15.546875 8.75 15.628906 8.734375 15.710938 8.722656 C 15.871094 8.695312 16.027344 8.671875 16.179688 8.648438 C 16.328125 8.621094 16.472656 8.585938 16.613281 8.5625 C 16.753906 8.535156 16.890625 8.511719 17.015625 8.484375 C 17.144531 8.453125 17.265625 8.425781 17.378906 8.398438 C 17.492188 8.375 17.597656 8.351562 17.699219 8.328125 C 17.796875 8.308594 17.886719 8.28125 17.96875 8.261719 C 18.132812 8.21875 18.261719 8.191406 18.351562 8.167969 C 18.441406 8.148438 18.488281 8.136719 18.488281 8.136719 C 18.488281 8.136719 18.449219 8.164062 18.371094 8.210938 C 18.292969 8.257812 18.175781 8.328125 18.027344 8.410156 C 17.953125 8.453125 17.871094 8.5 17.78125 8.546875 C 17.6875 8.59375 17.585938 8.640625 17.480469 8.691406 C 17.371094 8.742188 17.253906 8.792969 17.132812 8.851562 C 17.011719 8.902344 16.878906 8.949219 16.742188 9.003906 C 16.605469 9.058594 16.460938 9.113281 16.3125 9.164062 C 16.160156 9.210938 16 9.257812 15.839844 9.308594 C 15.757812 9.332031 15.675781 9.355469 15.59375 9.378906 C 15.507812 9.398438 15.421875 9.417969 15.335938 9.4375 C 15.164062 9.480469 14.988281 9.519531 14.804688 9.558594 C 14.625 9.589844 14.4375 9.617188 14.25 9.648438 C 14.0625 9.683594 13.871094 9.695312 13.675781 9.714844 C 13.289062 9.761719 12.894531 9.761719 12.5 9.777344 C 12.105469 9.761719 11.710938 9.761719 11.324219 9.714844 C 11.128906 9.695312 10.9375 9.679688 10.75 9.648438 C 10.5625 9.617188 10.375 9.589844 10.195312 9.554688 C 10.011719 9.519531 9.835938 9.480469 9.664062 9.4375 C 9.578125 9.417969 9.492188 9.398438 9.40625 9.378906 C 9.324219 9.355469 9.242188 9.332031 9.160156 9.304688 C 9 9.257812 8.839844 9.210938 8.691406 9.164062 C 8.539062 9.113281 8.398438 9.054688 8.257812 9.003906 C 8.121094 8.949219 7.988281 8.902344 7.867188 8.847656 C 7.746094 8.792969 7.628906 8.742188 7.519531 8.6875 C 7.410156 8.636719 7.3125 8.589844 7.21875 8.546875 C 7.128906 8.5 7.046875 8.453125 6.972656 8.410156 C 6.824219 8.328125 6.710938 8.257812 6.628906 8.210938 C 6.550781 8.164062 6.511719 8.136719 6.511719 8.136719 Z M 6.511719 8.136719 "/>
<path style=" stroke:none;fill-rule:nonzero;fill:rgb(25.490198%,60.000002%,41.960785%);fill-opacity:1;" d="M 7.410156 5.851562 C 7.410156 5.851562 7.449219 5.863281 7.527344 5.878906 C 7.601562 5.898438 7.714844 5.921875 7.851562 5.957031 C 7.921875 5.976562 8 5.996094 8.085938 6.015625 C 8.167969 6.035156 8.257812 6.054688 8.355469 6.078125 C 8.453125 6.097656 8.554688 6.121094 8.660156 6.148438 C 8.769531 6.167969 8.886719 6.191406 9.003906 6.214844 C 9.125 6.234375 9.246094 6.265625 9.375 6.285156 C 9.503906 6.304688 9.636719 6.328125 9.773438 6.351562 C 9.839844 6.359375 9.910156 6.371094 9.980469 6.382812 C 10.050781 6.394531 10.121094 6.402344 10.191406 6.410156 C 10.335938 6.425781 10.480469 6.449219 10.628906 6.464844 C 10.78125 6.476562 10.929688 6.492188 11.085938 6.507812 C 11.238281 6.527344 11.394531 6.527344 11.550781 6.539062 C 11.863281 6.5625 12.183594 6.5625 12.5 6.570312 C 12.816406 6.558594 13.136719 6.5625 13.449219 6.539062 C 13.605469 6.527344 13.761719 6.523438 13.914062 6.507812 C 14.070312 6.492188 14.21875 6.476562 14.371094 6.464844 C 14.519531 6.449219 14.664062 6.425781 14.808594 6.410156 C 14.878906 6.402344 14.949219 6.390625 15.019531 6.382812 C 15.089844 6.371094 15.160156 6.359375 15.226562 6.347656 C 15.363281 6.328125 15.496094 6.304688 15.625 6.285156 C 15.753906 6.261719 15.875 6.234375 15.996094 6.210938 C 16.113281 6.1875 16.230469 6.167969 16.339844 6.144531 C 16.445312 6.121094 16.546875 6.097656 16.644531 6.074219 C 16.742188 6.054688 16.832031 6.03125 16.917969 6.015625 C 17 5.996094 17.078125 5.972656 17.148438 5.957031 C 17.285156 5.921875 17.398438 5.898438 17.472656 5.878906 C 17.550781 5.863281 17.589844 5.851562 17.589844 5.851562 C 17.589844 5.851562 17.554688 5.875 17.488281 5.914062 C 17.421875 5.953125 17.324219 6.011719 17.195312 6.085938 C 17.132812 6.121094 17.0625 6.160156 16.984375 6.199219 C 16.90625 6.238281 16.820312 6.277344 16.730469 6.324219 C 16.636719 6.363281 16.539062 6.410156 16.4375 6.457031 C 16.332031 6.503906 16.21875 6.542969 16.105469 6.589844 C 15.988281 6.632812 15.867188 6.679688 15.738281 6.722656 C 15.609375 6.761719 15.476562 6.804688 15.339844 6.847656 C 15.269531 6.867188 15.199219 6.886719 15.128906 6.90625 C 15.054688 6.925781 14.984375 6.941406 14.910156 6.957031 C 14.765625 6.992188 14.613281 7.027344 14.460938 7.058594 C 14.304688 7.085938 14.148438 7.109375 13.988281 7.136719 C 13.828125 7.164062 13.664062 7.175781 13.5 7.191406 C 13.171875 7.234375 12.835938 7.234375 12.5 7.246094 C 12.164062 7.234375 11.828125 7.230469 11.5 7.191406 C 11.335938 7.175781 11.171875 7.164062 11.011719 7.136719 C 10.851562 7.109375 10.695312 7.085938 10.539062 7.058594 C 10.386719 7.027344 10.238281 6.992188 10.089844 6.957031 C 10.015625 6.941406 9.945312 6.921875 9.871094 6.90625 C 9.800781 6.886719 9.730469 6.867188 9.660156 6.84375 C 9.523438 6.804688 9.390625 6.765625 9.261719 6.722656 C 9.132812 6.679688 9.011719 6.632812 8.894531 6.589844 C 8.78125 6.542969 8.667969 6.503906 8.5625 6.457031 C 8.457031 6.410156 8.359375 6.363281 8.269531 6.320312 C 8.175781 6.277344 8.089844 6.238281 8.011719 6.199219 C 7.933594 6.160156 7.867188 6.117188 7.800781 6.082031 C 7.675781 6.011719 7.578125 5.953125 7.511719 5.914062 C 7.445312 5.875 7.410156 5.851562 7.410156 5.851562 Z M 7.410156 5.851562 "/>
<path style=" stroke:none;fill-rule:nonzero;fill:rgb(100%,100%,100%);fill-opacity:1;" d="M 10.550781 16.546875 C 10.753906 16.59375 10.960938 16.632812 11.167969 16.664062 L 11.035156 17.128906 C 10.972656 17.339844 10.667969 17.320312 10.632812 17.101562 Z M 10.550781 16.546875 "/>
<path style=" stroke:none;fill-rule:nonzero;fill:rgb(100%,100%,100%);fill-opacity:1;" d="M 14.449219 16.546875 L 14.367188 17.101562 C 14.332031 17.320312 14.027344 17.339844 13.964844 17.128906 L 13.832031 16.664062 C 14.039062 16.632812 14.246094 16.59375 14.449219 16.546875 Z M 14.449219 16.546875 "/>
</g>
</svg>
