<?xml version="1.0" encoding="UTF-8"?>
<svg xmlns="http://www.w3.org/2000/svg" xmlns:xlink="http://www.w3.org/1999/xlink" width="25px" height="25px" viewBox="0 0 25 25" version="1.1">
<g id="surface1">
<path style=" stroke:none;fill-rule:nonzero;fill:rgb(0%,0%,0%);fill-opacity:1;" d="M 12.5 2.492188 C 12.441406 2.546875 12.34375 2.671875 12.226562 2.855469 C 12.003906 3.210938 11.710938 3.792969 11.328125 4.554688 L 11.328125 5.039062 C 11.632812 5.273438 12.058594 5.410156 12.5 5.410156 C 12.941406 5.410156 13.367188 5.273438 13.671875 5.039062 L 13.671875 4.554688 C 13.289062 3.792969 12.996094 3.210938 12.773438 2.855469 C 12.65625 2.671875 12.558594 2.546875 12.5 2.488281 Z M 10.414062 5.140625 C 9.039062 5.476562 7.683594 6.148438 6.402344 7.148438 C 5.617188 11.089844 4.878906 15.734375 5.574219 19.578125 C 5.878906 19.691406 6.195312 19.796875 6.523438 19.890625 L 6.375 19.292969 L 6.164062 18.976562 L 6.542969 18.722656 C 6.851562 18.519531 7.207031 18.339844 7.59375 18.1875 C 7.347656 17.855469 7.1875 17.433594 7.03125 17 C 6.761719 16.269531 6.558594 15.445312 6.363281 14.851562 L 5.886719 13.394531 L 7.085938 14.351562 C 8.28125 15.304688 9.484375 15.949219 11.132812 17.101562 L 11.625 17.445312 C 11.914062 17.429688 12.207031 17.425781 12.5 17.425781 C 12.792969 17.425781 13.085938 17.429688 13.375 17.445312 L 13.867188 17.101562 C 15.515625 15.949219 16.71875 15.304688 17.914062 14.351562 L 19.113281 13.394531 L 18.636719 14.851562 C 18.441406 15.445312 18.238281 16.269531 17.96875 17 C 17.8125 17.433594 17.652344 17.855469 17.40625 18.1875 C 17.792969 18.339844 18.148438 18.519531 18.457031 18.722656 L 18.835938 18.976562 L 18.625 19.292969 L 18.476562 19.890625 C 18.804688 19.796875 19.121094 19.691406 19.425781 19.578125 C 20.121094 15.734375 19.382812 11.089844 18.597656 7.148438 C 17.316406 6.148438 15.960938 5.476562 14.585938 5.140625 L 14.585938 5.449219 L 14.453125 5.582031 C 13.9375 6.097656 13.210938 6.328125 12.5 6.328125 C 11.789062 6.328125 11.0625 6.097656 10.546875 5.582031 L 10.414062 5.449219 Z M 14.121094 7.871094 L 14.777344 8.511719 L 14.457031 8.839844 C 13.824219 9.480469 13.128906 9.796875 12.441406 9.757812 C 11.75 9.722656 11.132812 9.363281 10.566406 8.859375 L 10.222656 8.554688 L 10.835938 7.871094 L 11.175781 8.175781 C 11.652344 8.601562 12.09375 8.824219 12.488281 8.84375 C 12.882812 8.863281 13.292969 8.714844 13.800781 8.195312 Z M 6.796875 8.058594 C 7.765625 8.058594 8.820312 8.503906 9.769531 9.03125 C 10.722656 9.5625 11.546875 10.175781 12.007812 10.636719 L 11.363281 11.285156 C 11.007812 10.929688 10.207031 10.324219 9.324219 9.832031 C 8.445312 9.34375 7.460938 8.976562 6.796875 8.976562 Z M 18.199219 8.058594 L 18.199219 8.976562 C 17.539062 8.976562 16.554688 9.34375 15.675781 9.832031 C 14.792969 10.324219 13.992188 10.929688 13.636719 11.285156 L 12.992188 10.636719 C 13.453125 10.175781 14.277344 9.5625 15.230469 9.03125 C 16.179688 8.503906 17.234375 8.058594 18.203125 8.058594 Z M 7.121094 9.820312 C 7.9375 10.636719 9.445312 12.132812 11.683594 12.132812 L 11.683594 12.148438 L 12.503906 10.964844 L 13.3125 12.160156 L 13.3125 12.132812 C 15.554688 12.132812 17.0625 10.636719 17.878906 9.820312 L 18.523438 10.46875 C 18.125 10.871094 17.492188 11.503906 16.640625 12.042969 C 16.878906 12.273438 17.03125 12.597656 17.03125 12.957031 C 17.03125 13.652344 16.457031 14.226562 15.757812 14.226562 C 15.058594 14.226562 14.484375 13.652344 14.484375 12.957031 C 14.484375 12.945312 14.484375 12.9375 14.484375 12.929688 C 14.296875 12.96875 14.097656 13 13.898438 13.019531 L 15.269531 15.039062 L 15.082031 15.296875 C 14.734375 15.789062 14.269531 16.0625 13.8125 16.1875 C 13.355469 16.3125 12.90625 16.304688 12.5 16.304688 C 12.09375 16.304688 11.644531 16.3125 11.183594 16.1875 C 10.722656 16.066406 10.253906 15.796875 9.882812 15.3125 L 9.679688 15.046875 L 11.082031 13.015625 C 10.886719 12.996094 10.699219 12.96875 10.515625 12.929688 C 10.515625 12.9375 10.515625 12.945312 10.515625 12.957031 C 10.515625 13.652344 9.9375 14.226562 9.242188 14.226562 C 8.542969 14.226562 7.96875 13.652344 7.96875 12.957031 C 7.96875 12.597656 8.121094 12.273438 8.359375 12.042969 C 7.507812 11.503906 6.875 10.871094 6.476562 10.46875 Z M 0.867188 10.609375 C 1.011719 10.945312 1.277344 11.375 1.675781 11.945312 C 2.285156 12.816406 3.121094 13.980469 3.949219 15.640625 C 4.039062 15.824219 4.175781 15.9375 4.371094 16.023438 C 4.375 15.347656 4.40625 14.667969 4.457031 13.988281 L 3.242188 12.9375 L 3.839844 12.242188 L 4.554688 12.863281 C 4.601562 12.421875 4.65625 11.984375 4.714844 11.546875 C 4.324219 11.242188 3.847656 11.039062 3.320312 10.894531 C 2.507812 10.671875 1.613281 10.621094 0.867188 10.609375 Z M 24.132812 10.609375 C 23.386719 10.621094 22.492188 10.671875 21.679688 10.894531 C 21.152344 11.039062 20.675781 11.242188 20.285156 11.546875 C 20.34375 11.984375 20.398438 12.421875 20.445312 12.863281 L 21.160156 12.242188 L 21.757812 12.9375 L 20.542969 13.988281 C 20.59375 14.667969 20.625 15.347656 20.628906 16.023438 C 20.824219 15.9375 20.957031 15.824219 21.050781 15.640625 C 21.878906 13.980469 22.714844 12.816406 23.324219 11.945312 C 23.722656 11.375 23.988281 10.945312 24.132812 10.609375 Z M 12.496094 12.585938 L 10.832031 14.992188 C 11.011719 15.15625 11.203125 15.246094 11.417969 15.300781 C 11.726562 15.382812 12.09375 15.390625 12.5 15.390625 C 12.90625 15.390625 13.273438 15.382812 13.574219 15.304688 C 13.785156 15.246094 13.964844 15.160156 14.132812 15 Z M 9.242188 12.597656 C 9.039062 12.597656 8.886719 12.753906 8.886719 12.957031 C 8.886719 13.15625 9.039062 13.3125 9.242188 13.3125 C 9.445312 13.3125 9.597656 13.15625 9.597656 12.957031 C 9.597656 12.753906 9.445312 12.597656 9.242188 12.597656 Z M 15.757812 12.597656 C 15.554688 12.597656 15.402344 12.753906 15.402344 12.957031 C 15.402344 13.15625 15.554688 13.3125 15.757812 13.3125 C 15.960938 13.3125 16.113281 13.15625 16.113281 12.957031 C 16.113281 12.753906 15.960938 12.597656 15.757812 12.597656 Z M 7.636719 15.886719 C 7.71875 16.160156 7.800781 16.4375 7.890625 16.6875 C 8.089844 17.230469 8.34375 17.625 8.5 17.78125 L 9.84375 17.335938 C 9.042969 16.804688 8.324219 16.355469 7.636719 15.886719 Z M 17.363281 15.886719 C 16.675781 16.355469 15.957031 16.804688 15.15625 17.335938 L 16.5 17.78125 C 16.65625 17.625 16.910156 17.230469 17.109375 16.6875 C 17.199219 16.4375 17.28125 16.160156 17.363281 15.886719 Z M 12.5 18.339844 C 10.488281 18.339844 8.464844 18.710938 7.324219 19.324219 L 7.988281 21.976562 C 11 22.6875 14 22.6875 17.011719 21.976562 L 17.675781 19.324219 C 16.535156 18.710938 14.511719 18.339844 12.5 18.339844 Z M 12.5 18.855469 C 13.640625 18.851562 14.785156 19.058594 15.921875 19.492188 L 16.347656 19.652344 L 16.023438 20.511719 L 15.59375 20.347656 C 13.519531 19.558594 11.484375 19.585938 9.398438 20.351562 L 8.96875 20.507812 L 8.65625 19.648438 L 9.085938 19.488281 C 10.214844 19.074219 11.355469 18.859375 12.5 18.855469 Z M 12.5 18.855469 "/>
</g>
</svg>
