<?xml version="1.0" encoding="UTF-8"?>
<svg xmlns="http://www.w3.org/2000/svg" xmlns:xlink="http://www.w3.org/1999/xlink" width="25px" height="25px" viewBox="0 0 25 25" version="1.1">
<g id="surface1">
<path style="fill:none;stroke-width:16;stroke-linecap:round;stroke-linejoin:round;stroke:rgb(0%,0%,0%);stroke-opacity:0.898039;stroke-miterlimit:4;" d="M 170.625 50 C 154.8125 63.5625 160.5 96.375 163.0625 103.3125 C 165.9375 110.8125 171.8125 117.125 174.6875 120.5 C 177.4375 123.75 184.5 129 188.5 130.5 C 201.5 135.1875 214.4375 136 227.625 131.25 C 240.6875 126.5625 249.9375 118.375 253.9375 104.6875 C 257 94.125 258.5625 83.4375 259.25 72.3125 C 259.3125 64.375 257.1875 56.75 253 49.75 C 247.375 40.4375 239 34.1875 228.5 32.125 C 219.5625 30.375 210.1875 30.5 201.125 32.4375 C 197.75 33.125 194.4375 34.875 191.375 36.625 " transform="matrix(0.0625,0,0,0.0625,0,0)"/>
<path style="fill:none;stroke-width:16;stroke-linecap:round;stroke-linejoin:round;stroke:rgb(0%,0%,0%);stroke-opacity:0.898039;stroke-miterlimit:4;" d="M 194.875 134.4375 C 188.25 155.3125 184.9375 169.3125 184.9375 176.4375 C 184.9375 187.0625 182.3125 214.625 182.3125 235.1875 " transform="matrix(0.0625,0,0,0.0625,0,0)"/>
<path style="fill:none;stroke-width:16;stroke-linecap:round;stroke-linejoin:round;stroke:rgb(0%,0%,0%);stroke-opacity:0.898039;stroke-miterlimit:4;" d="M 148.75 156.8125 C 194.8125 158.875 219.375 161.1875 222.5625 163.8125 C 227.25 167.75 239.625 201.625 243.5 205.4375 C 246.125 208 262.125 196.75 291.5625 171.625 C 292.5 169 294.3125 166.4375 297 163.8125 " transform="matrix(0.0625,0,0,0.0625,0,0)"/>
<path style="fill:none;stroke-width:16;stroke-linecap:round;stroke-linejoin:round;stroke:rgb(0%,0%,0%);stroke-opacity:0.898039;stroke-miterlimit:4;" d="M 150.125 158.25 C 132.1875 190.375 122.1875 207.125 120.25 208.5 C 117.375 210.5 106.1875 182.4375 102.3125 179.5 C 99.75 177.5 97.5 173.4375 95.5625 167.375 " transform="matrix(0.0625,0,0,0.0625,0,0)"/>
<path style="fill:none;stroke-width:16;stroke-linecap:round;stroke-linejoin:round;stroke:rgb(0%,0%,0%);stroke-opacity:0.898039;stroke-miterlimit:4;" d="M 208.875 189 C 196.3125 187.125 188 186.1875 184.0625 186.1875 C 180.0625 186.1875 173 186.1875 162.75 186.1875 " transform="matrix(0.0625,0,0,0.0625,0,0)"/>
<path style="fill:none;stroke-width:16;stroke-linecap:round;stroke-linejoin:round;stroke:rgb(0%,0%,0%);stroke-opacity:0.898039;stroke-miterlimit:4;" d="M 159.9375 217 L 206.9375 212.8125 L 210.3125 212.8125 " transform="matrix(0.0625,0,0,0.0625,0,0)"/>
<path style="fill:none;stroke-width:16;stroke-linecap:round;stroke-linejoin:round;stroke:rgb(0%,0%,0%);stroke-opacity:0.898039;stroke-miterlimit:4;" d="M 165.625 368.125 L 145.9375 368.125 C 154.5 332.3125 158.75 313.125 158.75 310.4375 C 158.75 309.3125 155.9375 288.5 150.3125 248 L 215.625 243.5625 L 231.25 299.75 L 194.8125 368.125 L 207.3125 368.125 " transform="matrix(0.0625,0,0,0.0625,0,0)"/>
<path style="fill:none;stroke-width:16;stroke-linecap:round;stroke-linejoin:round;stroke:rgb(0%,0%,0%);stroke-opacity:0.898039;stroke-miterlimit:4;" d="M 200.8125 84.0625 C 201.3125 85.75 201.5625 86.9375 201.5625 87.5625 C 201.5625 89.125 200.8125 90.125 200.8125 91.0625 " transform="matrix(0.0625,0,0,0.0625,0,0)"/>
<path style="fill:none;stroke-width:16;stroke-linecap:round;stroke-linejoin:round;stroke:rgb(0%,0%,0%);stroke-opacity:0.898039;stroke-miterlimit:4;" d="M 225 84.0625 C 225.25 85.6875 225.375 86.8125 225.375 87.4375 C 225.375 89.0625 224.5625 90.125 224.5625 91.0625 " transform="matrix(0.0625,0,0,0.0625,0,0)"/>
<path style="fill:none;stroke-width:16;stroke-linecap:round;stroke-linejoin:round;stroke:rgb(0%,0%,0%);stroke-opacity:0.898039;stroke-miterlimit:4;" d="M 106.75 163.8125 L 103.6875 178 C 100.8125 180.6875 97.6875 182 94.1875 182 " transform="matrix(0.0625,0,0,0.0625,0,0)"/>
<path style="fill:none;stroke-width:16;stroke-linecap:round;stroke-linejoin:round;stroke:rgb(0%,0%,0%);stroke-opacity:0.898039;stroke-miterlimit:4;" d="M 284.4375 162.4375 C 285.75 169.875 288.4375 173.625 292.4375 173.625 C 296.4375 173.625 301.25 173.625 306.8125 173.625 " transform="matrix(0.0625,0,0,0.0625,0,0)"/>
</g>
</svg>
