<?xml version="1.0" encoding="UTF-8"?>
<svg xmlns="http://www.w3.org/2000/svg" xmlns:xlink="http://www.w3.org/1999/xlink" width="25px" height="25px" viewBox="0 0 25 25" version="1.1">
<g id="surface1">
<path style=" stroke:none;fill-rule:nonzero;fill:rgb(0%,0%,0%);fill-opacity:1;" d="M 12.792969 4.726562 C 9.863281 4.726562 7.136719 5.511719 4.859375 6.859375 L 5.21875 11.308594 L 5.914062 11.488281 C 6.34375 7.90625 9.113281 5.132812 12.460938 5.132812 C 15.894531 5.132812 18.726562 8.058594 19.035156 11.777344 L 19.53125 11.652344 L 19.953125 6.433594 C 17.84375 5.347656 15.398438 4.726562 12.792969 4.726562 Z M 21.679688 7.476562 L 21.378906 11.179688 L 23.46875 10.648438 C 23.46875 10.648438 21.824219 13.121094 21.15625 13.957031 L 20.335938 24.121094 L 24.121094 24.121094 L 24.121094 9.683594 C 23.398438 8.851562 22.578125 8.109375 21.679688 7.476562 Z M 3.144531 8.050781 C 2.296875 8.738281 1.535156 9.523438 0.878906 10.398438 L 0.878906 24.121094 L 4.441406 24.121094 L 3.570312 13.300781 C 3.054688 12.632812 2.699219 12.09375 2.679688 12.066406 L 1.558594 10.378906 L 3.367188 10.839844 Z M 17.277344 8.789062 L 17.570312 10.589844 L 15.355469 8.921875 L 15.507812 11.394531 L 13.34375 9.339844 L 12.429688 11.679688 L 11.308594 9.386719 L 9.574219 11.203125 L 9.226562 8.898438 L 7.621094 10.785156 L 7.289062 9.441406 C 6.855469 10.386719 6.628906 11.414062 6.632812 12.453125 C 6.632812 12.636719 6.640625 12.816406 6.652344 12.996094 C 6.433594 12.636719 6.253906 12.378906 6.253906 12.378906 L 3.328125 11.632812 C 3.328125 11.632812 5.765625 15.3125 7.015625 15.3125 C 7.082031 15.3125 7.144531 15.300781 7.203125 15.28125 C 7.789062 16.644531 8.785156 17.75 10.011719 18.390625 C 10.453125 16.617188 11.402344 14.050781 11.671875 13.339844 C 11.554688 13.199219 11.375 13.101562 11.15625 13.039062 C 10.757812 12.921875 10.234375 12.917969 9.742188 12.980469 C 9.257812 13.035156 8.804688 13.152344 8.53125 13.277344 L 8.210938 12.566406 C 9.097656 12.160156 11.757812 11.730469 12.53125 13.277344 C 11.945312 14.347656 10.589844 19.363281 10.5625 19.621094 C 10.53125 19.996094 10.601562 20.261719 10.789062 20.449219 C 11.125 20.789062 11.867188 20.917969 12.9375 20.824219 C 14.074219 20.722656 14.507812 20.460938 14.707031 20.300781 C 15.175781 19.914062 14.800781 18.90625 14.667969 18.507812 C 14.554688 18.183594 14.421875 17.820312 14.300781 17.492188 L 14.300781 17.488281 L 14.25 17.351562 C 13.328125 14.882812 12.953125 13.660156 13.496094 13.140625 L 13.5 13.136719 C 13.84375 12.808594 15.050781 11.761719 16.210938 11.972656 C 16.792969 12.082031 17.246094 12.46875 17.5625 13.132812 L 16.757812 13.28125 C 16.570312 12.972656 16.34375 12.792969 16.070312 12.746094 C 15.652344 12.667969 15.136719 12.886719 14.679688 13.195312 C 14.457031 13.34375 14.246094 13.511719 14.050781 13.695312 C 14.035156 13.742188 13.96875 13.988281 14.230469 14.902344 C 14.417969 15.570312 14.71875 16.375 14.984375 17.082031 C 15.132812 17.484375 15.261719 17.832031 15.367188 18.128906 C 16.335938 17.5 17.132812 16.558594 17.644531 15.4375 C 17.734375 15.539062 17.890625 15.585938 18.007812 15.585938 C 19.261719 15.585938 21.699219 11.90625 21.699219 11.90625 L 18.769531 12.652344 C 18.769531 12.652344 18.488281 13.050781 18.199219 13.554688 C 18.253906 13.191406 18.28125 12.824219 18.28125 12.457031 C 18.289062 11.164062 17.941406 9.898438 17.277344 8.789062 Z M 9.871094 13.492188 C 10.339844 13.492188 10.71875 13.882812 10.71875 13.882812 C 10.71875 13.882812 10.339844 14.273438 9.871094 14.273438 C 9.40625 14.273438 9.023438 13.882812 9.023438 13.882812 C 9.023438 13.882812 9.40625 13.492188 9.871094 13.492188 Z M 15.523438 13.492188 C 15.992188 13.492188 16.371094 13.882812 16.371094 13.882812 C 16.371094 13.882812 15.992188 14.273438 15.523438 14.273438 C 15.058594 14.273438 14.675781 13.882812 14.675781 13.882812 C 14.675781 13.882812 15.058594 13.492188 15.523438 13.492188 Z M 5.550781 15.457031 L 6.253906 24.121094 L 18.519531 24.121094 L 19.183594 15.9375 C 18.769531 16.21875 18.398438 16.355469 18.042969 16.363281 C 17.460938 17.402344 16.621094 18.273438 15.605469 18.894531 C 15.660156 19.113281 15.671875 19.546875 15.671875 19.621094 C 15.667969 20.503906 15.460938 21.386719 13.007812 21.605469 C 12.757812 21.625 12.519531 21.636719 12.296875 21.636719 C 11.335938 21.636719 10.660156 21.429688 10.238281 21.003906 C 9.882812 20.644531 9.734375 20.15625 9.789062 19.546875 C 9.800781 19.4375 9.816406 19.3125 9.839844 19.179688 C 8.515625 18.546875 7.417969 17.441406 6.710938 16.0625 C 6.355469 15.988281 5.972656 15.792969 5.550781 15.457031 Z M 5.550781 15.457031 "/>
</g>
</svg>
