<?xml version="1.0" encoding="UTF-8"?>
<svg xmlns="http://www.w3.org/2000/svg" xmlns:xlink="http://www.w3.org/1999/xlink" width="25px" height="25px" viewBox="0 0 25 25" version="1.1">
<g id="surface1">
<path style=" stroke:none;fill-rule:nonzero;fill:rgb(16.078432%,18.431373%,20%);fill-opacity:1;" d="M 22.222656 25 L 22.222656 23.609375 C 22.222656 21.308594 20.355469 19.445312 18.054688 19.445312 L 6.945312 19.445312 C 4.644531 19.445312 2.777344 21.308594 2.777344 23.609375 L 2.777344 25 Z M 22.222656 25 "/>
<path style=" stroke:none;fill-rule:nonzero;fill:rgb(74.509805%,9.803922%,19.215687%);fill-opacity:1;" d="M 12.5 8.332031 C 4.628906 8.332031 1.390625 11.804688 1.390625 11.804688 C 1.390625 13.195312 4.695312 18.328125 6.25 19.871094 C 7.566406 21.183594 10.496094 24.304688 12.5 24.304688 C 14.503906 24.304688 17.433594 21.183594 18.75 19.871094 C 20.304688 18.328125 23.609375 13.195312 23.609375 11.804688 C 23.609375 11.804688 20.371094 8.332031 12.5 8.332031 Z M 12.5 8.332031 "/>
<path style=" stroke:none;fill-rule:nonzero;fill:rgb(75.686276%,41.176471%,30.980393%);fill-opacity:1;" d="M 13.019531 13.714844 L 11.980469 13.714844 C 11.691406 13.714844 11.457031 13.480469 11.457031 13.195312 C 11.457031 12.90625 11.691406 12.671875 11.980469 12.671875 L 13.019531 12.671875 C 13.308594 12.671875 13.542969 12.90625 13.542969 13.195312 C 13.542969 13.480469 13.308594 13.714844 13.019531 13.714844 Z M 13.019531 13.714844 "/>
<path style=" stroke:none;fill-rule:nonzero;fill:rgb(95.294118%,82.352942%,63.529414%);fill-opacity:1;" d="M 9.925781 19.617188 C 11.003906 20.398438 11.980469 20.335938 12.5 20.335938 C 13.019531 20.335938 14.113281 20.398438 15.066406 19.636719 L 15.074219 16.589844 L 9.925781 16.589844 Z M 9.925781 19.617188 "/>
<path style=" stroke:none;fill-rule:nonzero;fill:rgb(88.627452%,75.686276%,58.823532%);fill-opacity:1;" d="M 9.921875 17.746094 C 10.640625 18.558594 11.527344 18.777344 12.496094 18.777344 C 13.464844 18.777344 14.355469 18.558594 15.074219 17.746094 L 15.074219 15.6875 L 9.921875 15.6875 Z M 9.921875 17.746094 "/>
<path style=" stroke:none;fill-rule:nonzero;fill:rgb(16.078432%,18.431373%,20%);fill-opacity:1;" d="M 14.785156 3.355469 C 13.558594 2.957031 10.679688 3.066406 9.960938 4.003906 C 8.085938 4.039062 5.890625 5.730469 5.601562 7.960938 C 5.320312 10.171875 5.953125 11.195312 6.179688 12.859375 C 6.433594 14.742188 7.492188 15.34375 8.339844 15.59375 C 9.558594 17.203125 10.851562 17.132812 13.023438 17.132812 C 17.265625 17.132812 19.285156 14.296875 19.464844 9.472656 C 19.570312 6.558594 17.859375 4.351562 14.785156 3.355469 Z M 14.785156 3.355469 "/>
<path style=" stroke:none;fill-rule:nonzero;fill:rgb(95.294118%,82.352942%,63.529414%);fill-opacity:1;" d="M 17.296875 9.679688 C 16.886719 9.113281 16.363281 8.65625 15.210938 8.492188 C 15.640625 8.691406 16.054688 9.375 16.109375 9.753906 C 16.164062 10.128906 16.21875 10.4375 15.875 10.058594 C 14.503906 8.542969 13.015625 9.140625 11.535156 8.214844 C 10.503906 7.570312 10.1875 6.855469 10.1875 6.855469 C 10.1875 6.855469 10.0625 7.808594 8.496094 8.78125 C 8.039062 9.0625 7.5 9.691406 7.199219 10.617188 C 6.984375 11.28125 7.050781 11.878906 7.050781 12.890625 C 7.050781 15.855469 9.492188 18.347656 12.503906 18.347656 C 15.515625 18.347656 17.957031 15.832031 17.957031 12.890625 C 17.960938 11.046875 17.765625 10.328125 17.296875 9.679688 Z M 17.296875 9.679688 "/>
<path style=" stroke:none;fill-rule:nonzero;fill:rgb(75.686276%,41.176471%,30.980393%);fill-opacity:1;" d="M 13.105469 14.40625 L 11.894531 14.40625 C 11.726562 14.40625 11.589844 14.269531 11.589844 14.101562 C 11.589844 13.9375 11.726562 13.800781 11.894531 13.800781 L 13.105469 13.800781 C 13.273438 13.800781 13.410156 13.9375 13.410156 14.101562 C 13.410156 14.269531 13.273438 14.40625 13.105469 14.40625 Z M 13.105469 14.40625 "/>
<path style=" stroke:none;fill-rule:nonzero;fill:rgb(86.666667%,18.039216%,26.666668%);fill-opacity:1;" d="M 10.074219 12.285156 C 9.742188 12.285156 9.46875 12.015625 9.46875 11.679688 L 9.46875 11.074219 C 9.46875 10.738281 9.742188 10.464844 10.074219 10.464844 C 10.410156 10.464844 10.683594 10.738281 10.683594 11.074219 L 10.683594 11.679688 C 10.683594 12.015625 10.410156 12.285156 10.074219 12.285156 Z M 14.925781 12.285156 C 14.589844 12.285156 14.316406 12.015625 14.316406 11.679688 L 14.316406 11.074219 C 14.316406 10.738281 14.589844 10.464844 14.925781 10.464844 C 15.257812 10.464844 15.53125 10.738281 15.53125 11.074219 L 15.53125 11.679688 C 15.53125 12.015625 15.257812 12.285156 14.925781 12.285156 Z M 14.925781 12.285156 "/>
<path style=" stroke:none;fill-rule:nonzero;fill:rgb(95.294118%,82.352942%,63.529414%);fill-opacity:1;" d="M 15.445312 19.445312 C 15.445312 20.777344 14.359375 24.304688 12.5 24.304688 C 10.640625 24.304688 9.554688 20.820312 9.554688 19.445312 Z M 7.660156 10.136719 C 8.007812 10.167969 8.121094 12.367188 7.292969 12.78125 C 5.441406 13.707031 4.882812 10.148438 4.882812 9.222656 C 4.882812 8.527344 6.574219 10.03125 7.660156 10.136719 Z M 17.339844 10.136719 C 16.992188 10.167969 16.878906 12.367188 17.707031 12.78125 C 19.558594 13.707031 20.117188 10.148438 20.117188 9.222656 C 20.117188 8.527344 18.425781 10.03125 17.339844 10.136719 Z M 17.339844 10.136719 "/>
<path style=" stroke:none;fill-rule:nonzero;fill:rgb(75.686276%,41.176471%,30.980393%);fill-opacity:1;" d="M 12.496094 17.015625 C 10.585938 17.015625 9.996094 15.695312 9.898438 15.597656 C 9.71875 15.421875 9.710938 15.136719 9.882812 14.953125 C 10.054688 14.769531 10.34375 14.761719 10.527344 14.9375 C 10.5625 14.960938 11.027344 15.273438 12.496094 15.273438 C 14.023438 15.273438 14.464844 14.9375 14.472656 14.933594 C 14.554688 14.851562 14.671875 14.804688 14.789062 14.804688 C 14.910156 14.808594 15.023438 14.855469 15.105469 14.941406 C 15.28125 15.125 15.277344 15.417969 15.09375 15.597656 C 14.996094 15.695312 14.410156 17.015625 12.496094 17.015625 Z M 12.496094 17.015625 "/>
<path style=" stroke:none;fill-rule:nonzero;fill:rgb(75.686276%,41.176471%,30.980393%);fill-opacity:1;" d="M 10.808594 15.28125 C 10.578125 15.28125 10.367188 15.382812 10.222656 15.566406 C 10.082031 15.746094 10.035156 15.980469 10.089844 16.199219 C 10.09375 16.222656 10.101562 16.246094 10.113281 16.269531 L 10.816406 17.707031 C 10.875 17.828125 10.996094 17.902344 11.128906 17.902344 L 11.136719 17.902344 C 11.269531 17.902344 11.390625 17.820312 11.445312 17.695312 L 12.058594 16.328125 C 12.121094 16.09375 12.089844 15.90625 11.988281 15.753906 C 11.851562 15.566406 11.648438 15.445312 11.417969 15.414062 L 10.886719 15.289062 Z M 10.808594 15.28125 "/>
<path style=" stroke:none;fill-rule:nonzero;fill:rgb(96.078432%,97.254902%,98.039216%);fill-opacity:1;" d="M 11.367188 15.757812 L 10.808594 15.628906 C 10.6875 15.628906 10.570312 15.683594 10.496094 15.777344 C 10.421875 15.875 10.394531 16 10.425781 16.117188 L 11.128906 17.554688 L 11.738281 16.183594 C 11.796875 15.960938 11.59375 15.789062 11.367188 15.757812 Z M 11.367188 15.757812 "/>
<path style=" stroke:none;fill-rule:nonzero;fill:rgb(75.686276%,41.176471%,30.980393%);fill-opacity:1;" d="M 14.160156 15.28125 L 13.519531 15.421875 C 13.300781 15.453125 13.109375 15.574219 12.980469 15.753906 C 12.878906 15.90625 12.847656 16.09375 12.890625 16.269531 L 13.523438 17.695312 C 13.578125 17.820312 13.699219 17.898438 13.832031 17.902344 L 13.839844 17.902344 C 13.972656 17.902344 14.09375 17.828125 14.152344 17.707031 L 14.855469 16.269531 C 14.933594 15.980469 14.886719 15.742188 14.746094 15.5625 C 14.605469 15.382812 14.390625 15.28125 14.160156 15.28125 Z M 14.160156 15.28125 "/>
<path style=" stroke:none;fill-rule:nonzero;fill:rgb(96.078432%,97.254902%,98.039216%);fill-opacity:1;" d="M 13.597656 15.757812 L 14.160156 15.628906 C 14.414062 15.628906 14.605469 15.867188 14.542969 16.117188 L 13.839844 17.554688 L 13.226562 16.183594 C 13.171875 15.960938 13.375 15.789062 13.597656 15.757812 Z M 13.597656 15.757812 "/>
</g>
</svg>
