<?xml version="1.0" encoding="UTF-8"?>
<svg xmlns="http://www.w3.org/2000/svg" xmlns:xlink="http://www.w3.org/1999/xlink" width="25px" height="25px" viewBox="0 0 25 25" version="1.1">
<g id="surface1">
<path style=" stroke:none;fill-rule:nonzero;fill:rgb(0%,0%,0%);fill-opacity:1;" d="M 22.34375 13.496094 L 22.425781 13.496094 L 21.992188 12.757812 L 20.261719 9.816406 L 22.007812 9.234375 L 20.015625 6.480469 C 20.546875 5.996094 20.914062 5.457031 21.15625 4.910156 C 21.449219 4.246094 21.550781 3.574219 21.550781 2.964844 C 21.546875 2.210938 21.398438 1.546875 21.246094 1.066406 C 21.09375 0.585938 20.945312 0.289062 20.933594 0.273438 L 20.796875 0 L 20.492188 0 C 19.917969 0 19.386719 0.128906 18.917969 0.3125 C 18.210938 0.59375 17.640625 1 17.238281 1.339844 C 17.175781 1.390625 17.121094 1.4375 17.066406 1.484375 L 16.414062 0.394531 L 15.96875 0.949219 L 15.96875 0.953125 C 15.957031 0.964844 15.671875 1.304688 15.105469 1.636719 C 14.820312 1.804688 14.464844 1.96875 14.039062 2.089844 C 13.609375 2.214844 13.105469 2.296875 12.523438 2.296875 C 11.921875 2.296875 11.410156 2.207031 10.976562 2.070312 C 10.320312 1.867188 9.84375 1.558594 9.53125 1.308594 C 9.371094 1.183594 9.257812 1.070312 9.183594 0.992188 C 9.148438 0.953125 9.121094 0.925781 9.105469 0.90625 C 9.097656 0.894531 9.089844 0.890625 9.089844 0.886719 L 9.085938 0.882812 L 8.628906 0.28125 L 7.964844 1.472656 C 7.796875 1.324219 7.589844 1.15625 7.351562 0.984375 C 7.011719 0.742188 6.601562 0.5 6.128906 0.3125 C 5.660156 0.128906 5.128906 0 4.554688 0 L 4.25 0 L 4.113281 0.273438 C 4.101562 0.289062 3.949219 0.585938 3.800781 1.066406 C 3.648438 1.546875 3.496094 2.210938 3.496094 2.964844 C 3.496094 3.574219 3.597656 4.246094 3.890625 4.910156 C 4.132812 5.457031 4.5 5.996094 5.03125 6.480469 L 3.039062 9.234375 L 4.785156 9.816406 L 2.621094 13.496094 L 2.65625 13.496094 C 1.90625 14.128906 1.335938 14.984375 1.335938 16.128906 C 1.335938 19.46875 1.335938 22.300781 1.335938 22.300781 C 1.335938 22.300781 2.472656 22.878906 4.277344 23.503906 L 4.277344 21.078125 L 5.003906 21.078125 L 5.003906 23.742188 C 7.019531 24.382812 9.675781 24.992188 12.476562 25 C 12.484375 25 12.492188 25 12.5 25 C 12.507812 25 12.515625 25 12.523438 25 C 15.324219 24.992188 17.980469 24.382812 19.996094 23.742188 L 19.996094 21.078125 L 20.71875 21.078125 L 20.71875 23.503906 C 22.527344 22.878906 23.664062 22.300781 23.664062 22.300781 C 23.664062 22.300781 23.664062 19.46875 23.664062 16.128906 C 23.664062 14.988281 23.09375 14.132812 22.34375 13.496094 Z M 6.265625 9.261719 L 4.640625 8.71875 L 6.390625 6.296875 L 6.007812 6.003906 C 5.402344 5.535156 5.03125 5.027344 4.804688 4.511719 C 4.578125 3.992188 4.492188 3.464844 4.492188 2.964844 C 4.492188 2.347656 4.621094 1.777344 4.75 1.367188 C 4.792969 1.230469 4.835938 1.109375 4.875 1.015625 C 5.183594 1.046875 5.480469 1.128906 5.761719 1.242188 C 6.328125 1.464844 6.824219 1.808594 7.167969 2.101562 C 7.34375 2.246094 7.480469 2.378906 7.570312 2.46875 C 7.617188 2.515625 7.652344 2.554688 7.671875 2.578125 C 7.683594 2.589844 7.691406 2.597656 7.695312 2.605469 L 7.703125 2.609375 L 8.167969 3.152344 L 8.808594 2.003906 C 8.957031 2.132812 9.144531 2.273438 9.363281 2.410156 C 9.710938 2.632812 10.148438 2.855469 10.675781 3.019531 C 11.203125 3.1875 11.820312 3.292969 12.523438 3.292969 C 13.222656 3.292969 13.835938 3.191406 14.363281 3.035156 C 15.152344 2.800781 15.738281 2.445312 16.132812 2.144531 C 16.171875 2.113281 16.210938 2.082031 16.246094 2.054688 L 16.894531 3.132812 L 17.34375 2.609375 C 17.355469 2.597656 17.722656 2.179688 18.296875 1.777344 C 18.585938 1.578125 18.929688 1.378906 19.300781 1.234375 C 19.578125 1.125 19.871094 1.046875 20.171875 1.015625 C 20.21875 1.132812 20.273438 1.285156 20.324219 1.464844 C 20.445312 1.863281 20.554688 2.394531 20.554688 2.964844 C 20.554688 3.464844 20.46875 3.992188 20.242188 4.511719 C 20.015625 5.027344 19.644531 5.535156 19.039062 6.003906 L 18.65625 6.296875 L 20.40625 8.71875 L 18.78125 9.261719 L 20.703125 12.527344 L 17.816406 12.574219 L 17.953125 14.726562 L 16.335938 14.175781 L 16.203125 14.695312 C 15.949219 15.671875 15.636719 16.859375 15.363281 17.824219 C 15.226562 18.308594 15.097656 18.738281 14.996094 19.050781 C 14.945312 19.207031 14.898438 19.335938 14.867188 19.421875 C 14.863281 19.425781 14.863281 19.429688 14.863281 19.429688 C 14.808594 19.441406 14.734375 19.449219 14.648438 19.457031 C 14.546875 19.464844 14.433594 19.464844 14.3125 19.464844 C 14.019531 19.464844 13.679688 19.449219 13.363281 19.421875 C 13.046875 19.398438 12.753906 19.367188 12.554688 19.34375 L 12.496094 19.339844 L 12.441406 19.34375 C 12.242188 19.367188 11.949219 19.398438 11.632812 19.421875 C 11.316406 19.449219 10.976562 19.464844 10.683594 19.464844 C 10.472656 19.46875 10.289062 19.457031 10.171875 19.4375 C 10.15625 19.4375 10.144531 19.433594 10.132812 19.429688 C 10.105469 19.363281 10.070312 19.265625 10.03125 19.148438 C 9.957031 18.925781 9.867188 18.628906 9.765625 18.289062 C 9.46875 17.265625 9.09375 15.847656 8.796875 14.710938 L 8.664062 14.191406 L 7.09375 14.726562 L 7.230469 12.574219 L 4.34375 12.527344 Z M 12.5 23.109375 C 12.179688 23.148438 10.777344 21.300781 10.144531 20.4375 C 10.171875 20.441406 10.203125 20.445312 10.234375 20.445312 C 10.375 20.457031 10.527344 20.460938 10.683594 20.460938 C 11.015625 20.460938 11.378906 20.441406 11.710938 20.417969 C 12.015625 20.390625 12.292969 20.363281 12.496094 20.339844 C 12.703125 20.363281 12.980469 20.390625 13.285156 20.417969 C 13.617188 20.441406 13.980469 20.460938 14.3125 20.460938 C 14.507812 20.460938 14.6875 20.457031 14.859375 20.4375 C 14.222656 21.300781 12.820312 23.148438 12.5 23.109375 Z M 12.5 23.109375 "/>
<path style=" stroke:none;fill-rule:nonzero;fill:rgb(0%,0%,0%);fill-opacity:1;" d="M 5.460938 2.878906 C 5.089844 4.289062 6.5 5.394531 6.5 5.394531 L 7.238281 3.921875 C 6.625 3.1875 5.460938 2.878906 5.460938 2.878906 Z M 5.460938 2.878906 "/>
<path style=" stroke:none;fill-rule:nonzero;fill:rgb(0%,0%,0%);fill-opacity:1;" d="M 12.523438 12.410156 C 13.320312 12.410156 13.964844 11.757812 13.964844 11.386719 C 13.964844 11.015625 13.320312 11.035156 12.523438 11.035156 C 12.234375 11.035156 11.96875 11.03125 11.742188 11.046875 L 12.039062 9.75 L 11.515625 9.632812 L 11.15625 11.207031 C 11.109375 11.253906 11.082031 11.3125 11.082031 11.386719 C 11.082031 11.757812 11.726562 12.410156 12.523438 12.410156 Z M 12.523438 12.410156 "/>
<path style=" stroke:none;fill-rule:nonzero;fill:rgb(0%,0%,0%);fill-opacity:1;" d="M 9.445312 10.289062 C 10.230469 10.457031 10.699219 9.734375 10.699219 9.734375 C 10.699219 9.734375 10.171875 9.269531 9.464844 8.910156 C 9.070312 8.707031 8.523438 8.667969 8.429688 9.105469 C 8.339844 9.539062 9.007812 10.195312 9.445312 10.289062 Z M 9.445312 10.289062 "/>
<path style=" stroke:none;fill-rule:nonzero;fill:rgb(0%,0%,0%);fill-opacity:1;" d="M 15.601562 10.289062 C 16.035156 10.195312 16.707031 9.539062 16.617188 9.105469 C 16.523438 8.667969 15.976562 8.707031 15.582031 8.910156 C 14.875 9.269531 14.347656 9.734375 14.347656 9.734375 C 14.347656 9.734375 14.816406 10.457031 15.601562 10.289062 Z M 15.601562 10.289062 "/>
<path style=" stroke:none;fill-rule:nonzero;fill:rgb(0%,0%,0%);fill-opacity:1;" d="M 19.585938 2.878906 C 19.585938 2.878906 18.421875 3.1875 17.808594 3.921875 L 18.546875 5.394531 C 18.546875 5.394531 19.957031 4.289062 19.585938 2.878906 Z M 19.585938 2.878906 "/>
<path style=" stroke:none;fill-rule:nonzero;fill:rgb(0%,0%,0%);fill-opacity:1;" d="M 14.839844 13.371094 C 14.519531 13.371094 13 13.371094 12.441406 13.371094 C 11.878906 13.371094 10.363281 13.371094 10.042969 13.371094 C 9.722656 13.371094 9.5625 13.609375 9.601562 13.96875 C 9.640625 14.328125 10.5625 18.125 10.761719 18.367188 C 10.960938 18.605469 12.441406 18.484375 12.441406 18.484375 C 12.441406 18.484375 13.917969 18.605469 14.117188 18.367188 C 14.320312 18.125 15.238281 14.328125 15.277344 13.96875 C 15.316406 13.609375 15.160156 13.371094 14.839844 13.371094 Z M 12.527344 17.945312 C 12.527344 17.945312 12.519531 17.945312 12.503906 17.945312 C 12.488281 17.945312 12.480469 17.945312 12.480469 17.945312 C 12.277344 17.9375 11.449219 17.914062 11.035156 17.875 C 11.035156 17.875 11.082031 17.164062 11.390625 16.925781 L 11.628906 17.613281 C 11.628906 17.613281 11.722656 17.304688 11.863281 17.351562 C 12.007812 17.398438 12.078125 17.589844 12.078125 17.589844 C 12.078125 17.589844 12.21875 17.375 12.316406 17.375 C 12.382812 17.375 12.464844 17.5 12.503906 17.570312 C 12.542969 17.5 12.625 17.375 12.695312 17.375 C 12.789062 17.375 12.933594 17.589844 12.933594 17.589844 C 12.933594 17.589844 13.003906 17.398438 13.144531 17.351562 C 13.289062 17.304688 13.382812 17.613281 13.382812 17.613281 L 13.621094 16.925781 C 13.929688 17.164062 13.976562 17.875 13.976562 17.875 C 13.5625 17.914062 12.734375 17.9375 12.527344 17.945312 Z M 14.171875 15.21875 L 13.816406 14.332031 C 13.816406 14.332031 13.675781 14.730469 13.464844 14.667969 C 13.25 14.609375 13.144531 14.363281 13.144531 14.363281 C 13.144531 14.363281 12.929688 14.636719 12.789062 14.636719 C 12.6875 14.636719 12.5625 14.476562 12.503906 14.390625 C 12.445312 14.476562 12.324219 14.636719 12.222656 14.636719 C 12.078125 14.636719 11.867188 14.363281 11.867188 14.363281 C 11.867188 14.363281 11.761719 14.609375 11.546875 14.667969 C 11.335938 14.730469 11.191406 14.332031 11.191406 14.332031 L 10.839844 15.21875 C 10.378906 14.914062 10.304688 13.996094 10.304688 13.996094 C 10.925781 13.945312 12.164062 13.914062 12.46875 13.90625 C 12.46875 13.90625 12.484375 13.90625 12.503906 13.90625 C 12.527344 13.90625 12.539062 13.90625 12.539062 13.90625 C 12.847656 13.914062 14.085938 13.945312 14.703125 13.996094 C 14.703125 13.996094 14.632812 14.914062 14.171875 15.21875 Z M 14.171875 15.21875 "/>
</g>
</svg>
