<?xml version="1.0" encoding="UTF-8"?>
<svg xmlns="http://www.w3.org/2000/svg" xmlns:xlink="http://www.w3.org/1999/xlink" width="25px" height="25px" viewBox="0 0 25 25" version="1.1">
<g id="surface1">
<path style=" stroke:none;fill-rule:nonzero;fill:rgb(98.039216%,45.490196%,24.313726%);fill-opacity:1;" d="M 20.195312 21.574219 C 20.195312 21.574219 19.660156 21.90625 19.125 21.574219 C 18.589844 21.246094 18.910156 20.710938 18.910156 20.710938 C 18.308594 20.660156 18.246094 20.101562 18.464844 19.597656 C 18.105469 19.496094 17.734375 19.445312 17.359375 19.445312 L 7.640625 19.445312 C 5.335938 19.445312 3.472656 21.308594 3.472656 23.609375 L 3.472656 25 L 21.527344 25 L 21.527344 23.609375 C 21.527344 23.179688 21.460938 22.765625 21.339844 22.375 C 20.171875 22.820312 20.195312 21.574219 20.195312 21.574219 Z M 20.195312 21.574219 "/>
<path style=" stroke:none;fill-rule:nonzero;fill:rgb(86.666667%,33.333334%,12.156863%);fill-opacity:1;" d="M 18.007812 23.152344 C 17.917969 24.492188 17.429688 25 17.429688 25 L 18.390625 25 C 18.390625 25 18.523438 22.933594 18.007812 23.152344 Z M 4.59375 23.585938 C 4.816406 23.410156 5.199219 22.199219 5.894531 21.910156 C 6.585938 21.621094 8.121094 21.246094 8.097656 21.972656 C 8.074219 22.699219 7.164062 23.699219 7.355469 24.070312 C 6.675781 24.398438 3.890625 24.136719 4.59375 23.585938 Z M 4.59375 23.585938 "/>
<path style=" stroke:none;fill-rule:nonzero;fill:rgb(80.000001%,83.92157%,86.666667%);fill-opacity:1;" d="M 5.027344 23.472656 C 5.246094 23.300781 5.476562 22.261719 6.171875 21.972656 C 6.863281 21.6875 8.121094 21.246094 8.097656 21.972656 C 8.070312 22.699219 7.242188 23.144531 6.5625 23.472656 C 5.882812 23.804688 4.324219 24.027344 5.027344 23.472656 Z M 9.722656 19.445312 L 15.277344 19.445312 C 15.277344 19.445312 14.675781 21.574219 12.5 21.574219 C 10.324219 21.574219 9.722656 19.445312 9.722656 19.445312 Z M 9.722656 19.445312 "/>
<path style=" stroke:none;fill-rule:nonzero;fill:rgb(80.000001%,83.92157%,86.666667%);fill-opacity:1;" d="M 10.070312 19.804688 C 11.085938 20.542969 12.007812 20.484375 12.5 20.484375 C 12.992188 20.484375 14.023438 20.542969 14.921875 19.824219 L 14.929688 16.949219 L 10.070312 16.949219 Z M 10.070312 19.804688 "/>
<path style=" stroke:none;fill-rule:nonzero;fill:rgb(60.000002%,66.666669%,70.980394%);fill-opacity:1;" d="M 10.058594 18.117188 C 10.738281 18.917969 11.578125 19.136719 12.492188 19.136719 C 13.410156 19.136719 14.253906 18.917969 14.929688 18.117188 L 14.929688 16.078125 L 10.058594 16.078125 Z M 10.058594 18.117188 "/>
<path style=" stroke:none;fill-rule:nonzero;fill:rgb(16.078432%,18.431373%,20%);fill-opacity:1;" d="M 14.742188 3.945312 C 13.539062 3.558594 10.714844 3.664062 10.007812 4.582031 C 8.171875 4.617188 6.015625 6.277344 5.734375 8.464844 C 5.453125 10.632812 6.078125 11.640625 6.300781 13.269531 C 6.550781 15.117188 7.589844 15.707031 8.417969 15.953125 C 9.613281 17.53125 10.882812 17.464844 13.011719 17.464844 C 17.171875 17.464844 19.15625 14.679688 19.332031 9.949219 C 19.4375 7.089844 17.757812 4.921875 14.742188 3.945312 Z M 14.742188 3.945312 "/>
<path style=" stroke:none;fill-rule:nonzero;fill:rgb(80.000001%,83.92157%,86.666667%);fill-opacity:1;" d="M 17.121094 10.152344 C 16.71875 9.59375 16.203125 9.148438 15.070312 8.988281 C 15.496094 9.183594 15.902344 9.851562 15.953125 10.222656 C 16.007812 10.59375 16.058594 10.894531 15.722656 10.523438 C 14.378906 9.039062 12.917969 9.621094 11.464844 8.714844 C 10.453125 8.082031 10.144531 7.378906 10.144531 7.378906 C 10.144531 7.378906 10.019531 8.316406 8.484375 9.269531 C 8.039062 9.546875 7.507812 10.164062 7.214844 11.070312 C 7 11.726562 7.066406 12.308594 7.066406 13.304688 C 7.066406 16.210938 9.460938 18.652344 12.417969 18.652344 C 15.371094 18.652344 17.769531 16.1875 17.769531 13.304688 C 17.769531 11.496094 17.578125 10.789062 17.121094 10.152344 Z M 17.121094 10.152344 "/>
<path style=" stroke:none;fill-rule:nonzero;fill:rgb(40.000001%,45.882353%,49.803922%);fill-opacity:1;" d="M 12.460938 15.554688 C 13.714844 15.554688 14.371094 16.105469 14.441406 16.171875 C 14.539062 16.253906 14.597656 16.375 14.597656 16.507812 C 14.597656 16.636719 14.539062 16.757812 14.441406 16.839844 C 14.226562 17.027344 13.910156 17.027344 13.691406 16.847656 C 13.664062 16.824219 13.257812 16.503906 12.460938 16.503906 C 11.648438 16.503906 11.246094 16.835938 11.226562 16.847656 C 11.007812 17.023438 10.691406 17.019531 10.476562 16.832031 C 10.378906 16.75 10.324219 16.628906 10.324219 16.5 C 10.324219 16.375 10.382812 16.253906 10.476562 16.171875 C 10.546875 16.105469 11.203125 15.554688 12.460938 15.554688 "/>
<path style=" stroke:none;fill-rule:nonzero;fill:rgb(60.000002%,66.666669%,70.980394%);fill-opacity:1;" d="M 11.335938 13.011719 L 10.882812 13.464844 C 10.347656 13.996094 9.484375 13.996094 8.953125 13.464844 C 8.421875 12.933594 8.421875 12.070312 8.953125 11.535156 L 9.40625 11.082031 C 9.941406 10.550781 10.804688 10.550781 11.335938 11.082031 C 11.867188 11.613281 11.867188 12.476562 11.335938 13.011719 Z M 14.105469 13.464844 L 13.648438 13.011719 C 13.117188 12.476562 13.117188 11.613281 13.648438 11.078125 C 14.183594 10.546875 15.046875 10.546875 15.582031 11.078125 L 16.035156 11.535156 C 16.566406 12.070312 16.566406 12.933594 16.035156 13.464844 C 15.5 13.996094 14.636719 13.996094 14.105469 13.464844 Z M 14.105469 13.464844 "/>
<path style=" stroke:none;fill-rule:nonzero;fill:rgb(40.000001%,12.941177%,7.450981%);fill-opacity:1;" d="M 11.027344 12.171875 C 11.023438 12.496094 10.761719 12.757812 10.4375 12.757812 L 9.851562 12.757812 C 9.527344 12.757812 9.265625 12.496094 9.261719 12.171875 C 9.265625 11.847656 9.527344 11.585938 9.851562 11.585938 L 10.4375 11.585938 C 10.761719 11.585938 11.027344 11.847656 11.027344 12.171875 M 15.722656 12.171875 C 15.722656 12.496094 15.460938 12.757812 15.136719 12.757812 L 14.546875 12.757812 C 14.226562 12.757812 13.960938 12.496094 13.960938 12.171875 C 13.960938 11.847656 14.226562 11.585938 14.546875 11.585938 L 15.136719 11.585938 C 15.460938 11.585938 15.722656 11.847656 15.722656 12.171875 "/>
<path style=" stroke:none;fill-rule:nonzero;fill:rgb(60.000002%,66.666669%,70.980394%);fill-opacity:1;" d="M 13.058594 14.867188 C 13.230469 14.867188 13.375 14.726562 13.375 14.550781 L 13.375 14.144531 C 13.375 13.96875 13.230469 13.824219 13.058594 13.824219 C 12.882812 13.824219 12.738281 13.96875 12.738281 14.144531 L 12.738281 14.550781 C 12.738281 14.726562 12.882812 14.867188 13.058594 14.867188 Z M 11.929688 14.867188 C 12.105469 14.867188 12.25 14.726562 12.25 14.550781 L 12.25 14.144531 C 12.25 13.96875 12.105469 13.824219 11.929688 13.824219 C 11.757812 13.824219 11.613281 13.96875 11.613281 14.144531 L 11.613281 14.550781 C 11.613281 14.726562 11.757812 14.867188 11.929688 14.867188 Z M 11.929688 14.867188 "/>
<path style=" stroke:none;fill-rule:nonzero;fill:rgb(16.078432%,18.431373%,20%);fill-opacity:1;" d="M 12.292969 3.78125 C 13.105469 3.644531 13.726562 3.054688 13.960938 2.765625 C 14.195312 2.480469 14.121094 3.582031 13.679688 4.019531 C 13.242188 4.457031 12.292969 3.78125 12.292969 3.78125 Z M 9.148438 4.734375 C 8.15625 4.503906 7.453125 4.675781 7.058594 4.886719 C 6.664062 5.097656 7.449219 4.847656 8.441406 5.367188 C 9.4375 5.882812 9.148438 4.734375 9.148438 4.734375 Z M 8.863281 8.941406 C 8.480469 9.476562 8.097656 10.371094 8.15625 11.15625 C 8.214844 11.941406 7.335938 10.566406 8.058594 9.304688 C 8.785156 8.039062 8.863281 8.941406 8.863281 8.941406 Z M 18.109375 6.203125 C 18.9375 6.609375 19.472656 7.277344 19.644531 7.660156 C 19.816406 8.039062 20.195312 8.289062 20.40625 8.328125 C 20.617188 8.367188 20.234375 8.558594 19.738281 8.328125 C 19.242188 8.097656 18.878906 7.539062 18.476562 7.378906 C 18.074219 7.21875 18.109375 6.203125 18.109375 6.203125 Z M 5.753906 10.636719 C 5.746094 11.480469 5.367188 11.984375 5.15625 12.171875 C 4.945312 12.359375 5.765625 12.394531 6.074219 11.441406 C 6.378906 10.488281 5.753906 10.636719 5.753906 10.636719 Z M 5.753906 10.636719 "/>
</g>
</svg>
