<?xml version="1.0" encoding="UTF-8"?>
<svg xmlns="http://www.w3.org/2000/svg" xmlns:xlink="http://www.w3.org/1999/xlink" width="25px" height="25px" viewBox="0 0 25 25" version="1.1">
<defs>
<filter id="alpha" filterUnits="objectBoundingBox" x="0%" y="0%" width="100%" height="100%">
  <feColorMatrix type="matrix" in="SourceGraphic" values="0 0 0 0 1 0 0 0 0 1 0 0 0 0 1 0 0 0 1 0"/>
</filter>
<mask id="mask0">
  <g filter="url(#alpha)">
<rect x="0" y="0" width="25" height="25" style="fill:rgb(0%,0%,0%);fill-opacity:0.992157;stroke:none;"/>
  </g>
</mask>
<clipPath id="clip1">
  <rect x="0" y="0" width="25" height="25"/>
</clipPath>
<g id="surface5" clip-path="url(#clip1)">
<path style=" stroke:none;fill-rule:evenodd;fill:rgb(70.588237%,50.196081%,14.117648%);fill-opacity:1;" d="M 5.125 7.960938 C 5.125 8.15625 5.125 8.351562 5.125 8.546875 C 10.007812 8.546875 14.890625 8.546875 19.773438 8.546875 C 19.773438 8.351562 19.773438 8.15625 19.773438 7.960938 C 19.871094 8.132812 19.902344 8.328125 19.875 8.546875 C 20.234375 8.527344 20.589844 8.546875 20.945312 8.59375 C 21.226562 8.960938 21.160156 9.253906 20.75 9.472656 C 20.167969 9.519531 19.582031 9.539062 18.992188 9.523438 C 14.632812 9.390625 10.269531 9.390625 5.90625 9.523438 C 5.320312 9.539062 4.734375 9.519531 4.148438 9.472656 C 3.742188 9.253906 3.675781 8.960938 3.953125 8.59375 C 4.3125 8.546875 4.667969 8.527344 5.03125 8.546875 C 5 8.328125 5.03125 8.132812 5.125 7.960938 Z M 5.125 7.960938 "/>
</g>
<mask id="mask1">
  <g filter="url(#alpha)">
<rect x="0" y="0" width="25" height="25" style="fill:rgb(0%,0%,0%);fill-opacity:0.996078;stroke:none;"/>
  </g>
</mask>
<clipPath id="clip2">
  <rect x="0" y="0" width="25" height="25"/>
</clipPath>
<g id="surface8" clip-path="url(#clip2)">
<path style=" stroke:none;fill-rule:evenodd;fill:rgb(34.509805%,41.176471%,62.352943%);fill-opacity:1;" d="M 7.664062 16.257812 C 8.066406 16.648438 8.457031 17.058594 8.835938 17.480469 C 10.765625 19.089844 12.847656 19.320312 15.085938 18.164062 C 15.914062 17.648438 16.628906 17.015625 17.234375 16.257812 C 17.382812 16.808594 17.511719 17.359375 17.625 17.921875 C 17.515625 18.273438 17.351562 18.597656 17.140625 18.898438 C 17.042969 18.886719 16.960938 18.921875 16.894531 18.992188 C 16.019531 20.253906 15.125 21.492188 14.210938 22.703125 C 13.601562 21.523438 13.015625 20.316406 12.453125 19.09375 C 11.863281 20.335938 11.277344 21.570312 10.695312 22.804688 C 9.917969 21.652344 9.121094 20.511719 8.300781 19.382812 C 8.160156 19.164062 7.984375 19 7.765625 18.898438 C 7.550781 18.597656 7.386719 18.273438 7.273438 17.921875 C 7.390625 17.359375 7.519531 16.808594 7.664062 16.257812 Z M 7.664062 16.257812 "/>
</g>
<mask id="mask2">
  <g filter="url(#alpha)">
<rect x="0" y="0" width="25" height="25" style="fill:rgb(0%,0%,0%);fill-opacity:0.996078;stroke:none;"/>
  </g>
</mask>
<clipPath id="clip3">
  <rect x="0" y="0" width="25" height="25"/>
</clipPath>
<g id="surface11" clip-path="url(#clip3)">
<path style=" stroke:none;fill-rule:evenodd;fill:rgb(44.705883%,50.980395%,74.509805%);fill-opacity:1;" d="M 7.765625 18.898438 C 7.984375 19 8.160156 19.164062 8.300781 19.382812 C 9.121094 20.511719 9.917969 21.652344 10.695312 22.804688 C 10.574219 23.519531 10.445312 24.238281 10.304688 24.953125 C 6.851562 24.953125 3.402344 24.953125 -0.046875 24.953125 C -0.046875 24.136719 -0.046875 23.324219 -0.046875 22.507812 C 0.144531 22.070312 0.4375 21.695312 0.828125 21.386719 C 2.347656 20.59375 3.910156 19.914062 5.515625 19.335938 C 6.253906 19.113281 7 18.964844 7.765625 18.898438 Z M 7.765625 18.898438 "/>
</g>
<mask id="mask3">
  <g filter="url(#alpha)">
<rect x="0" y="0" width="25" height="25" style="fill:rgb(0%,0%,0%);fill-opacity:0.992157;stroke:none;"/>
  </g>
</mask>
<clipPath id="clip4">
  <rect x="0" y="0" width="25" height="25"/>
</clipPath>
<g id="surface14" clip-path="url(#clip4)">
<path style=" stroke:none;fill-rule:evenodd;fill:rgb(44.705883%,50.980395%,74.509805%);fill-opacity:1;" d="M 17.140625 18.898438 C 18.882812 19.113281 20.542969 19.621094 22.117188 20.410156 C 22.769531 20.734375 23.421875 21.0625 24.070312 21.386719 C 24.464844 21.695312 24.757812 22.070312 24.953125 22.507812 C 24.953125 23.324219 24.953125 24.136719 24.953125 24.953125 C 21.5 24.953125 18.050781 24.953125 14.601562 24.953125 C 14.445312 24.207031 14.3125 23.457031 14.210938 22.703125 C 15.125 21.492188 16.019531 20.253906 16.894531 18.992188 C 16.960938 18.921875 17.042969 18.886719 17.140625 18.898438 Z M 17.140625 18.898438 "/>
</g>
<mask id="mask4">
  <g filter="url(#alpha)">
<rect x="0" y="0" width="25" height="25" style="fill:rgb(0%,0%,0%);fill-opacity:0.996078;stroke:none;"/>
  </g>
</mask>
<clipPath id="clip5">
  <rect x="0" y="0" width="25" height="25"/>
</clipPath>
<g id="surface17" clip-path="url(#clip5)">
<path style=" stroke:none;fill-rule:evenodd;fill:rgb(21.176471%,28.235295%,45.882353%);fill-opacity:1;" d="M 14.210938 22.703125 C 14.3125 23.457031 14.445312 24.207031 14.601562 24.953125 C 13.167969 24.953125 11.734375 24.953125 10.304688 24.953125 C 10.445312 24.238281 10.574219 23.519531 10.695312 22.804688 C 11.277344 21.570312 11.863281 20.335938 12.453125 19.09375 C 13.015625 20.316406 13.601562 21.523438 14.210938 22.703125 Z M 14.210938 22.703125 "/>
</g>
</defs>
<g id="surface1">
<path style=" stroke:none;fill-rule:evenodd;fill:rgb(95.294118%,72.549021%,27.843139%);fill-opacity:1;" d="M 11.179688 -0.046875 C 12.027344 -0.046875 12.875 -0.046875 13.71875 -0.046875 C 14.15625 0.253906 14.320312 0.675781 14.210938 1.21875 C 14.003906 1.234375 13.859375 1.332031 13.769531 1.515625 C 13.703125 2.066406 13.703125 2.621094 13.769531 3.171875 C 14.03125 3.433594 14.289062 3.433594 14.550781 3.171875 C 14.628906 2.546875 14.613281 1.929688 14.5 1.320312 C 15.058594 1.417969 15.582031 1.613281 16.0625 1.90625 C 15.867188 2.976562 15.671875 4.054688 15.476562 5.125 C 16.570312 4.84375 17.675781 4.648438 18.796875 4.539062 C 19.476562 5.566406 19.800781 6.707031 19.773438 7.960938 C 19.773438 8.15625 19.773438 8.351562 19.773438 8.546875 C 14.890625 8.546875 10.007812 8.546875 5.125 8.546875 C 5.125 8.351562 5.125 8.15625 5.125 7.960938 C 5.101562 6.707031 5.425781 5.566406 6.101562 4.539062 C 7.210938 4.722656 8.320312 4.917969 9.421875 5.125 C 9.226562 4.054688 9.03125 2.976562 8.835938 1.90625 C 9.320312 1.613281 9.84375 1.417969 10.398438 1.320312 C 10.289062 1.929688 10.273438 2.546875 10.351562 3.171875 C 10.613281 3.433594 10.871094 3.433594 11.132812 3.171875 C 11.199219 2.621094 11.199219 2.066406 11.132812 1.515625 C 11.042969 1.332031 10.898438 1.234375 10.695312 1.21875 C 10.582031 0.675781 10.746094 0.253906 11.179688 -0.046875 Z M 11.179688 -0.046875 "/>
<path style=" stroke:none;fill-rule:evenodd;fill:rgb(71.372551%,50.588238%,14.509805%);fill-opacity:1;" d="M 10.695312 1.21875 C 10.898438 1.234375 11.042969 1.332031 11.132812 1.515625 C 11.199219 2.066406 11.199219 2.621094 11.132812 3.171875 C 10.871094 3.433594 10.613281 3.433594 10.351562 3.171875 C 10.273438 2.546875 10.289062 1.929688 10.398438 1.320312 C 10.46875 1.230469 10.566406 1.199219 10.695312 1.21875 Z M 10.695312 1.21875 "/>
<path style=" stroke:none;fill-rule:evenodd;fill:rgb(71.372551%,50.588238%,14.509805%);fill-opacity:1;" d="M 14.210938 1.21875 C 14.335938 1.199219 14.433594 1.230469 14.5 1.320312 C 14.613281 1.929688 14.628906 2.546875 14.550781 3.171875 C 14.289062 3.433594 14.03125 3.433594 13.769531 3.171875 C 13.703125 2.621094 13.703125 2.066406 13.769531 1.515625 C 13.859375 1.332031 14.003906 1.234375 14.210938 1.21875 Z M 14.210938 1.21875 "/>
<path style=" stroke:none;fill-rule:evenodd;fill:rgb(71.764708%,50.980395%,14.509805%);fill-opacity:1;" d="M 8.835938 1.90625 C 9.03125 2.976562 9.226562 4.054688 9.421875 5.125 C 8.320312 4.917969 7.210938 4.722656 6.101562 4.539062 C 6.757812 3.398438 7.667969 2.519531 8.835938 1.90625 Z M 8.835938 1.90625 "/>
<path style=" stroke:none;fill-rule:evenodd;fill:rgb(71.764708%,50.980395%,14.509805%);fill-opacity:1;" d="M 16.0625 1.90625 C 17.234375 2.519531 18.144531 3.398438 18.796875 4.539062 C 17.675781 4.648438 16.570312 4.84375 15.476562 5.125 C 15.671875 4.054688 15.867188 2.976562 16.0625 1.90625 Z M 16.0625 1.90625 "/>
<use xlink:href="#surface5" mask="url(#mask0)"/>
<path style=" stroke:none;fill-rule:evenodd;fill:rgb(97.647059%,72.549021%,50.196081%);fill-opacity:1;" d="M 18.992188 9.523438 C 19.246094 12 18.660156 14.246094 17.234375 16.257812 C 16.628906 17.015625 15.914062 17.648438 15.085938 18.164062 C 12.847656 19.320312 10.765625 19.089844 8.835938 17.480469 C 8.457031 17.058594 8.066406 16.648438 7.664062 16.257812 C 6.242188 14.246094 5.65625 12 5.90625 9.523438 C 10.269531 9.390625 14.632812 9.390625 18.992188 9.523438 Z M 18.992188 9.523438 "/>
<use xlink:href="#surface8" mask="url(#mask1)"/>
<use xlink:href="#surface11" mask="url(#mask2)"/>
<use xlink:href="#surface14" mask="url(#mask3)"/>
<use xlink:href="#surface17" mask="url(#mask4)"/>
</g>
</svg>
