<?xml version="1.0" encoding="UTF-8"?>
<svg xmlns="http://www.w3.org/2000/svg" xmlns:xlink="http://www.w3.org/1999/xlink" width="25px" height="25px" viewBox="0 0 25 25" version="1.1">
<defs>
<filter id="alpha" filterUnits="objectBoundingBox" x="0%" y="0%" width="100%" height="100%">
  <feColorMatrix type="matrix" in="SourceGraphic" values="0 0 0 0 1 0 0 0 0 1 0 0 0 0 1 0 0 0 1 0"/>
</filter>
<mask id="mask0">
  <g filter="url(#alpha)">
<rect x="0" y="0" width="25" height="25" style="fill:rgb(0%,0%,0%);fill-opacity:0.992157;stroke:none;"/>
  </g>
</mask>
<clipPath id="clip1">
  <rect x="0" y="0" width="25" height="25"/>
</clipPath>
<g id="surface5" clip-path="url(#clip1)">
<path style=" stroke:none;fill-rule:evenodd;fill:rgb(99.215686%,85.490197%,36.078432%);fill-opacity:1;" d="M 14.5 3.078125 C 14.675781 3.910156 14.742188 4.757812 14.695312 5.617188 C 14.242188 5.617188 13.785156 5.617188 13.328125 5.617188 C 13.359375 5.140625 13.328125 4.683594 13.234375 4.25 C 12.898438 3.644531 12.441406 3.53125 11.867188 3.90625 C 11.734375 3.984375 11.671875 4.101562 11.671875 4.25 C 11.574219 4.683594 11.542969 5.140625 11.570312 5.617188 C 11.117188 5.617188 10.660156 5.617188 10.203125 5.617188 C 10.160156 4.757812 10.226562 3.910156 10.398438 3.078125 C 11.125 1.949219 12.132812 1.609375 13.429688 2.050781 C 13.902344 2.28125 14.261719 2.621094 14.5 3.078125 Z M 14.5 3.078125 "/>
</g>
<mask id="mask1">
  <g filter="url(#alpha)">
<rect x="0" y="0" width="25" height="25" style="fill:rgb(0%,0%,0%);fill-opacity:0.917647;stroke:none;"/>
  </g>
</mask>
<clipPath id="clip2">
  <rect x="0" y="0" width="25" height="25"/>
</clipPath>
<g id="surface8" clip-path="url(#clip2)">
<path style=" stroke:none;fill-rule:evenodd;fill:rgb(99.215686%,85.490197%,35.686275%);fill-opacity:1;" d="M 6.789062 2.78125 C 7.15625 2.816406 7.511719 2.898438 7.859375 3.027344 C 8.164062 3.441406 8.066406 3.71875 7.570312 3.859375 C 7.269531 3.792969 6.976562 3.710938 6.6875 3.613281 C 6.546875 3.3125 6.578125 3.035156 6.789062 2.78125 Z M 6.789062 2.78125 "/>
</g>
<mask id="mask2">
  <g filter="url(#alpha)">
<rect x="0" y="0" width="25" height="25" style="fill:rgb(0%,0%,0%);fill-opacity:0.92549;stroke:none;"/>
  </g>
</mask>
<clipPath id="clip3">
  <rect x="0" y="0" width="25" height="25"/>
</clipPath>
<g id="surface11" clip-path="url(#clip3)">
<path style=" stroke:none;fill-rule:evenodd;fill:rgb(99.215686%,85.490197%,36.078432%);fill-opacity:1;" d="M 17.820312 2.78125 C 18.277344 2.847656 18.421875 3.109375 18.261719 3.5625 C 17.871094 3.78125 17.464844 3.84375 17.039062 3.757812 C 16.804688 3.550781 16.785156 3.320312 16.992188 3.078125 C 17.28125 2.984375 17.558594 2.886719 17.820312 2.78125 Z M 17.820312 2.78125 "/>
</g>
<mask id="mask3">
  <g filter="url(#alpha)">
<rect x="0" y="0" width="25" height="25" style="fill:rgb(0%,0%,0%);fill-opacity:0.980392;stroke:none;"/>
  </g>
</mask>
<clipPath id="clip4">
  <rect x="0" y="0" width="25" height="25"/>
</clipPath>
<g id="surface14" clip-path="url(#clip4)">
<path style=" stroke:none;fill-rule:evenodd;fill:rgb(98.039216%,90.196079%,48.235294%);fill-opacity:1;" d="M 10.398438 3.078125 C 10.226562 3.910156 10.160156 4.757812 10.203125 5.617188 C 10.660156 5.617188 11.117188 5.617188 11.570312 5.617188 C 11.570312 5.648438 11.570312 5.679688 11.570312 5.710938 C 10.953125 5.695312 10.335938 5.714844 9.71875 5.761719 C 9.503906 5.925781 9.375 6.136719 9.328125 6.398438 C 9.109375 6.34375 8.964844 6.214844 8.886719 6.007812 C 8.820312 5.191406 8.820312 4.378906 8.886719 3.5625 C 8.976562 3.308594 9.15625 3.164062 9.421875 3.125 C 9.746094 3.078125 10.074219 3.058594 10.398438 3.078125 Z M 10.398438 3.078125 "/>
</g>
<mask id="mask4">
  <g filter="url(#alpha)">
<rect x="0" y="0" width="25" height="25" style="fill:rgb(0%,0%,0%);fill-opacity:0.976471;stroke:none;"/>
  </g>
</mask>
<clipPath id="clip5">
  <rect x="0" y="0" width="25" height="25"/>
</clipPath>
<g id="surface17" clip-path="url(#clip5)">
<path style=" stroke:none;fill-rule:evenodd;fill:rgb(98.039216%,90.196079%,48.235294%);fill-opacity:1;" d="M 14.5 3.078125 C 14.933594 3.046875 15.359375 3.097656 15.773438 3.222656 C 15.890625 3.3125 15.96875 3.425781 16.015625 3.5625 C 16.082031 4.378906 16.082031 5.191406 16.015625 6.007812 C 15.914062 6.191406 15.765625 6.320312 15.578125 6.398438 C 15.527344 6.136719 15.398438 5.925781 15.1875 5.761719 C 14.566406 5.714844 13.949219 5.695312 13.328125 5.710938 C 13.328125 5.679688 13.328125 5.648438 13.328125 5.617188 C 13.785156 5.617188 14.242188 5.617188 14.695312 5.617188 C 14.742188 4.757812 14.675781 3.910156 14.5 3.078125 Z M 14.5 3.078125 "/>
</g>
<mask id="mask5">
  <g filter="url(#alpha)">
<rect x="0" y="0" width="25" height="25" style="fill:rgb(0%,0%,0%);fill-opacity:0.878431;stroke:none;"/>
  </g>
</mask>
<clipPath id="clip6">
  <rect x="0" y="0" width="25" height="25"/>
</clipPath>
<g id="surface20" clip-path="url(#clip6)">
<path style=" stroke:none;fill-rule:evenodd;fill:rgb(98.823529%,85.09804%,35.686275%);fill-opacity:1;" d="M 6.492188 4.34375 C 6.820312 4.328125 7.148438 4.347656 7.46875 4.394531 C 7.859375 4.65625 7.859375 4.914062 7.46875 5.175781 C 7.144531 5.242188 6.820312 5.242188 6.492188 5.175781 C 6.113281 4.898438 6.113281 4.625 6.492188 4.34375 Z M 6.492188 4.34375 "/>
</g>
<mask id="mask6">
  <g filter="url(#alpha)">
<rect x="0" y="0" width="25" height="25" style="fill:rgb(0%,0%,0%);fill-opacity:0.878431;stroke:none;"/>
  </g>
</mask>
<clipPath id="clip7">
  <rect x="0" y="0" width="25" height="25"/>
</clipPath>
<g id="surface23" clip-path="url(#clip7)">
<path style=" stroke:none;fill-rule:evenodd;fill:rgb(98.823529%,85.09804%,35.686275%);fill-opacity:1;" d="M 17.429688 4.34375 C 17.796875 4.320312 18.15625 4.351562 18.507812 4.445312 C 18.777344 4.726562 18.742188 4.96875 18.40625 5.175781 C 18.082031 5.242188 17.757812 5.242188 17.429688 5.175781 C 17.308594 5.0625 17.210938 4.933594 17.140625 4.785156 C 17.226562 4.628906 17.324219 4.480469 17.429688 4.34375 Z M 17.429688 4.34375 "/>
</g>
<mask id="mask7">
  <g filter="url(#alpha)">
<rect x="0" y="0" width="25" height="25" style="fill:rgb(0%,0%,0%);fill-opacity:0.992157;stroke:none;"/>
  </g>
</mask>
<clipPath id="clip8">
  <rect x="0" y="0" width="25" height="25"/>
</clipPath>
<g id="surface26" clip-path="url(#clip8)">
<path style=" stroke:none;fill-rule:evenodd;fill:rgb(61.56863%,67.450982%,72.156864%);fill-opacity:1;" d="M 11.570312 5.710938 C 12.15625 5.710938 12.742188 5.710938 13.328125 5.710938 C 13.949219 5.695312 14.566406 5.714844 15.1875 5.761719 C 15.398438 5.925781 15.527344 6.136719 15.578125 6.398438 C 15.570312 6.855469 15.34375 7.085938 14.890625 7.078125 C 13.265625 7.078125 11.636719 7.078125 10.007812 7.078125 C 9.558594 7.085938 9.332031 6.855469 9.328125 6.398438 C 9.375 6.136719 9.503906 5.925781 9.71875 5.761719 C 10.335938 5.714844 10.953125 5.695312 11.570312 5.710938 Z M 11.570312 5.710938 "/>
</g>
<mask id="mask8">
  <g filter="url(#alpha)">
<rect x="0" y="0" width="25" height="25" style="fill:rgb(0%,0%,0%);fill-opacity:0.933333;stroke:none;"/>
  </g>
</mask>
<clipPath id="clip9">
  <rect x="0" y="0" width="25" height="25"/>
</clipPath>
<g id="surface29" clip-path="url(#clip9)">
<path style=" stroke:none;fill-rule:evenodd;fill:rgb(99.215686%,85.490197%,35.686275%);fill-opacity:1;" d="M 7.375 5.710938 C 7.933594 5.734375 8.113281 5.996094 7.910156 6.492188 C 7.554688 6.675781 7.179688 6.757812 6.789062 6.738281 C 6.523438 6.496094 6.492188 6.253906 6.6875 6.007812 C 6.921875 5.890625 7.148438 5.792969 7.375 5.710938 Z M 7.375 5.710938 "/>
</g>
<mask id="mask9">
  <g filter="url(#alpha)">
<rect x="0" y="0" width="25" height="25" style="fill:rgb(0%,0%,0%);fill-opacity:0.94902;stroke:none;"/>
  </g>
</mask>
<clipPath id="clip10">
  <rect x="0" y="0" width="25" height="25"/>
</clipPath>
<g id="surface32" clip-path="url(#clip10)">
<path style=" stroke:none;fill-rule:evenodd;fill:rgb(99.215686%,85.490197%,36.078432%);fill-opacity:1;" d="M 17.140625 5.710938 C 17.507812 5.746094 17.863281 5.828125 18.210938 5.957031 C 18.46875 6.339844 18.371094 6.617188 17.921875 6.789062 C 17.621094 6.722656 17.328125 6.640625 17.039062 6.542969 C 16.769531 6.230469 16.804688 5.953125 17.140625 5.710938 Z M 17.140625 5.710938 "/>
</g>
<mask id="mask10">
  <g filter="url(#alpha)">
<rect x="0" y="0" width="25" height="25" style="fill:rgb(0%,0%,0%);fill-opacity:0.996078;stroke:none;"/>
  </g>
</mask>
<clipPath id="clip11">
  <rect x="0" y="0" width="25" height="25"/>
</clipPath>
<g id="surface35" clip-path="url(#clip11)">
<path style=" stroke:none;fill-rule:evenodd;fill:rgb(38.431373%,85.09804%,98.039216%);fill-opacity:1;" d="M 10.007812 7.078125 C 11.636719 7.078125 13.265625 7.078125 14.890625 7.078125 C 15.085938 9.292969 15.246094 11.503906 15.382812 13.71875 C 15.449219 14.371094 15.484375 15.019531 15.476562 15.671875 C 14.828125 15.671875 14.175781 15.671875 13.523438 15.671875 C 13.542969 15.023438 13.523438 14.371094 13.476562 13.71875 C 13.164062 13.074219 12.660156 12.863281 11.960938 13.085938 C 11.746094 13.269531 11.566406 13.480469 11.425781 13.71875 C 11.375 14.371094 11.359375 15.023438 11.375 15.671875 C 10.726562 15.671875 10.074219 15.671875 9.421875 15.671875 C 9.46875 14.664062 9.5 13.65625 9.523438 12.648438 C 9.707031 10.796875 9.871094 8.941406 10.007812 7.078125 Z M 10.007812 7.078125 "/>
</g>
<mask id="mask11">
  <g filter="url(#alpha)">
<rect x="0" y="0" width="25" height="25" style="fill:rgb(0%,0%,0%);fill-opacity:0.992157;stroke:none;"/>
  </g>
</mask>
<clipPath id="clip12">
  <rect x="0" y="0" width="25" height="25"/>
</clipPath>
<g id="surface38" clip-path="url(#clip12)">
<path style=" stroke:none;fill-rule:evenodd;fill:rgb(88.235295%,92.941177%,94.509804%);fill-opacity:1;" d="M 9.523438 12.648438 C 9.5 13.65625 9.46875 14.664062 9.421875 15.671875 C 8.542969 15.808594 8.183594 16.328125 8.351562 17.234375 C 7.664062 17.234375 6.984375 17.234375 6.296875 17.234375 C 6.203125 16.46875 6.074219 15.71875 5.90625 14.992188 C 5.902344 14.703125 5.984375 14.445312 6.152344 14.210938 C 6.523438 13.742188 6.933594 13.300781 7.375 12.890625 C 7.660156 12.71875 7.96875 12.605469 8.300781 12.546875 C 8.703125 12.628906 9.109375 12.664062 9.523438 12.648438 Z M 9.523438 12.648438 "/>
</g>
<mask id="mask12">
  <g filter="url(#alpha)">
<rect x="0" y="0" width="25" height="25" style="fill:rgb(0%,0%,0%);fill-opacity:0.972549;stroke:none;"/>
  </g>
</mask>
<clipPath id="clip13">
  <rect x="0" y="0" width="25" height="25"/>
</clipPath>
<g id="surface41" clip-path="url(#clip13)">
<path style=" stroke:none;fill-rule:evenodd;fill:rgb(83.92157%,89.411765%,92.156863%);fill-opacity:1;" d="M 15.382812 13.71875 C 16.125 13.859375 16.875 14.007812 17.625 14.160156 C 17.851562 14.363281 18.015625 14.609375 18.117188 14.890625 C 17.578125 15.339844 17.027344 15.761719 16.453125 16.164062 C 16.210938 15.84375 15.882812 15.679688 15.476562 15.671875 C 15.484375 15.019531 15.449219 14.371094 15.382812 13.71875 Z M 15.382812 13.71875 "/>
</g>
<mask id="mask13">
  <g filter="url(#alpha)">
<rect x="0" y="0" width="25" height="25" style="fill:rgb(0%,0%,0%);fill-opacity:0.988235;stroke:none;"/>
  </g>
</mask>
<clipPath id="clip14">
  <rect x="0" y="0" width="25" height="25"/>
</clipPath>
<g id="surface44" clip-path="url(#clip14)">
<path style=" stroke:none;fill-rule:evenodd;fill:rgb(88.235295%,92.941177%,94.509804%);fill-opacity:1;" d="M 18.117188 14.890625 C 19.140625 14.933594 20.101562 15.191406 20.996094 15.671875 C 21.257812 16.175781 21.46875 16.699219 21.632812 17.234375 C 19.9375 17.234375 18.246094 17.234375 16.554688 17.234375 C 16.570312 16.871094 16.539062 16.511719 16.453125 16.164062 C 17.027344 15.761719 17.578125 15.339844 18.117188 14.890625 Z M 18.117188 14.890625 "/>
</g>
<mask id="mask14">
  <g filter="url(#alpha)">
<rect x="0" y="0" width="25" height="25" style="fill:rgb(0%,0%,0%);fill-opacity:0.984314;stroke:none;"/>
  </g>
</mask>
<clipPath id="clip15">
  <rect x="0" y="0" width="25" height="25"/>
</clipPath>
<g id="surface47" clip-path="url(#clip15)">
<path style=" stroke:none;fill-rule:evenodd;fill:rgb(84.313726%,89.411765%,92.156863%);fill-opacity:1;" d="M 5.90625 14.992188 C 6.074219 15.71875 6.203125 16.46875 6.296875 17.234375 C 5.421875 17.234375 4.539062 17.234375 3.664062 17.234375 C 3.589844 16.996094 3.527344 16.753906 3.46875 16.503906 C 3.613281 15.917969 3.90625 15.429688 4.34375 15.039062 C 4.867188 14.992188 5.386719 14.972656 5.90625 14.992188 Z M 5.90625 14.992188 "/>
</g>
<mask id="mask15">
  <g filter="url(#alpha)">
<rect x="0" y="0" width="25" height="25" style="fill:rgb(0%,0%,0%);fill-opacity:0.996078;stroke:none;"/>
  </g>
</mask>
<clipPath id="clip16">
  <rect x="0" y="0" width="25" height="25"/>
</clipPath>
<g id="surface50" clip-path="url(#clip16)">
<path style=" stroke:none;fill-rule:evenodd;fill:rgb(60.784316%,95.686275%,82.352942%);fill-opacity:1;" d="M 3.664062 17.234375 C 4.539062 17.234375 5.421875 17.234375 6.296875 17.234375 C 6.984375 17.234375 7.664062 17.234375 8.351562 17.234375 C 11.085938 17.234375 13.820312 17.234375 16.554688 17.234375 C 18.246094 17.234375 19.9375 17.234375 21.632812 17.234375 C 22.144531 17.144531 22.585938 17.277344 22.949219 17.625 C 23 18.246094 23.015625 18.863281 23 19.484375 C 22.851562 19.351562 22.6875 19.238281 22.507812 19.140625 C 15.773438 19.074219 9.03125 19.074219 2.296875 19.140625 C 2.175781 19.273438 2.046875 19.390625 1.90625 19.484375 C 1.886719 18.863281 1.90625 18.246094 1.953125 17.625 C 2.070312 17.476562 2.21875 17.363281 2.390625 17.285156 C 2.816406 17.238281 3.238281 17.21875 3.664062 17.234375 Z M 3.664062 17.234375 "/>
</g>
</defs>
<g id="surface1">
<use xlink:href="#surface5" mask="url(#mask0)"/>
<use xlink:href="#surface8" mask="url(#mask1)"/>
<use xlink:href="#surface11" mask="url(#mask2)"/>
<use xlink:href="#surface14" mask="url(#mask3)"/>
<use xlink:href="#surface17" mask="url(#mask4)"/>
<path style=" stroke:none;fill-rule:evenodd;fill:rgb(94.117647%,95.294118%,95.686275%);fill-opacity:1;" d="M 13.234375 4.25 C 13.234375 4.703125 13.234375 5.160156 13.234375 5.617188 C 12.710938 5.617188 12.191406 5.617188 11.671875 5.617188 C 11.671875 5.160156 11.671875 4.703125 11.671875 4.25 C 11.671875 4.101562 11.734375 3.984375 11.867188 3.90625 C 12.441406 3.53125 12.898438 3.644531 13.234375 4.25 Z M 13.234375 4.25 "/>
<use xlink:href="#surface20" mask="url(#mask5)"/>
<use xlink:href="#surface23" mask="url(#mask6)"/>
<path style=" stroke:none;fill-rule:evenodd;fill:rgb(90.588236%,89.411765%,79.607844%);fill-opacity:1;" d="M 11.671875 4.25 C 11.671875 4.703125 11.671875 5.160156 11.671875 5.617188 C 12.191406 5.617188 12.710938 5.617188 13.234375 5.617188 C 13.234375 5.160156 13.234375 4.703125 13.234375 4.25 C 13.328125 4.683594 13.359375 5.140625 13.328125 5.617188 C 13.328125 5.648438 13.328125 5.679688 13.328125 5.710938 C 12.742188 5.710938 12.15625 5.710938 11.570312 5.710938 C 11.570312 5.679688 11.570312 5.648438 11.570312 5.617188 C 11.542969 5.140625 11.574219 4.683594 11.671875 4.25 Z M 11.671875 4.25 "/>
<use xlink:href="#surface26" mask="url(#mask7)"/>
<use xlink:href="#surface29" mask="url(#mask8)"/>
<use xlink:href="#surface32" mask="url(#mask9)"/>
<use xlink:href="#surface35" mask="url(#mask10)"/>
<use xlink:href="#surface38" mask="url(#mask11)"/>
<path style=" stroke:none;fill-rule:evenodd;fill:rgb(93.725491%,95.294118%,96.470588%);fill-opacity:1;" d="M 13.523438 15.671875 C 12.808594 15.671875 12.09375 15.671875 11.375 15.671875 C 11.359375 15.023438 11.375 14.371094 11.425781 13.71875 C 11.566406 13.480469 11.746094 13.269531 11.960938 13.085938 C 12.660156 12.863281 13.164062 13.074219 13.476562 13.71875 C 13.523438 14.371094 13.542969 15.023438 13.523438 15.671875 Z M 13.523438 15.671875 "/>
<use xlink:href="#surface41" mask="url(#mask12)"/>
<use xlink:href="#surface44" mask="url(#mask13)"/>
<use xlink:href="#surface47" mask="url(#mask14)"/>
<path style=" stroke:none;fill-rule:evenodd;fill:rgb(61.56863%,67.450982%,72.549021%);fill-opacity:1;" d="M 9.421875 15.671875 C 10.074219 15.671875 10.726562 15.671875 11.375 15.671875 C 12.09375 15.671875 12.808594 15.671875 13.523438 15.671875 C 14.175781 15.671875 14.828125 15.671875 15.476562 15.671875 C 15.882812 15.679688 16.210938 15.84375 16.453125 16.164062 C 16.539062 16.511719 16.570312 16.871094 16.554688 17.234375 C 13.820312 17.234375 11.085938 17.234375 8.351562 17.234375 C 8.183594 16.328125 8.542969 15.808594 9.421875 15.671875 Z M 9.421875 15.671875 "/>
<use xlink:href="#surface50" mask="url(#mask15)"/>
<path style=" stroke:none;fill-rule:evenodd;fill:rgb(93.725491%,73.725492%,68.627453%);fill-opacity:1;" d="M 23 19.484375 C 23.015625 20.558594 23 21.632812 22.949219 22.703125 C 22.867188 22.785156 22.785156 22.867188 22.703125 22.949219 C 15.867188 23.015625 9.03125 23.015625 2.195312 22.949219 C 1.980469 22.769531 1.851562 22.542969 1.804688 22.265625 C 1.894531 21.335938 1.925781 20.40625 1.90625 19.484375 C 2.046875 19.390625 2.175781 19.273438 2.296875 19.140625 C 9.03125 19.074219 15.773438 19.074219 22.507812 19.140625 C 22.6875 19.238281 22.851562 19.351562 23 19.484375 Z M 23 19.484375 "/>
<path style=" stroke:none;fill-rule:evenodd;fill:rgb(91.37255%,65.490198%,59.215689%);fill-opacity:1;" d="M 12.0625 20.164062 C 12.667969 20.148438 12.796875 20.390625 12.453125 20.898438 C 11.910156 20.863281 11.777344 20.617188 12.0625 20.164062 Z M 12.0625 20.164062 "/>
<path style=" stroke:none;fill-rule:evenodd;fill:rgb(91.37255%,65.490198%,59.607846%);fill-opacity:1;" d="M 19.484375 20.359375 C 20.035156 20.28125 20.199219 20.492188 19.96875 20.996094 C 19.601562 21.242188 19.371094 21.144531 19.289062 20.703125 C 19.332031 20.574219 19.398438 20.460938 19.484375 20.359375 Z M 19.484375 20.359375 "/>
<path style=" stroke:none;fill-rule:evenodd;fill:rgb(91.37255%,65.490198%,59.607846%);fill-opacity:1;" d="M 4.835938 20.554688 C 5.34375 20.542969 5.503906 20.773438 5.320312 21.242188 C 4.667969 21.367188 4.503906 21.136719 4.835938 20.554688 Z M 4.835938 20.554688 "/>
<path style=" stroke:none;fill-rule:evenodd;fill:rgb(91.37255%,65.490198%,59.215689%);fill-opacity:1;" d="M 8.445312 20.945312 C 9.03125 20.964844 9.164062 21.207031 8.835938 21.679688 C 8.242188 21.695312 8.113281 21.449219 8.445312 20.945312 Z M 8.445312 20.945312 "/>
<path style=" stroke:none;fill-rule:evenodd;fill:rgb(91.37255%,65.882355%,59.607846%);fill-opacity:1;" d="M 15.382812 21.335938 C 15.917969 21.335938 16.078125 21.582031 15.867188 22.070312 C 15.210938 22.144531 15.046875 21.898438 15.382812 21.335938 Z M 15.382812 21.335938 "/>
</g>
</svg>
