<?xml version="1.0" encoding="UTF-8"?>
<svg xmlns="http://www.w3.org/2000/svg" xmlns:xlink="http://www.w3.org/1999/xlink" width="25px" height="25px" viewBox="0 0 25 25" version="1.1">
<defs>
<filter id="alpha" filterUnits="objectBoundingBox" x="0%" y="0%" width="100%" height="100%">
  <feColorMatrix type="matrix" in="SourceGraphic" values="0 0 0 0 1 0 0 0 0 1 0 0 0 0 1 0 0 0 1 0"/>
</filter>
<mask id="mask0">
  <g filter="url(#alpha)">
<rect x="0" y="0" width="25" height="25" style="fill:rgb(0%,0%,0%);fill-opacity:0.968627;stroke:none;"/>
  </g>
</mask>
<clipPath id="clip1">
  <rect x="0" y="0" width="25" height="25"/>
</clipPath>
<g id="surface5" clip-path="url(#clip1)">
<path style=" stroke:none;fill-rule:evenodd;fill:rgb(16.078432%,10.588235%,23.529412%);fill-opacity:1;" d="M 10.890625 -0.046875 C 11.929688 -0.046875 12.972656 -0.046875 14.015625 -0.046875 C 18.894531 0.777344 22.296875 3.480469 24.21875 8.054688 C 24.542969 8.992188 24.785156 9.9375 24.953125 10.890625 C 24.953125 11.929688 24.953125 12.972656 24.953125 14.015625 C 24.125 18.894531 21.421875 22.296875 16.84375 24.21875 C 15.910156 24.542969 14.964844 24.785156 14.015625 24.953125 C 12.972656 24.953125 11.929688 24.953125 10.890625 24.953125 C 6.007812 24.125 2.605469 21.421875 0.683594 16.84375 C 0.359375 15.910156 0.117188 14.964844 -0.046875 14.015625 C -0.046875 12.972656 -0.046875 11.929688 -0.046875 10.890625 C 0.777344 6.007812 3.480469 2.605469 8.054688 0.683594 C 8.992188 0.359375 9.9375 0.117188 10.890625 -0.046875 Z M 10.890625 -0.046875 "/>
</g>
</defs>
<g id="surface1">
<use xlink:href="#surface5" mask="url(#mask0)"/>
<path style=" stroke:none;fill-rule:evenodd;fill:rgb(90.980393%,90.980393%,90.980393%);fill-opacity:1;" d="M 14.796875 1.21875 C 20.777344 4.234375 23.136719 9.050781 21.875 15.671875 C 20.699219 19.40625 18.339844 22.074219 14.796875 23.679688 C 8.917969 24.519531 4.636719 22.304688 1.953125 17.039062 C -0.015625 11.78125 1.074219 7.273438 5.226562 3.515625 C 8.058594 1.308594 11.246094 0.546875 14.796875 1.21875 Z M 14.796875 1.21875 "/>
<path style=" stroke:none;fill-rule:evenodd;fill:rgb(72.156864%,80.000001%,80.000001%);fill-opacity:1;" d="M 14.796875 1.21875 C 18.753906 2.167969 21.539062 4.511719 23.144531 8.25 C 24.789062 13.378906 23.632812 17.753906 19.679688 21.386719 C 18.214844 22.492188 16.585938 23.257812 14.796875 23.679688 C 18.339844 22.074219 20.699219 19.40625 21.875 15.671875 C 23.136719 9.050781 20.777344 4.234375 14.796875 1.21875 Z M 14.796875 1.21875 "/>
<path style=" stroke:none;fill-rule:evenodd;fill:rgb(16.470589%,10.588235%,23.529412%);fill-opacity:1;" d="M 10.59375 5.125 C 11.832031 5.109375 13.070312 5.128906 14.304688 5.175781 C 14.707031 5.347656 15.015625 5.625 15.234375 6.007812 C 15.28125 7.273438 15.300781 8.542969 15.28125 9.8125 C 16.59375 9.769531 17.898438 9.816406 19.1875 9.960938 C 19.5 10.140625 19.742188 10.382812 19.921875 10.695312 C 19.988281 11.996094 19.988281 13.296875 19.921875 14.601562 C 19.742188 15.039062 19.433594 15.347656 18.992188 15.527344 C 17.757812 15.578125 16.519531 15.59375 15.28125 15.578125 C 15.300781 16.8125 15.28125 18.050781 15.234375 19.289062 C 15.054688 19.726562 14.746094 20.035156 14.304688 20.214844 C 13.070312 20.28125 11.832031 20.28125 10.59375 20.214844 C 10.15625 20.035156 9.847656 19.726562 9.667969 19.289062 C 9.621094 18.050781 9.601562 16.8125 9.617188 15.578125 C 8.382812 15.59375 7.144531 15.578125 5.90625 15.527344 C 5.46875 15.347656 5.160156 15.039062 4.980469 14.601562 C 4.914062 13.296875 4.914062 11.996094 4.980469 10.695312 C 5.160156 10.382812 5.402344 10.140625 5.710938 9.960938 C 7.003906 9.816406 8.308594 9.769531 9.617188 9.8125 C 9.601562 8.542969 9.621094 7.273438 9.667969 6.007812 C 9.902344 5.625 10.210938 5.332031 10.59375 5.125 Z M 10.59375 5.125 "/>
<path style=" stroke:none;fill-rule:evenodd;fill:rgb(94.509804%,48.235294%,42.352942%);fill-opacity:1;" d="M 10.789062 6.203125 C 11.898438 6.183594 13.003906 6.203125 14.109375 6.25 C 14.160156 6.296875 14.210938 6.347656 14.257812 6.398438 C 14.273438 7.851562 14.324219 9.300781 14.40625 10.742188 C 15.859375 10.871094 17.324219 10.933594 18.796875 10.9375 C 18.847656 10.984375 18.898438 11.035156 18.945312 11.085938 C 19.023438 12.195312 19.007812 13.300781 18.898438 14.40625 C 17.464844 14.484375 16.03125 14.535156 14.601562 14.550781 C 14.519531 14.632812 14.4375 14.714844 14.355469 14.796875 C 14.335938 16.230469 14.289062 17.664062 14.210938 19.09375 C 13.039062 19.222656 11.867188 19.222656 10.695312 19.09375 C 10.613281 17.664062 10.566406 16.230469 10.546875 14.796875 C 10.5 14.746094 10.449219 14.695312 10.398438 14.648438 C 8.90625 14.570312 7.421875 14.457031 5.957031 14.304688 C 5.890625 13.234375 5.890625 12.15625 5.957031 11.085938 C 6.007812 11.035156 6.054688 10.984375 6.101562 10.9375 C 7.503906 10.90625 8.902344 10.871094 10.304688 10.839844 C 10.382812 10.808594 10.445312 10.761719 10.5 10.695312 C 10.578125 9.265625 10.625 7.832031 10.644531 6.398438 C 10.714844 6.34375 10.761719 6.277344 10.789062 6.203125 Z M 10.789062 6.203125 "/>
</g>
</svg>
