<?xml version="1.0" encoding="UTF-8"?>
<svg xmlns="http://www.w3.org/2000/svg" xmlns:xlink="http://www.w3.org/1999/xlink" width="25px" height="25px" viewBox="0 0 25 25" version="1.1">
<defs>
<filter id="alpha" filterUnits="objectBoundingBox" x="0%" y="0%" width="100%" height="100%">
  <feColorMatrix type="matrix" in="SourceGraphic" values="0 0 0 0 1 0 0 0 0 1 0 0 0 0 1 0 0 0 1 0"/>
</filter>
<mask id="mask0">
  <g filter="url(#alpha)">
<rect x="0" y="0" width="25" height="25" style="fill:rgb(0%,0%,0%);fill-opacity:0.94902;stroke:none;"/>
  </g>
</mask>
<clipPath id="clip1">
  <rect x="0" y="0" width="25" height="25"/>
</clipPath>
<g id="surface5" clip-path="url(#clip1)">
<path style=" stroke:none;fill-rule:evenodd;fill:rgb(20.392157%,20%,19.607843%);fill-opacity:1;" d="M 8.15625 -0.046875 C 8.351562 -0.046875 8.546875 -0.046875 8.742188 -0.046875 C 9.222656 0.808594 9.726562 1.65625 10.253906 2.492188 C 10.433594 3.003906 10.257812 3.265625 9.71875 3.273438 C 9.699219 5.09375 9.71875 6.917969 9.765625 8.742188 C 9.972656 9.308594 10.378906 9.601562 10.984375 9.617188 C 10.984375 8.15625 10.984375 6.6875 10.984375 5.226562 C 10.660156 5.226562 10.433594 5.078125 10.304688 4.785156 C 10.773438 3.925781 11.242188 3.0625 11.71875 2.195312 C 11.984375 1.859375 12.277344 1.824219 12.597656 2.101562 C 13.054688 2.882812 13.507812 3.664062 13.964844 4.445312 C 14.144531 4.957031 13.96875 5.21875 13.429688 5.226562 C 13.429688 6.6875 13.429688 8.15625 13.429688 9.617188 C 14 9.554688 14.40625 9.261719 14.648438 8.742188 C 14.695312 6.917969 14.714844 5.09375 14.695312 3.273438 C 14.15625 3.265625 13.980469 3.003906 14.160156 2.492188 C 14.640625 1.625 15.144531 0.777344 15.671875 -0.046875 C 15.835938 -0.046875 16 -0.046875 16.164062 -0.046875 C 16.75 0.867188 17.304688 1.8125 17.820312 2.78125 C 17.714844 3.113281 17.488281 3.277344 17.140625 3.273438 C 17.15625 5.191406 17.140625 7.113281 17.089844 9.03125 C 16.589844 10.914062 15.371094 11.925781 13.429688 12.0625 C 13.429688 12.351562 13.429688 12.648438 13.429688 12.9375 C 15.023438 12.957031 16.617188 12.9375 18.210938 12.890625 C 18.859375 12.625 19.265625 12.15625 19.433594 11.476562 C 19.480469 11.050781 19.5 10.628906 19.484375 10.203125 C 18.363281 10.304688 17.710938 9.800781 17.53125 8.691406 C 17.566406 8.269531 17.710938 7.898438 17.96875 7.570312 C 18.472656 7.0625 18.976562 6.558594 19.484375 6.054688 C 19.695312 5.921875 19.925781 5.886719 20.164062 5.957031 C 20.769531 6.558594 21.371094 7.160156 21.972656 7.765625 C 22.488281 8.898438 22.179688 9.695312 21.046875 10.15625 C 20.820312 10.203125 20.589844 10.222656 20.359375 10.203125 C 20.578125 11.65625 20.089844 12.78125 18.898438 13.574219 C 18.703125 13.640625 18.507812 13.703125 18.3125 13.769531 C 16.683594 13.820312 15.054688 13.835938 13.429688 13.820312 C 13.429688 15.121094 13.429688 16.421875 13.429688 17.726562 C 14.503906 17.707031 15.578125 17.726562 16.648438 17.773438 C 17.988281 18.132812 18.671875 19.011719 18.703125 20.410156 C 18.59375 21.730469 17.910156 22.578125 16.648438 22.949219 C 15.578125 23 14.503906 23.015625 13.429688 23 C 13.445312 23.585938 13.425781 24.171875 13.378906 24.757812 C 13.308594 24.808594 13.261719 24.875 13.234375 24.953125 C 12.546875 24.953125 11.867188 24.953125 11.179688 24.953125 C 11.152344 24.875 11.105469 24.808594 11.035156 24.757812 C 10.988281 24.171875 10.96875 23.585938 10.984375 23 C 8.25 23.03125 5.515625 23 2.78125 22.898438 C 2.652344 22.703125 2.652344 22.507812 2.78125 22.3125 C 5.515625 22.21875 8.25 22.183594 10.984375 22.21875 C 10.984375 20.980469 10.984375 19.742188 10.984375 18.507812 C 10.269531 18.523438 9.554688 18.507812 8.835938 18.457031 C 7.179688 17.894531 6.511719 16.738281 6.835938 14.992188 C 7.230469 13.78125 8.058594 13.113281 9.328125 12.988281 C 9.878906 12.941406 10.433594 12.921875 10.984375 12.9375 C 10.984375 12.648438 10.984375 12.351562 10.984375 12.0625 C 9.082031 11.929688 7.859375 10.953125 7.324219 9.132812 C 7.273438 7.179688 7.257812 5.226562 7.273438 3.273438 C 6.949219 3.269531 6.722656 3.125 6.59375 2.832031 C 7.074219 1.851562 7.59375 0.890625 8.15625 -0.046875 Z M 9.328125 13.820312 C 9.878906 13.820312 10.433594 13.820312 10.984375 13.820312 C 10.984375 15.121094 10.984375 16.421875 10.984375 17.726562 C 10.1875 17.777344 9.40625 17.695312 8.640625 17.480469 C 7.683594 16.851562 7.40625 15.988281 7.8125 14.890625 C 8.148438 14.277344 8.652344 13.921875 9.328125 13.820312 Z M 13.429688 18.507812 C 14.476562 18.46875 15.515625 18.519531 16.554688 18.652344 C 17.71875 19.1875 18.058594 20.050781 17.578125 21.242188 C 17.324219 21.621094 16.984375 21.898438 16.554688 22.070312 C 15.515625 22.203125 14.476562 22.253906 13.429688 22.21875 C 13.429688 20.980469 13.429688 19.742188 13.429688 18.507812 Z M 13.429688 18.507812 "/>
</g>
</defs>
<g id="surface1">
<use xlink:href="#surface5" mask="url(#mask0)"/>
<path style=" stroke:none;fill-rule:evenodd;fill:rgb(90.588236%,64.705884%,20.784314%);fill-opacity:1;" d="M 15.867188 1.125 C 16.140625 1.515625 16.398438 1.921875 16.648438 2.34375 C 16.164062 2.410156 15.671875 2.410156 15.1875 2.34375 C 15.453125 1.957031 15.679688 1.546875 15.867188 1.125 Z M 15.867188 1.125 "/>
<path style=" stroke:none;fill-rule:evenodd;fill:rgb(91.764706%,65.490198%,20.784314%);fill-opacity:1;" d="M 8.445312 1.125 C 8.671875 1.507812 8.902344 1.898438 9.132812 2.296875 C 8.675781 2.425781 8.21875 2.425781 7.765625 2.296875 C 7.996094 1.902344 8.222656 1.511719 8.445312 1.125 Z M 8.445312 1.125 "/>
<path style=" stroke:none;fill-rule:evenodd;fill:rgb(91.764706%,65.490198%,20.784314%);fill-opacity:1;" d="M 12.84375 4.25 C 12.40625 4.34375 11.949219 4.375 11.476562 4.34375 C 11.691406 3.941406 11.9375 3.550781 12.207031 3.171875 C 12.441406 3.519531 12.652344 3.878906 12.84375 4.25 Z M 12.84375 4.25 "/>
<path style=" stroke:none;fill-rule:evenodd;fill:rgb(80.784315%,29.411766%,16.470589%);fill-opacity:1;" d="M 8.835938 3.273438 C 8.609375 3.273438 8.382812 3.273438 8.15625 3.273438 C 8.15625 5.09375 8.15625 6.917969 8.15625 8.742188 C 8.058594 6.902344 8.023438 5.046875 8.054688 3.171875 C 8.339844 3.144531 8.597656 3.175781 8.835938 3.273438 Z M 8.835938 3.273438 "/>
<path style=" stroke:none;fill-rule:evenodd;fill:rgb(96.078432%,32.156864%,15.686275%);fill-opacity:1;" d="M 8.835938 3.273438 C 8.792969 5.199219 8.839844 7.121094 8.984375 9.03125 C 9.492188 10.15625 10.355469 10.597656 11.570312 10.351562 C 11.660156 10.28125 11.722656 10.199219 11.765625 10.109375 C 11.863281 8.496094 11.898438 6.871094 11.867188 5.226562 C 12.09375 5.226562 12.320312 5.226562 12.546875 5.226562 C 12.503906 6.925781 12.550781 8.621094 12.695312 10.304688 C 13.746094 10.589844 14.59375 10.296875 15.234375 9.421875 C 15.386719 9.148438 15.46875 8.855469 15.476562 8.546875 C 15.574219 6.804688 15.609375 5.046875 15.578125 3.273438 C 15.804688 3.273438 16.03125 3.273438 16.257812 3.273438 C 16.257812 5.09375 16.257812 6.917969 16.257812 8.742188 C 16.042969 9.980469 15.328125 10.78125 14.109375 11.132812 C 12.808594 11.199219 11.507812 11.199219 10.203125 11.132812 C 9.03125 10.75 8.347656 9.949219 8.15625 8.742188 C 8.15625 6.917969 8.15625 5.09375 8.15625 3.273438 C 8.382812 3.273438 8.609375 3.273438 8.835938 3.273438 Z M 8.835938 3.273438 "/>
<path style=" stroke:none;fill-rule:evenodd;fill:rgb(61.56863%,26.274511%,17.254902%);fill-opacity:1;" d="M 16.257812 8.742188 C 16.257812 6.917969 16.257812 5.09375 16.257812 3.273438 C 16.03125 3.273438 15.804688 3.273438 15.578125 3.273438 C 15.609375 5.046875 15.574219 6.804688 15.476562 8.546875 C 15.476562 6.753906 15.476562 4.964844 15.476562 3.171875 C 15.773438 3.171875 16.0625 3.171875 16.359375 3.171875 C 16.390625 5.046875 16.355469 6.902344 16.257812 8.742188 Z M 16.257812 8.742188 "/>
<path style=" stroke:none;fill-rule:evenodd;fill:rgb(38.431373%,31.764707%,20%);fill-opacity:1;" d="M 12.84375 4.25 C 12.894531 4.253906 12.925781 4.285156 12.9375 4.34375 C 12.4375 4.472656 11.949219 4.472656 11.476562 4.34375 C 11.949219 4.375 12.40625 4.34375 12.84375 4.25 Z M 12.84375 4.25 "/>
<path style=" stroke:none;fill-rule:evenodd;fill:rgb(66.666669%,27.058825%,17.254902%);fill-opacity:1;" d="M 12.546875 5.226562 C 12.320312 5.226562 12.09375 5.226562 11.867188 5.226562 C 11.898438 6.871094 11.863281 8.496094 11.765625 10.109375 C 11.765625 8.445312 11.765625 6.789062 11.765625 5.125 C 12.050781 5.097656 12.308594 5.128906 12.546875 5.226562 Z M 12.546875 5.226562 "/>
<path style=" stroke:none;fill-rule:evenodd;fill:rgb(94.901961%,31.764707%,15.686275%);fill-opacity:1;" d="M 19.773438 6.882812 C 20.320312 7.28125 20.824219 7.738281 21.289062 8.25 C 21.507812 8.632812 21.457031 8.972656 21.140625 9.277344 C 20.882812 9.34375 20.621094 9.34375 20.359375 9.277344 C 20.226562 9.144531 20.0625 9.0625 19.875 9.03125 C 19.636719 9.203125 19.375 9.332031 19.09375 9.421875 C 18.53125 9.277344 18.320312 8.917969 18.457031 8.351562 C 18.953125 7.902344 19.394531 7.414062 19.773438 6.882812 Z M 19.773438 6.882812 "/>
<path style=" stroke:none;fill-rule:evenodd;fill:rgb(62.7451%,47.450981%,20.784314%);fill-opacity:1;" d="M 12.546875 17.726562 C 12.546875 15.835938 12.546875 13.949219 12.546875 12.0625 C 12.320312 12.0625 12.09375 12.0625 11.867188 12.0625 C 11.867188 13.949219 11.867188 15.835938 11.867188 17.726562 C 11.769531 15.820312 11.734375 13.898438 11.765625 11.960938 C 12.0625 11.960938 12.351562 11.960938 12.648438 11.960938 C 12.679688 13.898438 12.644531 15.820312 12.546875 17.726562 Z M 12.546875 17.726562 "/>
<path style=" stroke:none;fill-rule:evenodd;fill:rgb(96.078432%,69.01961%,21.960784%);fill-opacity:1;" d="M 12.546875 17.726562 C 12.320312 17.726562 12.09375 17.726562 11.867188 17.726562 C 11.867188 15.835938 11.867188 13.949219 11.867188 12.0625 C 12.09375 12.0625 12.320312 12.0625 12.546875 12.0625 C 12.546875 13.949219 12.546875 15.835938 12.546875 17.726562 Z M 12.546875 17.726562 "/>
<path style=" stroke:none;fill-rule:evenodd;fill:rgb(93.333334%,67.450982%,21.960784%);fill-opacity:1;" d="M 11.765625 18.507812 C 12.027344 18.507812 12.289062 18.507812 12.546875 18.507812 C 12.546875 20.394531 12.546875 22.28125 12.546875 24.171875 C 12.289062 24.171875 12.027344 24.171875 11.765625 24.171875 C 11.765625 22.28125 11.765625 20.394531 11.765625 18.507812 Z M 11.765625 18.507812 "/>
</g>
</svg>
