<?xml version="1.0" encoding="UTF-8"?>
<svg xmlns="http://www.w3.org/2000/svg" xmlns:xlink="http://www.w3.org/1999/xlink" width="25px" height="25px" viewBox="0 0 25 25" version="1.1">
<defs>
<filter id="alpha" filterUnits="objectBoundingBox" x="0%" y="0%" width="100%" height="100%">
  <feColorMatrix type="matrix" in="SourceGraphic" values="0 0 0 0 1 0 0 0 0 1 0 0 0 0 1 0 0 0 1 0"/>
</filter>
<mask id="mask0">
  <g filter="url(#alpha)">
<rect x="0" y="0" width="25" height="25" style="fill:rgb(0%,0%,0%);fill-opacity:0.960784;stroke:none;"/>
  </g>
</mask>
<clipPath id="clip1">
  <rect x="0" y="0" width="25" height="25"/>
</clipPath>
<g id="surface5" clip-path="url(#clip1)">
<path style=" stroke:none;fill-rule:evenodd;fill:rgb(0%,0%,0%);fill-opacity:1;" d="M 16.359375 1.125 C 17.519531 1.71875 18.625 2.386719 19.679688 3.125 C 19.023438 4.285156 18.355469 5.441406 17.675781 6.59375 C 17.292969 6.921875 16.886719 7.214844 16.453125 7.46875 C 15.75 7.042969 15.035156 6.636719 14.304688 6.25 C 14.195312 5.753906 14.179688 5.25 14.257812 4.734375 C 14.957031 3.527344 15.660156 2.324219 16.359375 1.125 Z M 16.359375 1.125 "/>
</g>
<mask id="mask1">
  <g filter="url(#alpha)">
<rect x="0" y="0" width="25" height="25" style="fill:rgb(0%,0%,0%);fill-opacity:0.92549;stroke:none;"/>
  </g>
</mask>
<clipPath id="clip2">
  <rect x="0" y="0" width="25" height="25"/>
</clipPath>
<g id="surface8" clip-path="url(#clip2)">
<path style=" stroke:none;fill-rule:evenodd;fill:rgb(0%,0%,0%);fill-opacity:1;" d="M 13.820312 6.984375 C 14.570312 7.277344 15.289062 7.652344 15.96875 8.105469 C 15.5 8.863281 15.042969 9.628906 14.601562 10.398438 C 14.34375 10.511719 14.085938 10.527344 13.820312 10.449219 C 13.3125 10.179688 12.824219 9.886719 12.351562 9.570312 C 12.878906 8.730469 13.367188 7.867188 13.820312 6.984375 Z M 13.820312 6.984375 "/>
</g>
<mask id="mask2">
  <g filter="url(#alpha)">
<rect x="0" y="0" width="25" height="25" style="fill:rgb(0%,0%,0%);fill-opacity:0.870588;stroke:none;"/>
  </g>
</mask>
<clipPath id="clip3">
  <rect x="0" y="0" width="25" height="25"/>
</clipPath>
<g id="surface11" clip-path="url(#clip3)">
<path style=" stroke:none;fill-rule:evenodd;fill:rgb(0%,0%,0%);fill-opacity:1;" d="M 10.890625 7.960938 C 11.191406 8.078125 11.484375 8.226562 11.765625 8.398438 C 10.84375 10 9.882812 11.582031 8.886719 13.132812 C 8.585938 12.992188 8.308594 12.8125 8.054688 12.597656 C 8.296875 12.363281 8.410156 12.085938 8.398438 11.765625 C 8.128906 11.578125 7.851562 11.398438 7.570312 11.230469 C 7.75 10.953125 7.960938 10.707031 8.203125 10.5 C 8.476562 10.636719 8.738281 10.796875 8.984375 10.984375 C 9.621094 9.972656 10.253906 8.964844 10.890625 7.960938 Z M 10.890625 7.960938 "/>
</g>
<mask id="mask3">
  <g filter="url(#alpha)">
<rect x="0" y="0" width="25" height="25" style="fill:rgb(0%,0%,0%);fill-opacity:0.901961;stroke:none;"/>
  </g>
</mask>
<clipPath id="clip4">
  <rect x="0" y="0" width="25" height="25"/>
</clipPath>
<g id="surface14" clip-path="url(#clip4)">
<path style=" stroke:none;fill-rule:evenodd;fill:rgb(0%,0%,0%);fill-opacity:1;" d="M 11.570312 10.109375 C 12.023438 10.300781 12.445312 10.542969 12.84375 10.839844 C 11.820312 11.886719 11.804688 12.945312 12.792969 14.015625 C 12.839844 14.105469 12.855469 14.203125 12.84375 14.304688 C 12.597656 14.28125 12.367188 14.199219 12.15625 14.0625 C 11.46875 13.601562 10.75 13.175781 10.007812 12.792969 C 10.542969 11.902344 11.066406 11.007812 11.570312 10.109375 Z M 11.570312 10.109375 "/>
</g>
<mask id="mask4">
  <g filter="url(#alpha)">
<rect x="0" y="0" width="25" height="25" style="fill:rgb(0%,0%,0%);fill-opacity:0.929412;stroke:none;"/>
  </g>
</mask>
<clipPath id="clip5">
  <rect x="0" y="0" width="25" height="25"/>
</clipPath>
<g id="surface17" clip-path="url(#clip5)">
<path style=" stroke:none;fill-rule:evenodd;fill:rgb(0%,0%,0%);fill-opacity:1;" d="M 13.71875 11.28125 C 14.960938 11.355469 15.371094 11.972656 14.941406 13.132812 C 14.324219 13.785156 13.703125 13.785156 13.085938 13.132812 C 12.703125 12.308594 12.917969 11.6875 13.71875 11.28125 Z M 13.71875 11.28125 "/>
</g>
<mask id="mask5">
  <g filter="url(#alpha)">
<rect x="0" y="0" width="25" height="25" style="fill:rgb(0%,0%,0%);fill-opacity:0.94902;stroke:none;"/>
  </g>
</mask>
<clipPath id="clip6">
  <rect x="0" y="0" width="25" height="25"/>
</clipPath>
<g id="surface20" clip-path="url(#clip6)">
<path style=" stroke:none;fill-rule:evenodd;fill:rgb(0%,0%,0%);fill-opacity:1;" d="M 9.914062 13.71875 C 10.640625 14.035156 11.324219 14.425781 11.960938 14.890625 C 10.726562 17.039062 9.488281 19.1875 8.25 21.335938 C 7.703125 21.433594 7.148438 21.46875 6.59375 21.4375 C 6.523438 20.984375 6.410156 20.5625 6.25 20.164062 C 7.496094 18.027344 8.71875 15.878906 9.914062 13.71875 Z M 9.914062 13.71875 "/>
</g>
<mask id="mask6">
  <g filter="url(#alpha)">
<rect x="0" y="0" width="25" height="25" style="fill:rgb(0%,0%,0%);fill-opacity:0.870588;stroke:none;"/>
  </g>
</mask>
<clipPath id="clip7">
  <rect x="0" y="0" width="25" height="25"/>
</clipPath>
<g id="surface23" clip-path="url(#clip7)">
<path style=" stroke:none;fill-rule:evenodd;fill:rgb(0%,0%,0%);fill-opacity:1;" d="M 15.1875 13.914062 C 15.300781 13.894531 15.398438 13.925781 15.476562 14.015625 C 16.964844 16.738281 18.460938 19.457031 19.96875 22.167969 C 19.652344 22.246094 19.34375 22.226562 19.042969 22.117188 C 17.617188 19.5 16.171875 16.894531 14.695312 14.304688 C 14.882812 14.199219 15.046875 14.066406 15.1875 13.914062 Z M 15.1875 13.914062 "/>
</g>
<mask id="mask7">
  <g filter="url(#alpha)">
<rect x="0" y="0" width="25" height="25" style="fill:rgb(0%,0%,0%);fill-opacity:0.886275;stroke:none;"/>
  </g>
</mask>
<clipPath id="clip8">
  <rect x="0" y="0" width="25" height="25"/>
</clipPath>
<g id="surface26" clip-path="url(#clip8)">
<path style=" stroke:none;fill-rule:evenodd;fill:rgb(0%,0%,0%);fill-opacity:1;" d="M 4.734375 20.65625 C 5.46875 20.652344 5.808594 21.011719 5.761719 21.726562 C 5.273438 22.378906 4.785156 22.378906 4.296875 21.726562 C 4.230469 21.53125 4.230469 21.335938 4.296875 21.140625 C 4.464844 20.992188 4.609375 20.828125 4.734375 20.65625 Z M 4.734375 20.65625 "/>
</g>
<mask id="mask8">
  <g filter="url(#alpha)">
<rect x="0" y="0" width="25" height="25" style="fill:rgb(0%,0%,0%);fill-opacity:0.898039;stroke:none;"/>
  </g>
</mask>
<clipPath id="clip9">
  <rect x="0" y="0" width="25" height="25"/>
</clipPath>
<g id="surface29" clip-path="url(#clip9)">
<path style=" stroke:none;fill-rule:evenodd;fill:rgb(0%,0%,0%);fill-opacity:1;" d="M 1.90625 22.21875 C 2.527344 22.183594 3.144531 22.21875 3.757812 22.3125 C 4.605469 23.226562 5.453125 23.226562 6.296875 22.3125 C 7.695312 22.21875 9.097656 22.183594 10.5 22.21875 C 10.5 22.738281 10.5 23.257812 10.5 23.78125 C 9.5 23.894531 8.558594 23.75 7.664062 23.339844 C 6.316406 23.054688 5.015625 23.183594 3.757812 23.730469 C 3.140625 23.78125 2.523438 23.796875 1.90625 23.78125 C 1.90625 23.257812 1.90625 22.738281 1.90625 22.21875 Z M 1.90625 22.21875 "/>
</g>
<mask id="mask9">
  <g filter="url(#alpha)">
<rect x="0" y="0" width="25" height="25" style="fill:rgb(0%,0%,0%);fill-opacity:0.858824;stroke:none;"/>
  </g>
</mask>
<clipPath id="clip10">
  <rect x="0" y="0" width="25" height="25"/>
</clipPath>
<g id="surface32" clip-path="url(#clip10)">
<path style=" stroke:none;fill-rule:evenodd;fill:rgb(0%,0%,0%);fill-opacity:1;" d="M 18.3125 23 C 19.875 23 21.4375 23 23 23 C 23 23.257812 23 23.519531 23 23.78125 C 21.4375 23.78125 19.875 23.78125 18.3125 23.78125 C 18.3125 23.519531 18.3125 23.257812 18.3125 23 Z M 18.3125 23 "/>
</g>
</defs>
<g id="surface1">
<use xlink:href="#surface5" mask="url(#mask0)"/>
<use xlink:href="#surface8" mask="url(#mask1)"/>
<use xlink:href="#surface11" mask="url(#mask2)"/>
<use xlink:href="#surface14" mask="url(#mask3)"/>
<use xlink:href="#surface17" mask="url(#mask4)"/>
<use xlink:href="#surface20" mask="url(#mask5)"/>
<use xlink:href="#surface23" mask="url(#mask6)"/>
<use xlink:href="#surface26" mask="url(#mask7)"/>
<use xlink:href="#surface29" mask="url(#mask8)"/>
<use xlink:href="#surface32" mask="url(#mask9)"/>
</g>
</svg>
