<?xml version="1.0" encoding="UTF-8"?>
<svg xmlns="http://www.w3.org/2000/svg" xmlns:xlink="http://www.w3.org/1999/xlink" width="25px" height="25px" viewBox="0 0 25 25" version="1.1">
<defs>
<filter id="alpha" filterUnits="objectBoundingBox" x="0%" y="0%" width="100%" height="100%">
  <feColorMatrix type="matrix" in="SourceGraphic" values="0 0 0 0 1 0 0 0 0 1 0 0 0 0 1 0 0 0 1 0"/>
</filter>
<mask id="mask0">
  <g filter="url(#alpha)">
<rect x="0" y="0" width="25" height="25" style="fill:rgb(0%,0%,0%);fill-opacity:0.996078;stroke:none;"/>
  </g>
</mask>
<clipPath id="clip1">
  <rect x="0" y="0" width="25" height="25"/>
</clipPath>
<g id="surface5" clip-path="url(#clip1)">
<path style=" stroke:none;fill-rule:evenodd;fill:rgb(33.333334%,67.058825%,92.54902%);fill-opacity:1;" d="M 23.78125 -0.046875 C 24.171875 -0.046875 24.5625 -0.046875 24.953125 -0.046875 C 24.953125 0.34375 24.953125 0.734375 24.953125 1.125 C 24.253906 4.921875 22.839844 8.4375 20.703125 11.671875 C 19.820312 12.976562 18.894531 14.246094 17.921875 15.476562 C 17.457031 15.792969 17.035156 16.167969 16.648438 16.601562 C 15.015625 17.792969 13.191406 18.527344 11.179688 18.796875 C 10.761719 18.867188 10.339844 18.898438 9.914062 18.898438 C 9.605469 18.800781 9.28125 18.769531 8.9375 18.796875 C 11.164062 16.195312 13.261719 13.496094 15.234375 10.695312 C 15.527344 10.273438 15.738281 9.816406 15.867188 9.328125 C 15.960938 9.222656 15.992188 9.089844 15.96875 8.9375 C 15.78125 8.90625 15.617188 8.941406 15.476562 9.03125 C 15.03125 9.191406 14.605469 9.402344 14.210938 9.667969 C 11.40625 11.640625 8.707031 13.738281 6.101562 15.96875 C 6.132812 15.652344 6.101562 15.359375 6.007812 15.085938 C 6 14.628906 6.03125 14.171875 6.101562 13.71875 C 6.367188 11.707031 7.101562 9.886719 8.300781 8.25 C 8.734375 7.867188 9.109375 7.445312 9.421875 6.984375 C 12.660156 4.238281 16.304688 2.171875 20.359375 0.78125 C 21.5 0.457031 22.640625 0.179688 23.78125 -0.046875 Z M 23.78125 -0.046875 "/>
</g>
<mask id="mask1">
  <g filter="url(#alpha)">
<rect x="0" y="0" width="25" height="25" style="fill:rgb(0%,0%,0%);fill-opacity:0.976471;stroke:none;"/>
  </g>
</mask>
<clipPath id="clip2">
  <rect x="0" y="0" width="25" height="25"/>
</clipPath>
<g id="surface8" clip-path="url(#clip2)">
<path style=" stroke:none;fill-rule:evenodd;fill:rgb(62.352943%,1.568628%,11.764706%);fill-opacity:1;" d="M 9.421875 6.984375 C 9.109375 7.445312 8.734375 7.867188 8.300781 8.25 C 7.101562 9.886719 6.367188 11.707031 6.101562 13.71875 C 4.441406 12.632812 2.617188 12.015625 0.632812 11.867188 C 0.613281 11.75 0.644531 11.652344 0.734375 11.570312 C 2.558594 9.960938 4.394531 8.363281 6.25 6.789062 C 7.296875 6.914062 8.355469 6.980469 9.421875 6.984375 Z M 9.421875 6.984375 "/>
</g>
<mask id="mask2">
  <g filter="url(#alpha)">
<rect x="0" y="0" width="25" height="25" style="fill:rgb(0%,0%,0%);fill-opacity:0.976471;stroke:none;"/>
  </g>
</mask>
<clipPath id="clip3">
  <rect x="0" y="0" width="25" height="25"/>
</clipPath>
<g id="surface11" clip-path="url(#clip3)">
<path style=" stroke:none;fill-rule:evenodd;fill:rgb(99.607843%,67.450982%,20%);fill-opacity:1;" d="M 6.007812 15.085938 C 6.101562 15.359375 6.132812 15.652344 6.101562 15.96875 C 4.949219 16.03125 4.121094 16.582031 3.613281 17.625 C 3.113281 19.425781 3.71875 20.675781 5.421875 21.386719 C 7.082031 21.65625 8.238281 21.019531 8.886719 19.484375 C 8.933594 19.257812 8.953125 19.027344 8.9375 18.796875 C 9.28125 18.769531 9.605469 18.800781 9.914062 18.898438 C 9.671875 19.992188 9.230469 21.003906 8.59375 21.921875 C 7.515625 22.960938 6.226562 23.59375 4.734375 23.828125 C 3.351562 24.136719 1.953125 24.28125 0.539062 24.265625 C 0.578125 22.785156 0.757812 21.320312 1.074219 19.875 C 1.585938 17.101562 3.226562 15.503906 6.007812 15.085938 Z M 6.007812 15.085938 "/>
</g>
<mask id="mask3">
  <g filter="url(#alpha)">
<rect x="0" y="0" width="25" height="25" style="fill:rgb(0%,0%,0%);fill-opacity:0.972549;stroke:none;"/>
  </g>
</mask>
<clipPath id="clip4">
  <rect x="0" y="0" width="25" height="25"/>
</clipPath>
<g id="surface14" clip-path="url(#clip4)">
<path style=" stroke:none;fill-rule:evenodd;fill:rgb(62.352943%,1.568628%,11.764706%);fill-opacity:1;" d="M 17.921875 15.476562 C 17.992188 16.617188 18.007812 17.757812 17.96875 18.898438 C 16.371094 20.703125 14.761719 22.496094 13.132812 24.265625 C 12.886719 22.289062 12.238281 20.46875 11.179688 18.796875 C 13.191406 18.527344 15.015625 17.792969 16.648438 16.601562 C 17.035156 16.167969 17.457031 15.792969 17.921875 15.476562 Z M 17.921875 15.476562 "/>
</g>
</defs>
<g id="surface1">
<use xlink:href="#surface5" mask="url(#mask0)"/>
<path style=" stroke:none;fill-rule:evenodd;fill:rgb(0.784314%,1.176471%,1.568628%);fill-opacity:1;" d="M 17.921875 3.46875 C 19.429688 3.253906 20.550781 3.804688 21.289062 5.125 C 21.730469 6.683594 21.273438 7.886719 19.921875 8.742188 C 20.421875 6.894531 19.789062 5.609375 18.015625 4.882812 C 17.382812 4.808594 16.765625 4.84375 16.164062 4.980469 C 16.617188 4.316406 17.203125 3.8125 17.921875 3.46875 Z M 17.921875 3.46875 "/>
<use xlink:href="#surface8" mask="url(#mask1)"/>
<path style=" stroke:none;fill-rule:evenodd;fill:rgb(54.509807%,21.568628%,35.686275%);fill-opacity:1;" d="M 15.476562 9.03125 C 15.617188 8.941406 15.78125 8.90625 15.96875 8.9375 C 15.992188 9.089844 15.960938 9.222656 15.867188 9.328125 C 15.867188 9.226562 15.867188 9.132812 15.867188 9.03125 C 15.738281 9.03125 15.609375 9.03125 15.476562 9.03125 Z M 15.476562 9.03125 "/>
<path style=" stroke:none;fill-rule:evenodd;fill:rgb(62.7451%,2.352941%,12.156863%);fill-opacity:1;" d="M 15.476562 9.03125 C 15.609375 9.03125 15.738281 9.03125 15.867188 9.03125 C 15.867188 9.132812 15.867188 9.226562 15.867188 9.328125 C 15.738281 9.816406 15.527344 10.273438 15.234375 10.695312 C 13.261719 13.496094 11.164062 16.195312 8.9375 18.796875 C 7.839844 19.21875 6.699219 19.414062 5.515625 19.382812 C 5.429688 18.191406 5.625 17.054688 6.101562 15.96875 C 8.707031 13.738281 11.40625 11.640625 14.210938 9.667969 C 14.605469 9.402344 15.03125 9.191406 15.476562 9.03125 Z M 15.476562 9.03125 "/>
<use xlink:href="#surface11" mask="url(#mask2)"/>
<use xlink:href="#surface14" mask="url(#mask3)"/>
<path style=" stroke:none;fill-rule:evenodd;fill:rgb(99.607843%,79.607844%,29.803923%);fill-opacity:1;" d="M 6.101562 15.96875 C 5.625 17.054688 5.429688 18.191406 5.515625 19.382812 C 6.699219 19.414062 7.839844 19.21875 8.9375 18.796875 C 8.953125 19.027344 8.933594 19.257812 8.886719 19.484375 C 8.238281 21.019531 7.082031 21.65625 5.421875 21.386719 C 3.71875 20.675781 3.113281 19.425781 3.613281 17.625 C 4.121094 16.582031 4.949219 16.03125 6.101562 15.96875 Z M 6.101562 15.96875 "/>
</g>
</svg>
