<?xml version="1.0" encoding="UTF-8"?>
<svg xmlns="http://www.w3.org/2000/svg" xmlns:xlink="http://www.w3.org/1999/xlink" width="25px" height="25px" viewBox="0 0 25 25" version="1.1">
<defs>
<filter id="alpha" filterUnits="objectBoundingBox" x="0%" y="0%" width="100%" height="100%">
  <feColorMatrix type="matrix" in="SourceGraphic" values="0 0 0 0 1 0 0 0 0 1 0 0 0 0 1 0 0 0 1 0"/>
</filter>
<mask id="mask0">
  <g filter="url(#alpha)">
<rect x="0" y="0" width="25" height="25" style="fill:rgb(0%,0%,0%);fill-opacity:0.937255;stroke:none;"/>
  </g>
</mask>
<clipPath id="clip1">
  <rect x="0" y="0" width="25" height="25"/>
</clipPath>
<g id="surface5" clip-path="url(#clip1)">
<path style=" stroke:none;fill-rule:evenodd;fill:rgb(100%,53.333336%,54.11765%);fill-opacity:1;" d="M 13.429688 4.054688 C 12.386719 4.054688 11.34375 4.054688 10.304688 4.054688 C 10.285156 3.367188 10.304688 2.683594 10.351562 2 C 10.566406 1.730469 10.84375 1.648438 11.179688 1.757812 C 11.949219 2.511719 12.699219 3.273438 13.429688 4.054688 Z M 13.429688 4.054688 "/>
</g>
<mask id="mask1">
  <g filter="url(#alpha)">
<rect x="0" y="0" width="25" height="25" style="fill:rgb(0%,0%,0%);fill-opacity:0.980392;stroke:none;"/>
  </g>
</mask>
<clipPath id="clip2">
  <rect x="0" y="0" width="25" height="25"/>
</clipPath>
<g id="surface8" clip-path="url(#clip2)">
<path style=" stroke:none;fill-rule:evenodd;fill:rgb(98.431373%,52.549022%,54.11765%);fill-opacity:1;" d="M 18.703125 4.148438 C 17.640625 4.183594 16.601562 4.148438 15.578125 4.054688 C 16.273438 3.308594 16.988281 2.574219 17.726562 1.855469 C 18.054688 1.644531 18.363281 1.660156 18.652344 1.90625 C 18.703125 2.652344 18.71875 3.402344 18.703125 4.148438 Z M 18.703125 4.148438 "/>
</g>
<mask id="mask2">
  <g filter="url(#alpha)">
<rect x="0" y="0" width="25" height="25" style="fill:rgb(0%,0%,0%);fill-opacity:0.992157;stroke:none;"/>
  </g>
</mask>
<clipPath id="clip3">
  <rect x="0" y="0" width="25" height="25"/>
</clipPath>
<g id="surface11" clip-path="url(#clip3)">
<path style=" stroke:none;fill-rule:evenodd;fill:rgb(29.411766%,33.725491%,38.039216%);fill-opacity:1;" d="M 13.523438 4.054688 C 14.210938 4.054688 14.890625 4.054688 15.578125 4.054688 C 16.601562 4.148438 17.640625 4.183594 18.703125 4.148438 C 18.71875 5.484375 18.703125 6.820312 18.652344 8.15625 C 18.496094 8.855469 18.1875 9.476562 17.726562 10.007812 C 16.078125 11.527344 14.253906 11.773438 12.257812 10.742188 C 11.945312 10.515625 11.652344 10.269531 11.375 10.007812 C 10.492188 8.910156 10.132812 7.640625 10.304688 6.203125 C 10.398438 5.535156 10.433594 4.851562 10.398438 4.148438 C 11.460938 4.183594 12.5 4.148438 13.523438 4.054688 Z M 13.523438 4.054688 "/>
</g>
<mask id="mask3">
  <g filter="url(#alpha)">
<rect x="0" y="0" width="25" height="25" style="fill:rgb(0%,0%,0%);fill-opacity:0.556863;stroke:none;"/>
  </g>
</mask>
<clipPath id="clip4">
  <rect x="0" y="0" width="25" height="25"/>
</clipPath>
<g id="surface14" clip-path="url(#clip4)">
<path style=" stroke:none;fill-rule:evenodd;fill:rgb(64.313728%,43.137255%,46.27451%);fill-opacity:1;" d="M 10.304688 4.054688 C 11.34375 4.054688 12.386719 4.054688 13.429688 4.054688 C 13.460938 4.054688 13.492188 4.054688 13.523438 4.054688 C 12.5 4.148438 11.460938 4.183594 10.398438 4.148438 C 10.433594 4.851562 10.398438 5.535156 10.304688 6.203125 C 10.304688 5.484375 10.304688 4.769531 10.304688 4.054688 Z M 10.304688 4.054688 "/>
</g>
<mask id="mask4">
  <g filter="url(#alpha)">
<rect x="0" y="0" width="25" height="25" style="fill:rgb(0%,0%,0%);fill-opacity:0.988235;stroke:none;"/>
  </g>
</mask>
<clipPath id="clip5">
  <rect x="0" y="0" width="25" height="25"/>
</clipPath>
<g id="surface17" clip-path="url(#clip5)">
<path style=" stroke:none;fill-rule:evenodd;fill:rgb(29.411766%,33.725491%,38.039216%);fill-opacity:1;" d="M 11.375 10.304688 C 11.355469 10.960938 11.40625 11.609375 11.523438 12.257812 C 11.867188 13.378906 12.597656 14.109375 13.71875 14.453125 C 15.945312 14.714844 17.28125 13.753906 17.726562 11.570312 C 17.726562 14.273438 17.726562 16.976562 17.726562 19.679688 C 18.667969 19.660156 19.613281 19.679688 20.554688 19.726562 C 21.726562 20.132812 22.101562 20.929688 21.679688 22.117188 C 21.425781 22.4375 21.117188 22.683594 20.75 22.851562 C 19.484375 22.898438 18.214844 22.917969 16.945312 22.898438 C 17.28125 22.695312 17.507812 22.402344 17.625 22.023438 C 17.722656 21.617188 17.753906 21.195312 17.726562 20.75 C 16.992188 20.71875 16.273438 20.753906 15.578125 20.851562 C 15.542969 21.378906 15.59375 21.902344 15.722656 22.414062 C 15.898438 22.585938 16.078125 22.75 16.257812 22.898438 C 15.085938 22.898438 13.914062 22.898438 12.742188 22.898438 C 13.109375 22.765625 13.335938 22.503906 13.429688 22.117188 C 13.523438 21.683594 13.554688 21.226562 13.523438 20.75 C 12.808594 20.75 12.09375 20.75 11.375 20.75 C 11.347656 21.226562 11.378906 21.683594 11.476562 22.117188 C 11.566406 22.503906 11.792969 22.765625 12.15625 22.898438 C 10.628906 22.917969 9.097656 22.898438 7.570312 22.851562 C 5.609375 22.390625 4.453125 21.167969 4.101562 19.1875 C 3.691406 15.433594 5.140625 12.683594 8.445312 10.9375 C 9.382812 10.539062 10.359375 10.328125 11.375 10.304688 Z M 11.375 10.304688 "/>
</g>
</defs>
<g id="surface1">
<use xlink:href="#surface5" mask="url(#mask0)"/>
<use xlink:href="#surface8" mask="url(#mask1)"/>
<use xlink:href="#surface11" mask="url(#mask2)"/>
<use xlink:href="#surface14" mask="url(#mask3)"/>
<path style=" stroke:none;fill-rule:evenodd;fill:rgb(97.254902%,97.254902%,97.254902%);fill-opacity:1;" d="M 12.351562 6.203125 C 13.117188 6.117188 13.492188 6.441406 13.476562 7.179688 C 13.066406 7.859375 12.578125 7.925781 12.011719 7.375 C 11.875 6.898438 11.988281 6.507812 12.351562 6.203125 Z M 12.351562 6.203125 "/>
<path style=" stroke:none;fill-rule:evenodd;fill:rgb(97.254902%,97.254902%,97.254902%);fill-opacity:1;" d="M 16.257812 6.203125 C 17.023438 6.117188 17.398438 6.441406 17.382812 7.179688 C 16.972656 7.859375 16.484375 7.925781 15.917969 7.375 C 15.78125 6.898438 15.894531 6.507812 16.257812 6.203125 Z M 16.257812 6.203125 "/>
<path style=" stroke:none;fill-rule:evenodd;fill:rgb(98.431373%,98.823529%,98.823529%);fill-opacity:1;" d="M 11.375 10.007812 C 11.652344 10.269531 11.945312 10.515625 12.257812 10.742188 C 14.253906 11.773438 16.078125 11.527344 17.726562 10.007812 C 17.726562 10.53125 17.726562 11.050781 17.726562 11.570312 C 17.28125 13.753906 15.945312 14.714844 13.71875 14.453125 C 12.597656 14.109375 11.867188 13.378906 11.523438 12.257812 C 11.40625 11.609375 11.355469 10.960938 11.375 10.304688 C 11.375 10.203125 11.375 10.109375 11.375 10.007812 Z M 11.375 10.007812 "/>
<use xlink:href="#surface17" mask="url(#mask4)"/>
<path style=" stroke:none;fill-rule:evenodd;fill:rgb(75.294119%,76.862746%,78.431374%);fill-opacity:1;" d="M 13.429688 22.117188 C 13.429688 21.695312 13.429688 21.273438 13.429688 20.851562 C 12.777344 20.851562 12.125 20.851562 11.476562 20.851562 C 11.476562 21.273438 11.476562 21.695312 11.476562 22.117188 C 11.378906 21.683594 11.347656 21.226562 11.375 20.75 C 12.09375 20.75 12.808594 20.75 13.523438 20.75 C 13.554688 21.226562 13.523438 21.683594 13.429688 22.117188 Z M 13.429688 22.117188 "/>
<path style=" stroke:none;fill-rule:evenodd;fill:rgb(69.411767%,71.372551%,73.333335%);fill-opacity:1;" d="M 15.578125 20.851562 C 16.273438 20.753906 16.992188 20.71875 17.726562 20.75 C 17.753906 21.195312 17.722656 21.617188 17.625 22.023438 C 17.625 21.632812 17.625 21.242188 17.625 20.851562 C 16.945312 20.851562 16.257812 20.851562 15.578125 20.851562 Z M 15.578125 20.851562 "/>
<path style=" stroke:none;fill-rule:evenodd;fill:rgb(98.431373%,98.823529%,98.823529%);fill-opacity:1;" d="M 13.429688 22.117188 C 13.335938 22.503906 13.109375 22.765625 12.742188 22.898438 C 12.546875 22.898438 12.351562 22.898438 12.15625 22.898438 C 11.792969 22.765625 11.566406 22.503906 11.476562 22.117188 C 11.476562 21.695312 11.476562 21.273438 11.476562 20.851562 C 12.125 20.851562 12.777344 20.851562 13.429688 20.851562 C 13.429688 21.273438 13.429688 21.695312 13.429688 22.117188 Z M 13.429688 22.117188 "/>
<path style=" stroke:none;fill-rule:evenodd;fill:rgb(98.823529%,98.823529%,98.823529%);fill-opacity:1;" d="M 15.578125 20.851562 C 16.257812 20.851562 16.945312 20.851562 17.625 20.851562 C 17.625 21.242188 17.625 21.632812 17.625 22.023438 C 17.507812 22.402344 17.28125 22.695312 16.945312 22.898438 C 16.714844 22.898438 16.488281 22.898438 16.257812 22.898438 C 16.078125 22.75 15.898438 22.585938 15.722656 22.414062 C 15.59375 21.902344 15.542969 21.378906 15.578125 20.851562 Z M 15.578125 20.851562 "/>
</g>
</svg>
