<?xml version="1.0" encoding="UTF-8"?>
<svg xmlns="http://www.w3.org/2000/svg" xmlns:xlink="http://www.w3.org/1999/xlink" width="25px" height="25px" viewBox="0 0 25 25" version="1.1">
<defs>
<filter id="alpha" filterUnits="objectBoundingBox" x="0%" y="0%" width="100%" height="100%">
  <feColorMatrix type="matrix" in="SourceGraphic" values="0 0 0 0 1 0 0 0 0 1 0 0 0 0 1 0 0 0 1 0"/>
</filter>
<mask id="mask0">
  <g filter="url(#alpha)">
<rect x="0" y="0" width="25" height="25" style="fill:rgb(0%,0%,0%);fill-opacity:0.988235;stroke:none;"/>
  </g>
</mask>
<clipPath id="clip1">
  <rect x="0" y="0" width="25" height="25"/>
</clipPath>
<g id="surface5" clip-path="url(#clip1)">
<path style=" stroke:none;fill-rule:evenodd;fill:rgb(24.705882%,31.764707%,70.980394%);fill-opacity:1;" d="M 13.429688 2.492188 C 13.429688 2.523438 13.429688 2.554688 13.429688 2.585938 C 11.578125 4.601562 9.722656 6.621094 7.859375 8.640625 C 7.882812 8.699219 7.914062 8.75 7.960938 8.789062 C 10.105469 9.449219 12.222656 10.167969 14.304688 10.9375 C 12.984375 12.308594 11.617188 13.628906 10.203125 14.890625 C 9.796875 14.210938 9.390625 13.523438 8.984375 12.84375 C 8.5 14.941406 8.09375 17.054688 7.765625 19.1875 C 9.859375 18.714844 11.941406 18.210938 14.015625 17.675781 C 13.328125 17.300781 12.648438 16.925781 11.960938 16.554688 C 11.863281 16.503906 11.847656 16.4375 11.914062 16.359375 C 14.144531 14.257812 16.375 12.15625 18.601562 10.058594 C 16.464844 9.292969 14.316406 8.542969 12.15625 7.8125 C 13.804688 6.117188 15.433594 4.40625 17.039062 2.6875 C 17.140625 2.652344 17.203125 2.585938 17.234375 2.492188 C 18.375 2.472656 19.515625 2.492188 20.65625 2.539062 C 21.550781 2.78125 22.117188 3.351562 22.363281 4.25 C 22.429688 9.71875 22.429688 15.1875 22.363281 20.65625 C 22.117188 21.550781 21.550781 22.117188 20.65625 22.363281 C 15.1875 22.429688 9.71875 22.429688 4.25 22.363281 C 3.351562 22.117188 2.78125 21.550781 2.539062 20.65625 C 2.472656 15.1875 2.472656 9.71875 2.539062 4.25 C 2.78125 3.351562 3.351562 2.78125 4.25 2.539062 C 7.308594 2.492188 10.367188 2.472656 13.429688 2.492188 Z M 13.429688 2.492188 "/>
</g>
<mask id="mask1">
  <g filter="url(#alpha)">
<rect x="0" y="0" width="25" height="25" style="fill:rgb(0%,0%,0%);fill-opacity:0.658824;stroke:none;"/>
  </g>
</mask>
<clipPath id="clip2">
  <rect x="0" y="0" width="25" height="25"/>
</clipPath>
<g id="surface8" clip-path="url(#clip2)">
<path style=" stroke:none;fill-rule:evenodd;fill:rgb(43.137255%,71.764708%,85.882354%);fill-opacity:1;" d="M 13.429688 2.585938 C 13.429688 2.554688 13.429688 2.523438 13.429688 2.492188 C 14.695312 2.492188 15.96875 2.492188 17.234375 2.492188 C 17.203125 2.585938 17.140625 2.652344 17.039062 2.6875 C 15.855469 2.589844 14.648438 2.554688 13.429688 2.585938 Z M 13.429688 2.585938 "/>
</g>
</defs>
<g id="surface1">
<use xlink:href="#surface5" mask="url(#mask0)"/>
<use xlink:href="#surface8" mask="url(#mask1)"/>
<path style=" stroke:none;fill-rule:evenodd;fill:rgb(49.803922%,86.274511%,91.37255%);fill-opacity:1;" d="M 13.429688 2.585938 C 14.648438 2.554688 15.855469 2.589844 17.039062 2.6875 C 15.433594 4.40625 13.804688 6.117188 12.15625 7.8125 C 14.316406 8.542969 16.464844 9.292969 18.601562 10.058594 C 16.375 12.15625 14.144531 14.257812 11.914062 16.359375 C 11.847656 16.4375 11.863281 16.503906 11.960938 16.554688 C 12.648438 16.925781 13.328125 17.300781 14.015625 17.675781 C 11.941406 18.210938 9.859375 18.714844 7.765625 19.1875 C 8.09375 17.054688 8.5 14.941406 8.984375 12.84375 C 9.390625 13.523438 9.796875 14.210938 10.203125 14.890625 C 11.617188 13.628906 12.984375 12.308594 14.304688 10.9375 C 12.222656 10.167969 10.105469 9.449219 7.960938 8.789062 C 7.914062 8.75 7.882812 8.699219 7.859375 8.640625 C 9.722656 6.621094 11.578125 4.601562 13.429688 2.585938 Z M 13.429688 2.585938 "/>
</g>
</svg>
