<?xml version="1.0" encoding="UTF-8"?>
<svg xmlns="http://www.w3.org/2000/svg" xmlns:xlink="http://www.w3.org/1999/xlink" width="25px" height="25px" viewBox="0 0 25 25" version="1.1">
<defs>
<filter id="alpha" filterUnits="objectBoundingBox" x="0%" y="0%" width="100%" height="100%">
  <feColorMatrix type="matrix" in="SourceGraphic" values="0 0 0 0 1 0 0 0 0 1 0 0 0 0 1 0 0 0 1 0"/>
</filter>
<mask id="mask0">
  <g filter="url(#alpha)">
<rect x="0" y="0" width="25" height="25" style="fill:rgb(0%,0%,0%);fill-opacity:0.996078;stroke:none;"/>
  </g>
</mask>
<clipPath id="clip1">
  <rect x="0" y="0" width="25" height="25"/>
</clipPath>
<g id="surface5" clip-path="url(#clip1)">
<path style=" stroke:none;fill-rule:evenodd;fill:rgb(92.54902%,78.431374%,18.431373%);fill-opacity:1;" d="M 10.984375 -0.046875 C 11.960938 -0.046875 12.9375 -0.046875 13.914062 -0.046875 C 18.964844 0.78125 22.429688 3.582031 24.316406 8.351562 C 24.609375 9.222656 24.820312 10.101562 24.953125 10.984375 C 24.953125 11.960938 24.953125 12.9375 24.953125 13.914062 C 24.121094 18.964844 21.320312 22.429688 16.554688 24.316406 C 15.679688 24.609375 14.800781 24.820312 13.914062 24.953125 C 12.9375 24.953125 11.960938 24.953125 10.984375 24.953125 C 5.9375 24.121094 2.472656 21.320312 0.585938 16.554688 C 0.292969 15.679688 0.0820312 14.800781 -0.046875 13.914062 C -0.046875 12.9375 -0.046875 11.960938 -0.046875 10.984375 C 0.78125 5.9375 3.582031 2.472656 8.351562 0.585938 C 9.222656 0.292969 10.101562 0.0820312 10.984375 -0.046875 Z M 10.984375 -0.046875 "/>
</g>
</defs>
<g id="surface1">
<use xlink:href="#surface5" mask="url(#mask0)"/>
<path style=" stroke:none;fill-rule:evenodd;fill:rgb(16.470589%,65.098041%,66.666669%);fill-opacity:1;" d="M 20.75 7.46875 C 17.480469 7.566406 14.191406 7.601562 10.890625 7.570312 C 10.074219 7.570312 9.261719 7.570312 8.445312 7.570312 C 7.777344 7.601562 7.125 7.566406 6.492188 7.46875 C 6.503906 7.410156 6.539062 7.363281 6.59375 7.324219 C 8.953125 7.308594 11.3125 7.292969 13.671875 7.273438 C 16.066406 7.277344 18.425781 7.339844 20.75 7.46875 Z M 20.75 7.46875 "/>
<path style=" stroke:none;fill-rule:evenodd;fill:rgb(90.980393%,31.764707%,28.235295%);fill-opacity:1;" d="M 6.398438 7.765625 C 6.332031 7.960938 6.265625 8.15625 6.203125 8.351562 C 5.777344 8.1875 5.453125 7.910156 5.226562 7.519531 C 5.257812 7.46875 5.289062 7.421875 5.320312 7.375 C 5.667969 7.527344 6.027344 7.65625 6.398438 7.765625 Z M 6.398438 7.765625 "/>
<path style=" stroke:none;fill-rule:evenodd;fill:rgb(15.294118%,74.901962%,74.117649%);fill-opacity:1;" d="M 8.445312 7.570312 C 9.261719 7.570312 10.074219 7.570312 10.890625 7.570312 C 10.890625 8.089844 10.890625 8.609375 10.890625 9.132812 C 10.074219 9.132812 9.261719 9.132812 8.445312 9.132812 C 8.445312 8.609375 8.445312 8.089844 8.445312 7.570312 Z M 8.445312 7.570312 "/>
<path style=" stroke:none;fill-rule:evenodd;fill:rgb(13.333334%,65.490198%,36.078432%);fill-opacity:1;" d="M 20.75 7.46875 C 20.878906 7.773438 20.941406 8.097656 20.945312 8.445312 C 20.066406 8.429688 19.1875 8.449219 18.3125 8.496094 C 17.855469 8.5 17.5 8.679688 17.234375 9.03125 C 15.121094 9.128906 13.003906 9.164062 10.890625 9.132812 C 10.890625 8.609375 10.890625 8.089844 10.890625 7.570312 C 14.191406 7.601562 17.480469 7.566406 20.75 7.46875 Z M 20.75 7.46875 "/>
<path style=" stroke:none;fill-rule:evenodd;fill:rgb(90.980393%,28.627452%,28.627452%);fill-opacity:1;" d="M 20.851562 8.640625 C 20.847656 9.109375 20.78125 9.5625 20.65625 10.007812 C 19.550781 10.105469 18.441406 10.140625 17.335938 10.109375 C 17.164062 10.003906 17.097656 9.84375 17.140625 9.617188 C 17.199219 9.253906 17.394531 8.980469 17.726562 8.789062 C 18.761719 8.652344 19.800781 8.601562 20.851562 8.640625 Z M 20.851562 8.640625 "/>
<path style=" stroke:none;fill-rule:evenodd;fill:rgb(14.901961%,50.980395%,50.196081%);fill-opacity:1;" d="M 20.945312 8.445312 C 20.964844 8.542969 20.929688 8.609375 20.851562 8.640625 C 19.800781 8.601562 18.761719 8.652344 17.726562 8.789062 C 17.394531 8.980469 17.199219 9.253906 17.140625 9.617188 C 17.140625 9.488281 17.140625 9.359375 17.140625 9.226562 C 12.675781 9.273438 9.78125 9.242188 8.445312 9.132812 C 9.261719 9.132812 10.074219 9.132812 10.890625 9.132812 C 13.003906 9.164062 15.121094 9.128906 17.234375 9.03125 C 17.5 8.679688 17.855469 8.5 18.3125 8.496094 C 19.1875 8.449219 20.066406 8.429688 20.945312 8.445312 Z M 20.945312 8.445312 "/>
<path style=" stroke:none;fill-rule:evenodd;fill:rgb(17.647059%,65.490198%,35.294119%);fill-opacity:1;" d="M 6.492188 7.46875 C 7.125 7.566406 7.777344 7.601562 8.445312 7.570312 C 8.445312 8.089844 8.445312 8.609375 8.445312 9.132812 C 9.78125 9.242188 12.675781 9.273438 17.140625 9.226562 C 17.140625 9.359375 17.140625 9.488281 17.140625 9.617188 C 17.007812 9.8125 17.007812 10.007812 17.140625 10.203125 C 16.105469 10.273438 15.066406 10.335938 14.015625 10.398438 C 13.910156 10.308594 13.777344 10.277344 13.625 10.304688 C 12.867188 10.273438 12.121094 10.304688 11.375 10.398438 C 11.015625 10.898438 10.785156 11.453125 10.695312 12.0625 C 10.46875 12.179688 10.339844 12.375 10.304688 12.648438 C 9.609375 14.195312 8.941406 15.757812 8.300781 17.335938 C 8.101562 17.425781 7.890625 17.457031 7.664062 17.429688 C 8.628906 15.015625 9.625 12.605469 10.644531 10.203125 C 10.722656 10.035156 10.707031 9.871094 10.59375 9.71875 C 9.882812 9.605469 9.167969 9.589844 8.445312 9.667969 C 8.21875 9.703125 8.039062 9.816406 7.910156 10.007812 C 6.710938 12.484375 5.523438 14.957031 4.34375 17.429688 C 4.1875 17.445312 4.074219 17.378906 4.003906 17.234375 C 3.847656 16.203125 4.074219 15.257812 4.6875 14.40625 C 5.054688 13.832031 5.445312 13.28125 5.859375 12.742188 C 6.242188 12.214844 6.40625 11.628906 6.347656 10.984375 C 6.269531 10.8125 6.15625 10.664062 6.007812 10.546875 C 5.632812 10.375 5.273438 10.179688 4.929688 9.960938 C 5.195312 9.78125 5.488281 9.667969 5.8125 9.617188 C 6.015625 9.21875 6.148438 8.796875 6.203125 8.351562 C 6.265625 8.15625 6.332031 7.960938 6.398438 7.765625 C 6.375 7.636719 6.40625 7.539062 6.492188 7.46875 Z M 6.492188 7.46875 "/>
<path style=" stroke:none;fill-rule:evenodd;fill:rgb(90.588236%,29.411766%,28.627452%);fill-opacity:1;" d="M 7.664062 17.429688 C 6.550781 17.6875 5.441406 17.6875 4.34375 17.429688 C 5.523438 14.957031 6.710938 12.484375 7.910156 10.007812 C 8.039062 9.816406 8.21875 9.703125 8.445312 9.667969 C 9.167969 9.589844 9.882812 9.605469 10.59375 9.71875 C 10.707031 9.871094 10.722656 10.035156 10.644531 10.203125 C 9.625 12.605469 8.628906 15.015625 7.664062 17.429688 Z M 7.664062 17.429688 "/>
<path style=" stroke:none;fill-rule:evenodd;fill:rgb(48.627451%,53.333336%,36.470589%);fill-opacity:1;" d="M 17.140625 9.617188 C 17.097656 9.84375 17.164062 10.003906 17.335938 10.109375 C 17.300781 10.1875 17.234375 10.222656 17.140625 10.203125 C 17.007812 10.007812 17.007812 9.8125 17.140625 9.617188 Z M 17.140625 9.617188 "/>
<path style=" stroke:none;fill-rule:evenodd;fill:rgb(90.980393%,78.431374%,19.215687%);fill-opacity:1;" d="M 13.625 10.304688 C 13.558594 10.878906 13.410156 11.433594 13.183594 11.960938 C 13.0625 12.03125 12.945312 12.113281 12.84375 12.207031 C 12.15625 12.273438 11.476562 12.273438 10.789062 12.207031 C 10.738281 12.167969 10.703125 12.121094 10.695312 12.0625 C 10.785156 11.453125 11.015625 10.898438 11.375 10.398438 C 12.121094 10.304688 12.867188 10.273438 13.625 10.304688 Z M 13.625 10.304688 "/>
<path style=" stroke:none;fill-rule:evenodd;fill:rgb(24.705882%,66.274512%,63.921571%);fill-opacity:1;" d="M 13.625 10.304688 C 13.777344 10.277344 13.910156 10.308594 14.015625 10.398438 C 13.925781 11.125 13.664062 11.777344 13.234375 12.351562 C 13.046875 12.460938 12.851562 12.542969 12.648438 12.597656 C 11.867188 12.648438 11.085938 12.664062 10.304688 12.648438 C 10.339844 12.375 10.46875 12.179688 10.695312 12.0625 C 10.703125 12.121094 10.738281 12.167969 10.789062 12.207031 C 11.476562 12.273438 12.15625 12.273438 12.84375 12.207031 C 12.945312 12.113281 13.0625 12.03125 13.183594 11.960938 C 13.410156 11.433594 13.558594 10.878906 13.625 10.304688 Z M 13.625 10.304688 "/>
<path style=" stroke:none;fill-rule:evenodd;fill:rgb(94.509804%,78.823531%,28.627452%);fill-opacity:1;" d="M 6.296875 15.773438 C 6.789062 15.773438 6.984375 16 6.882812 16.453125 C 6.613281 16.285156 6.417969 16.054688 6.296875 15.773438 Z M 6.296875 15.773438 "/>
<path style=" stroke:none;fill-rule:evenodd;fill:rgb(94.509804%,74.901962%,28.627452%);fill-opacity:1;" d="M 6.101562 16.0625 C 6.371094 16.183594 6.597656 16.363281 6.789062 16.601562 C 6.289062 16.804688 6.058594 16.625 6.101562 16.0625 Z M 6.101562 16.0625 "/>
</g>
</svg>
